SplineFontDB: 3.0
FontName: Astronom
FullName: Astronom
FamilyName: Astronom
Weight: Book
Copyright: Astronom is based on HamburgSymbols.
Version: 1.0 Sat Jan 23 12:00:00 2010
ItalicAngle: 0
UnderlinePosition: -125
UnderlineWidth: 150
Ascent: 1638
Descent: 410
sfntRevision: 0x00010000
LayerCount: 2
Layer: 0 1 "+BBcEMAQ0BD0EVgQ5 +BD8EOwQwBD0A"  1
Layer: 1 1 "+BB8ENQRABDUENAQ9BFYEOQAA +BD8EOwQwBD0A"  0
XUID: [1021 821 1742790020 10906220]
FSType: 8
OS2Version: 1
OS2_WeightWidthSlopeOnly: 0
OS2_UseTypoMetrics: 1
CreationTime: 1124366400
ModificationTime: 1350657479
PfmFamily: 81
TTFWeight: 400
TTFWidth: 5
LineGap: 271
VLineGap: 0
Panose: 1 0 6 4 6 3 2 2 2 4
OS2TypoAscent: 126
OS2TypoAOffset: 1
OS2TypoDescent: 186
OS2TypoDOffset: 1
OS2TypoLinegap: 205
OS2WinAscent: 0
OS2WinAOffset: 1
OS2WinDescent: 64
OS2WinDOffset: 1
HheadAscent: 0
HheadAOffset: 1
HheadDescent: -64
HheadDOffset: 1
OS2SubXSize: 0
OS2SubYSize: 0
OS2SubXOff: 0
OS2SubYOff: 0
OS2SupXSize: 0
OS2SupYSize: 0
OS2SupXOff: 0
OS2SupYOff: 0
OS2StrikeYSize: 0
OS2StrikeYPos: 0
OS2FamilyClass: 2319
OS2Vendor: 'HL  '
OS2CodePages: 60000001.80000000
OS2UnicodeRanges: 00000023.000000ca.00000000.00000000
DEI: 91125
ShortTable: maxp 16
  1
  0
  311
  269
  16
  0
  0
  2
  8
  64
  10
  0
  220
  0
  0
  0
EndShort
LangName: 1033 "" "" "Regular" "Astronom" "" "1.0 Sat Jan 23 12:00:00 2010" "" "" "" "cat3" "Symbols for Astrology, asteroids, and personal points." 
GaspTable: 1 65535 2 0
Encoding: UnicodeBmp
UnicodeInterp: none
NameList: Adobe Glyph List
DisplaySize: -48
AntiAlias: 1
FitToEm: 1
WinInfo: 0 27 9
BeginChars: 65539 313

StartChar: uni0010
Encoding: 16 16 3
Width: 800
Flags: W
LayerCount: 2
Fore
SplineSet
696 -103 m 1,0,-1
 525 -103 l 1,1,-1
 104 1668 l 1,2,-1
 267 1668 l 1,3,-1
 696 -103 l 1,0,-1
EndSplineSet
Validated: 1
EndChar

StartChar: uni0011
Encoding: 17 17 4
Width: 1563
Flags: W
LayerCount: 2
Fore
SplineSet
1562 -329 m 1,0,-1
 1 -329 l 1,1,-1
 1 -181 l 1,2,-1
 1562 -181 l 1,3,-1
 1562 -329 l 1,0,-1
EndSplineSet
Validated: 1
EndChar

StartChar: uni0012
Encoding: 18 18 5
Width: 1498
Flags: W
LayerCount: 2
Fore
SplineSet
175 1564 m 1,0,-1
 600 1564 l 1,1,-1
 600 1480 l 1,2,-1
 438 1480 l 1,3,-1
 438 969 l 1,4,-1
 337 969 l 1,5,-1
 337 1480 l 1,6,-1
 175 1480 l 1,7,-1
 175 1564 l 1,0,-1
765 1463 m 1,8,-1
 765 969 l 1,9,-1
 697 969 l 1,10,-1
 697 1564 l 1,11,-1
 834 1564 l 1,12,-1
 1010 1109 l 1,13,-1
 1187 1564 l 1,14,-1
 1322 1564 l 1,15,-1
 1322 969 l 1,16,-1
 1221 969 l 1,17,-1
 1221 1464 l 1,18,-1
 1029 969 l 1,19,-1
 955 969 l 1,20,-1
 765 1463 l 1,8,-1
EndSplineSet
Validated: 1
EndChar

StartChar: uni0013
Encoding: 19 19 6
Width: 1562
Flags: W
LayerCount: 2
Fore
SplineSet
201 217 m 1,0,-1
 1361 217 l 1,1,-1
 1361 60 l 1,2,-1
 201 60 l 1,3,-1
 201 217 l 1,0,-1
201 1002 m 1,4,-1
 702 1002 l 1,5,-1
 702 1504 l 1,6,-1
 860 1504 l 1,7,-1
 860 1002 l 1,8,-1
 1361 1002 l 1,9,-1
 1361 845 l 1,10,-1
 860 845 l 1,11,-1
 860 343 l 1,12,-1
 702 343 l 1,13,-1
 702 845 l 1,14,-1
 201 845 l 1,15,-1
 201 1002 l 1,4,-1
EndSplineSet
Validated: 1
EndChar

StartChar: uni0014
Encoding: 20 20 7
Width: 514
Flags: W
LayerCount: 2
Fore
SplineSet
178 -103 m 1,0,-1
 178 1668 l 1,1,-1
 335 1668 l 1,2,-1
 335 -103 l 1,3,-1
 178 -103 l 1,0,-1
EndSplineSet
Validated: 1
EndChar

StartChar: uni0015
Encoding: 21 21 8
Width: 1562
Flags: W
LayerCount: 2
Fore
SplineSet
417 1268 m 1,0,-1
 781 905 l 1,1,-1
 1144 1268 l 1,2,-1
 1299 1268 l 1,3,-1
 1299 1177 l 1,4,-1
 904 782 l 1,5,-1
 1299 386 l 1,6,-1
 1299 296 l 1,7,-1
 1144 296 l 1,8,-1
 781 659 l 1,9,-1
 418 296 l 1,10,-1
 262 296 l 1,11,-1
 262 386 l 1,12,-1
 658 782 l 1,13,-1
 262 1177 l 1,14,-1
 262 1268 l 1,15,-1
 417 1268 l 1,0,-1
EndSplineSet
Validated: 1
EndChar

StartChar: uni0016
Encoding: 22 22 9
Width: 1562
Flags: W
LayerCount: 2
Fore
SplineSet
201 860 m 1,0,-1
 1361 860 l 1,1,-1
 1361 703 l 1,2,-1
 201 703 l 1,3,-1
 201 860 l 1,0,-1
680 416 m 1,4,-1
 882 416 l 1,5,-1
 882 217 l 1,6,-1
 680 217 l 1,7,-1
 680 416 l 1,4,-1
680 1346 m 1,8,-1
 882 1346 l 1,9,-1
 882 1148 l 1,10,-1
 680 1148 l 1,11,-1
 680 1346 l 1,8,-1
EndSplineSet
Validated: 1
EndChar

StartChar: uni0017
Encoding: 23 23 10
Width: 1822
Flags: W
LayerCount: 2
Fore
SplineSet
909 1301 m 0,0,1
 1073 1301 1073 1301 1210 1205 c 1,2,-1
 1483 1477 l 1,3,-1
 1606 1355 l 1,4,-1
 1333 1082 l 1,5,6
 1429 947 1429 947 1429 782 c 0,7,8
 1429 570 1429 570 1276 416 c 128,-1,9
 1123 262 1123 262 909 262 c 0,10,11
 746 262 746 262 609 358 c 1,12,-1
 337 86 l 1,13,-1
 215 209 l 1,14,-1
 486 481 l 1,15,16
 390 616 390 616 390 782 c 0,17,18
 390 1010 390 1010 561 1166 c 0,19,20
 708 1301 708 1301 909 1301 c 0,0,1
1207 956 m 1,21,-1
 735 484 l 1,22,23
 816 436 816 436 909 436 c 0,24,25
 1051 436 1051 436 1153 536.5 c 128,-1,26
 1255 637 1255 637 1255 782 c 0,27,28
 1255 873 1255 873 1207 956 c 1,21,-1
612 607 m 1,29,-1
 1084 1079 l 1,30,31
 1006 1127 1006 1127 909 1127 c 0,32,33
 767 1127 767 1127 665.5 1025.5 c 128,-1,34
 564 924 564 924 564 782 c 0,35,36
 564 690 564 690 612 607 c 1,29,-1
EndSplineSet
Validated: 1
EndChar

StartChar: exclam
Encoding: 33 33 12
Width: 524
Flags: W
LayerCount: 2
Fore
SplineSet
340 1564 m 1,0,-1
 322 382 l 1,1,-1
 198 382 l 1,2,-1
 184 1564 l 1,3,-1
 340 1564 l 1,0,-1
169 191 m 1,4,-1
 354 191 l 1,5,-1
 354 0 l 1,6,-1
 169 0 l 1,7,-1
 169 191 l 1,4,-1
EndSplineSet
Validated: 1
EndChar

StartChar: quotedbl
Encoding: 34 34 13
Width: 800
Flags: W
LayerCount: 2
Fore
SplineSet
179 1653 m 1,0,-1
 179 1107 l 1,1,-1
 29 1107 l 1,2,-1
 29 1653 l 1,3,-1
 179 1653 l 1,0,-1
548 1653 m 1,4,-1
 548 1107 l 1,5,-1
 398 1107 l 1,6,-1
 398 1653 l 1,7,-1
 548 1653 l 1,4,-1
EndSplineSet
Validated: 1
EndChar

StartChar: numbersign
Encoding: 35 35 14
Width: 1200
Flags: W
LayerCount: 2
Fore
SplineSet
217 691 m 1,0,-1
 694 3 l 1,1,-1
 694 691 l 1,2,-1
 811 691 l 1,3,-1
 811 -275 l 1,4,-1
 694 -275 l 1,5,-1
 217 405 l 1,6,-1
 217 -275 l 1,7,-1
 100 -275 l 1,8,-1
 100 691 l 1,9,-1
 217 691 l 1,0,-1
EndSplineSet
Validated: 1
EndChar

StartChar: dollar
Encoding: 36 36 15
Width: 1200
Flags: W
LayerCount: 2
Fore
SplineSet
274 577 m 1,0,-1
 274 279 l 1,1,-1
 473 279 l 2,2,3
 539 279 539 279 587 319 c 128,-1,4
 635 359 635 359 635 427 c 0,5,6
 635 494 635 494 590 535.5 c 128,-1,7
 545 577 545 577 473 577 c 2,8,-1
 274 577 l 1,0,-1
535 165 m 1,9,-1
 812 -275 l 1,10,-1
 621 -275 l 1,11,-1
 380 165 l 1,12,-1
 274 165 l 1,13,-1
 274 -275 l 1,14,-1
 110 -275 l 1,15,-1
 109 694 l 1,16,-1
 522 694 l 2,17,18
 643 694 643 694 727 617 c 128,-1,19
 811 540 811 540 811 430 c 0,20,21
 811 314 811 314 716 235 c 0,22,23
 633 165 633 165 535 165 c 1,9,-1
EndSplineSet
Validated: 1
EndChar

StartChar: percent
Encoding: 37 37 16
Width: 1200
Flags: W
LayerCount: 2
Fore
SplineSet
456 -275 m 0,0,1
 343 -275 343 -275 248 -222 c 0,2,3
 128 -155 128 -155 113 -51 c 1,4,-1
 281 -51 l 1,5,6
 316 -156 316 -156 456 -156 c 0,7,8
 530 -156 530 -156 583 -115 c 128,-1,9
 636 -74 636 -74 636 -16 c 0,10,11
 636 60 636 60 553 104 c 1,12,13
 512 124 512 124 462 135 c 1,14,-1
 366 159 l 2,15,16
 278 180 278 180 226 215 c 1,17,18
 100 293 100 293 100 427 c 0,19,20
 100 541 100 541 204.5 623.5 c 128,-1,21
 309 706 309 706 456 706 c 0,22,23
 565 706 565 706 655 658 c 1,24,25
 775 596 775 596 796 480 c 1,26,-1
 630 481 l 1,27,28
 595 587 595 587 456 587 c 0,29,30
 382 587 382 587 328.5 545 c 128,-1,31
 275 503 275 503 275 445 c 0,32,33
 275 394 275 394 321 355 c 0,34,35
 355 325 355 325 401 312 c 1,36,-1
 491 291 l 1,37,38
 539 281 539 281 589.5 265 c 128,-1,39
 640 249 640 249 686 215 c 0,40,41
 811 122 811 122 811 3 c 0,42,43
 811 -123 811 -123 688 -207 c 0,44,45
 587 -275 587 -275 456 -275 c 0,0,1
EndSplineSet
Validated: 1
EndChar

StartChar: ampersand
Encoding: 38 38 17
Width: 1200
Flags: W
LayerCount: 2
Fore
SplineSet
100 691 m 1,0,-1
 812 691 l 1,1,-1
 812 574 l 1,2,-1
 543 574 l 1,3,-1
 543 -275 l 1,4,-1
 369 -275 l 1,5,-1
 369 574 l 1,6,-1
 100 574 l 1,7,-1
 100 691 l 1,0,-1
EndSplineSet
Validated: 1
EndChar

StartChar: quotesingle
Encoding: 39 39 18
Width: 800
Flags: W
LayerCount: 2
Fore
SplineSet
368 1661 m 1,0,-1
 368 1116 l 1,1,-1
 218 1116 l 1,2,-1
 218 1661 l 1,3,-1
 368 1661 l 1,0,-1
EndSplineSet
Validated: 1
EndChar

StartChar: parenleft
Encoding: 40 40 19
Width: 800
Flags: W
LayerCount: 2
Fore
SplineSet
446 -103 m 1,0,1
 333 76 333 76 271 276 c 0,2,3
 197 512 197 512 197 768 c 0,4,5
 197 1013 197 1013 268 1245 c 1,6,7
 334 1471 334 1471 464 1668 c 1,8,-1
 602 1668 l 1,9,10
 471 1470 471 1470 410 1217 c 0,11,12
 358 1000 358 1000 358 768 c 0,13,14
 358 659 358 659 368 556.5 c 128,-1,15
 378 454 378 454 399 358 c 0,16,17
 453 104 453 104 584 -103 c 1,18,-1
 446 -103 l 1,0,1
EndSplineSet
Validated: 1
EndChar

StartChar: parenright
Encoding: 41 41 20
Width: 800
Flags: W
LayerCount: 2
Fore
SplineSet
353 -103 m 1,0,-1
 215 -103 l 1,1,2
 343 102 343 102 400 358 c 1,3,4
 442 553 442 553 442 768 c 0,5,6
 442 1003 442 1003 390 1217 c 1,7,8
 328 1466 328 1466 197 1668 c 1,9,-1
 336 1668 l 1,10,11
 461 1477 461 1477 532 1245 c 1,12,13
 566 1127 566 1127 584 1007 c 128,-1,14
 602 887 602 887 602 768 c 0,15,16
 602 508 602 508 528 276 c 1,17,18
 465 73 465 73 353 -103 c 1,0,-1
EndSplineSet
Validated: 1
EndChar

StartChar: asterisk
Encoding: 42 42 21
Width: 1200
Flags: W
LayerCount: 2
Fore
SplineSet
267 575 m 1,0,-1
 267 -164 l 1,1,-1
 301 -164 l 2,2,3
 444 -164 444 -164 543 -54.5 c 128,-1,4
 642 55 642 55 642 207 c 0,5,6
 642 370 642 370 538 478 c 0,7,8
 443 576 443 576 305 576 c 1,9,-1
 267 575 l 1,0,-1
320 691 m 2,10,11
 564 691 564 691 703 522 c 1,12,13
 755 457 755 457 781 380 c 128,-1,14
 807 303 807 303 807 209 c 0,15,16
 807 0 807 0 682 -131 c 1,17,18
 547 -275 547 -275 320 -275 c 2,19,-1
 100 -275 l 1,20,-1
 100 691 l 1,21,-1
 320 691 l 2,10,11
EndSplineSet
Validated: 1
EndChar

StartChar: plus
Encoding: 43 43 22
Width: 1562
Flags: W
LayerCount: 2
Fore
SplineSet
201 860 m 1,0,-1
 703 860 l 1,1,-1
 703 1362 l 1,2,-1
 860 1362 l 1,3,-1
 860 860 l 1,4,-1
 1361 860 l 1,5,-1
 1361 703 l 1,6,-1
 860 703 l 1,7,-1
 860 202 l 1,8,-1
 703 202 l 1,9,-1
 703 703 l 1,10,-1
 201 703 l 1,11,-1
 201 860 l 1,0,-1
EndSplineSet
Validated: 1
EndChar

StartChar: comma
Encoding: 44 44 23
Width: 524
Flags: W
LayerCount: 2
Fore
SplineSet
198 219 m 1,0,-1
 418 219 l 1,1,-1
 418 0 l 1,2,-1
 236 -361 l 1,3,-1
 100 -361 l 1,4,-1
 281 0 l 1,5,-1
 198 0 l 1,6,-1
 198 219 l 1,0,-1
EndSplineSet
Validated: 1
EndChar

StartChar: hyphen
Encoding: 45 45 24
Width: 1562
Flags: W
LayerCount: 2
Fore
SplineSet
269 861 m 1,0,-1
 1293 861 l 1,1,-1
 1293 704 l 1,2,-1
 269 704 l 1,3,-1
 269 861 l 1,0,-1
EndSplineSet
Validated: 1
EndChar

StartChar: period
Encoding: 46 46 25
Width: 524
Flags: W
LayerCount: 2
Fore
SplineSet
200 219 m 1,0,-1
 420 219 l 1,1,-1
 420 0 l 1,2,-1
 200 0 l 1,3,-1
 200 219 l 1,0,-1
EndSplineSet
Validated: 1
EndChar

StartChar: slash
Encoding: 47 47 26
Width: 800
Flags: W
LayerCount: 2
Fore
SplineSet
107 -103 m 1,0,-1
 528 1668 l 1,1,-1
 692 1668 l 1,2,-1
 277 -103 l 1,3,-1
 107 -103 l 1,0,-1
EndSplineSet
Validated: 1
EndChar

StartChar: zero
Encoding: 48 48 27
Width: 1175
Flags: W
LayerCount: 2
Fore
SplineSet
587 1487 m 0,0,1
 831 1487 831 1487 951 1283 c 1,2,3
 1011 1179 1011 1179 1033 1041 c 0,4,5
 1044 977 1044 977 1050 906.5 c 128,-1,6
 1056 836 1056 836 1056 766 c 0,7,8
 1056 608 1056 608 1037 458.5 c 128,-1,9
 1018 309 1018 309 952.5 198 c 128,-1,10
 887 87 887 87 805 44 c 128,-1,11
 723 1 723 1 585 1 c 256,12,13
 447 1 447 1 341 76.5 c 128,-1,14
 235 152 235 152 187 273 c 0,15,16
 146 375 146 375 132 509 c 128,-1,17
 118 643 118 643 118 759 c 0,18,19
 118 890 118 890 136 1020.5 c 128,-1,20
 154 1151 154 1151 205.5 1253.5 c 128,-1,21
 257 1356 257 1356 357.5 1421.5 c 128,-1,22
 458 1487 458 1487 587 1487 c 0,0,1
586 1333 m 0,23,24
 496 1333 496 1333 442 1282 c 128,-1,25
 388 1231 388 1231 357 1149.5 c 128,-1,26
 326 1068 326 1068 314 964 c 0,27,28
 309 918 309 918 306 864 c 128,-1,29
 303 810 303 810 303 756 c 0,30,31
 303 677 303 677 304.5 645.5 c 128,-1,32
 306 614 306 614 311 555 c 1,33,34
 311 509 311 509 321 459 c 0,35,36
 328 423 328 423 345 371 c 1,37,38
 408 155 408 155 588 155 c 0,39,40
 683 155 683 155 737.5 209.5 c 128,-1,41
 792 264 792 264 823 352 c 0,42,43
 841 406 841 406 851.5 451 c 128,-1,44
 862 496 862 496 862 546 c 0,45,46
 862 591 862 591 864 627 c 0,47,48
 871 753 871 753 871 762 c 0,49,50
 871 866 871 866 861 958.5 c 128,-1,51
 851 1051 851 1051 823 1130 c 1,52,53
 754 1333 754 1333 586 1333 c 0,23,24
EndSplineSet
Validated: 1
EndChar

StartChar: one
Encoding: 49 49 28
Width: 1175
Flags: W
LayerCount: 2
Fore
SplineSet
273 138 m 1,0,-1
 505 138 l 1,1,-1
 505 1247 l 1,2,3
 461 1198 461 1198 402.5 1161.5 c 128,-1,4
 344 1125 344 1125 273 1105 c 1,5,-1
 273 1272 l 1,6,7
 348 1293 348 1293 417 1356 c 1,8,9
 463 1401 463 1401 505 1486 c 1,10,-1
 670 1486 l 1,11,-1
 670 138 l 1,12,-1
 902 138 l 1,13,-1
 902 0 l 1,14,-1
 273 0 l 1,15,-1
 273 138 l 1,0,-1
EndSplineSet
Validated: 1
EndChar

StartChar: two
Encoding: 50 50 29
Width: 1175
Flags: W
LayerCount: 2
Fore
SplineSet
361 166 m 1,0,-1
 1055 165 l 1,1,-1
 1055 0 l 1,2,-1
 119 0 l 1,3,4
 119 72 119 72 153 150 c 0,5,6
 184 222 184 222 240.5 299.5 c 128,-1,7
 297 377 297 377 366.5 443 c 128,-1,8
 436 509 436 509 502 563 c 1,9,-1
 622 657 l 2,10,11
 685 706 685 706 750 771 c 0,12,13
 811 832 811 832 850 893.5 c 128,-1,14
 889 955 889 955 889 1035 c 256,15,16
 889 1115 889 1115 868.5 1170.5 c 128,-1,17
 848 1226 848 1226 804.5 1262 c 128,-1,18
 761 1298 761 1298 712 1315.5 c 128,-1,19
 663 1333 663 1333 605 1333 c 0,20,21
 545 1333 545 1333 483.5 1314 c 128,-1,22
 422 1295 422 1295 380 1252 c 0,23,24
 286 1158 286 1158 286 985 c 1,25,-1
 119 985 l 1,26,27
 119 1243 119 1243 281 1378 c 0,28,29
 346 1431 346 1431 431.5 1455.5 c 128,-1,30
 517 1480 517 1480 604 1480 c 0,31,32
 693 1480 693 1480 767.5 1456 c 128,-1,33
 842 1432 842 1432 903 1385 c 0,34,35
 1053 1267 1053 1267 1053 1050 c 0,36,37
 1053 952 1053 952 1017 863 c 128,-1,38
 981 774 981 774 911 694 c 0,39,40
 861 638 861 638 798 584 c 1,41,-1
 655 469 l 1,42,43
 573 405 573 405 493 336.5 c 128,-1,44
 413 268 413 268 361 166 c 1,0,-1
EndSplineSet
Validated: 1
EndChar

StartChar: three
Encoding: 51 51 30
Width: 1175
Flags: W
LayerCount: 2
Fore
SplineSet
655 864 m 0,0,1
 694 877 694 877 729 893 c 128,-1,2
 764 909 764 909 794 937 c 0,3,4
 858 998 858 998 858 1091 c 0,5,6
 858 1200 858 1200 762 1271 c 1,7,8
 687 1325 687 1325 594 1325 c 0,9,10
 491 1325 491 1325 420 1277 c 1,11,12
 331 1220 331 1220 331 1112 c 1,13,-1
 154 1112 l 1,14,15
 154 1274 154 1274 292 1385 c 0,16,17
 415 1484 415 1484 594 1484 c 0,18,19
 749 1484 749 1484 862 1396 c 0,20,21
 1016 1275 1016 1275 1016 1090 c 0,22,23
 1016 898 1016 898 853 780 c 1,24,25
 942 724 942 724 998.5 630.5 c 128,-1,26
 1055 537 1055 537 1055 428 c 0,27,28
 1055 227 1055 227 884 98 c 0,29,30
 753 0 753 0 587 0 c 0,31,32
 410 0 410 0 278 108 c 0,33,34
 201 170 201 170 160.5 246 c 128,-1,35
 120 322 120 322 120 415 c 1,36,-1
 307 415 l 1,37,38
 307 362 307 362 326.5 317.5 c 128,-1,39
 346 273 346 273 383 238 c 1,40,41
 464 157 464 157 587 157 c 0,42,43
 716 157 716 157 807.5 236 c 128,-1,44
 899 315 899 315 899 427 c 0,45,46
 899 534 899 534 813 613 c 0,47,48
 763 658 763 658 691 681 c 0,49,50
 644 695 644 695 597 695 c 0,51,52
 544 695 544 695 493 680 c 1,53,-1
 446 866 l 1,54,55
 484 851 484 851 561 851 c 0,56,57
 617 851 617 851 655 864 c 0,0,1
EndSplineSet
Validated: 1
EndChar

StartChar: four
Encoding: 52 52 31
Width: 1175
Flags: W
LayerCount: 2
Fore
SplineSet
915 518 m 1,0,-1
 1054 518 l 1,1,-1
 1054 358 l 1,2,-1
 915 358 l 1,3,-1
 915 0 l 1,4,-1
 758 0 l 1,5,-1
 758 358 l 1,6,-1
 120 358 l 1,7,-1
 120 518 l 1,8,-1
 758 1486 l 1,9,-1
 914 1486 l 1,10,-1
 915 518 l 1,0,-1
758 518 m 1,11,-1
 758 1214 l 1,12,-1
 300 518 l 1,13,-1
 758 518 l 1,11,-1
EndSplineSet
Validated: 1
EndChar

StartChar: five
Encoding: 53 53 32
Width: 1175
Flags: W
LayerCount: 2
Fore
SplineSet
989 1482 m 1,0,-1
 989 1316 l 1,1,-1
 374 1316 l 1,2,-1
 374 930 l 1,3,4
 426 958 426 958 500 980 c 0,5,6
 530 989 530 989 563.5 992.5 c 128,-1,7
 597 996 597 996 637 996 c 1,8,9
 706 990 706 990 770.5 958.5 c 128,-1,10
 835 927 835 927 886 888 c 1,11,12
 956 832 956 832 1005 721.5 c 128,-1,13
 1054 611 1054 611 1054 492 c 0,14,15
 1054 297 1054 297 932 157 c 1,16,17
 790 0 790 0 583 0 c 0,18,19
 470 0 470 0 373 59 c 0,20,21
 299 105 299 105 239 183 c 0,22,23
 195 239 195 239 160 325 c 0,24,25
 141 374 141 374 131 411.5 c 128,-1,26
 121 449 121 449 121 484 c 1,27,-1
 284 484 l 1,28,29
 292 431 292 431 313 385.5 c 128,-1,30
 334 340 334 340 359 300 c 0,31,32
 379 267 379 267 401.5 241.5 c 128,-1,33
 424 216 424 216 449 199 c 0,34,35
 509 158 509 158 587 158 c 0,36,37
 714 158 714 158 801 255 c 0,38,39
 843 303 843 303 865.5 364.5 c 128,-1,40
 888 426 888 426 888 499 c 0,41,42
 888 610 888 610 839 695 c 0,43,44
 807 749 807 749 753 785 c 0,45,46
 716 809 716 809 676.5 822.5 c 128,-1,47
 637 836 637 836 596 836 c 0,48,49
 529 836 529 836 468 810.5 c 128,-1,50
 407 785 407 785 374 733 c 1,51,-1
 209 733 l 1,52,-1
 209 1482 l 1,53,-1
 989 1482 l 1,0,-1
EndSplineSet
Validated: 1
EndChar

StartChar: six
Encoding: 54 54 33
Width: 1175
Flags: W
LayerCount: 2
Fore
SplineSet
605 792 m 0,0,1
 480 792 480 792 394 694 c 0,2,3
 313 601 313 601 313 475 c 0,4,5
 313 357 313 357 385 267 c 0,6,7
 472 157 472 157 605 157 c 0,8,9
 732 157 732 157 821 262 c 0,10,11
 897 353 897 353 897 475 c 0,12,13
 897 610 897 610 806 705 c 0,14,15
 722 792 722 792 605 792 c 0,0,1
618 1485 m 0,16,17
 760 1485 760 1485 863.5 1400.5 c 128,-1,18
 967 1316 967 1316 1032 1149 c 1,19,-1
 848 1149 l 1,20,21
 806 1239 806 1239 754 1282.5 c 128,-1,22
 702 1326 702 1326 609 1326 c 0,23,24
 454 1326 454 1326 344 1137 c 1,25,26
 295 1049 295 1049 273.5 939.5 c 128,-1,27
 252 830 252 830 252 692 c 1,28,29
 303 808 303 808 405.5 882.5 c 128,-1,30
 508 957 508 957 631 957 c 0,31,32
 794 957 794 957 916 832 c 0,33,34
 1055 689 1055 689 1055 473 c 0,35,36
 1055 370 1055 370 1024 286 c 128,-1,37
 993 202 993 202 932 135 c 1,38,39
 806 0 806 0 603 0 c 0,40,41
 465 0 465 0 367.5 74.5 c 128,-1,42
 270 149 270 149 208 263 c 0,43,44
 152 367 152 367 136 491 c 128,-1,45
 120 615 120 615 120 748 c 0,46,47
 120 815 120 815 126 878.5 c 128,-1,48
 132 942 132 942 146 1010 c 0,49,50
 173 1142 173 1142 239 1242 c 128,-1,51
 305 1342 305 1342 403 1413.5 c 128,-1,52
 501 1485 501 1485 618 1485 c 0,16,17
EndSplineSet
Validated: 1
EndChar

StartChar: seven
Encoding: 55 55 34
Width: 1175
Flags: W
LayerCount: 2
Fore
SplineSet
120 1482 m 1,0,-1
 1054 1482 l 1,1,-1
 1055 1319 l 1,2,3
 990 1263 990 1263 936.5 1184 c 128,-1,4
 883 1105 883 1105 835 1007 c 0,5,6
 803 941 803 941 772 860.5 c 128,-1,7
 741 780 741 780 710 683 c 0,8,9
 683 598 683 598 661.5 515.5 c 128,-1,10
 640 433 640 433 618 330 c 0,11,12
 582 167 582 167 555 0 c 1,13,-1
 393 0 l 1,14,15
 412 131 412 131 445 291 c 1,16,17
 485 494 485 494 541 679.5 c 128,-1,18
 597 865 597 865 668 1020 c 1,19,20
 743 1187 743 1187 837 1316 c 1,21,-1
 120 1316 l 1,22,-1
 120 1482 l 1,0,-1
EndSplineSet
Validated: 1
EndChar

StartChar: eight
Encoding: 56 56 35
Width: 1175
Flags: W
LayerCount: 2
Fore
SplineSet
588 852 m 0,0,1
 695 852 695 852 780.5 918.5 c 128,-1,2
 866 985 866 985 866 1092 c 0,3,4
 866 1200 866 1200 774 1277 c 1,5,6
 695 1341 695 1341 588 1341 c 0,7,8
 477 1341 477 1341 396 1272 c 0,9,10
 310 1198 310 1198 310 1092 c 0,11,12
 310 989 310 989 392 920.5 c 128,-1,13
 474 852 474 852 588 852 c 0,0,1
854 777 m 1,14,15
 944 720 944 720 999.5 627 c 128,-1,16
 1055 534 1055 534 1055 426 c 0,17,18
 1055 249 1055 249 918 124.5 c 128,-1,19
 781 0 781 0 588 0 c 0,20,21
 381 0 381 0 242 140 c 0,22,23
 120 262 120 262 120 426 c 0,24,25
 120 534 120 534 174.5 626 c 128,-1,26
 229 718 229 718 322 777 c 1,27,28
 144 895 144 895 144 1092 c 0,29,30
 144 1277 144 1277 306 1396 c 0,31,32
 429 1486 429 1486 588 1486 c 0,33,34
 771 1486 771 1486 901 1370.5 c 128,-1,35
 1031 1255 1031 1255 1031 1092 c 0,36,37
 1031 896 1031 896 854 777 c 1,14,15
588 696 m 0,38,39
 466 696 466 696 380.5 616.5 c 128,-1,40
 295 537 295 537 295 426 c 256,41,42
 295 315 295 315 380.5 236 c 128,-1,43
 466 157 466 157 588 157 c 0,44,45
 709 157 709 157 795 235.5 c 128,-1,46
 881 314 881 314 881 426 c 0,47,48
 881 542 881 542 784 626 c 1,49,50
 699 696 699 696 588 696 c 0,38,39
EndSplineSet
Validated: 1
EndChar

StartChar: nine
Encoding: 57 57 36
Width: 1175
Flags: W
LayerCount: 2
Fore
SplineSet
579 1327 m 0,0,1
 449 1327 449 1327 358 1223 c 1,2,3
 280 1130 280 1130 280 1004 c 0,4,5
 280 882 280 882 358 792 c 0,6,7
 446 692 446 692 573 692 c 0,8,9
 690 692 690 692 778 783 c 0,10,11
 823 829 823 829 845.5 884 c 128,-1,12
 868 939 868 939 868 1007 c 0,13,14
 868 1069 868 1069 850.5 1121 c 128,-1,15
 833 1173 833 1173 794 1222 c 1,16,17
 750 1273 750 1273 696.5 1300 c 128,-1,18
 643 1327 643 1327 579 1327 c 0,0,1
276 94 m 1,19,20
 176 181 176 181 119 344 c 1,21,-1
 302 344 l 1,22,23
 319 304 319 304 337.5 273 c 128,-1,24
 356 242 356 242 379 219 c 0,25,26
 409 189 409 189 449.5 174 c 128,-1,27
 490 159 490 159 546 159 c 0,28,29
 699 159 699 159 810 338.5 c 128,-1,30
 921 518 921 518 921 778 c 1,31,32
 866 667 866 667 765.5 597.5 c 128,-1,33
 665 528 665 528 544 528 c 0,34,35
 370 528 370 528 246 664 c 0,36,37
 119 803 119 803 119 1007 c 0,38,39
 119 1224 119 1224 257 1362 c 1,40,41
 382 1484 382 1484 573 1484 c 0,42,43
 749 1484 749 1484 870 1365 c 0,44,45
 935 1301 935 1301 983 1206 c 1,46,47
 1026 1117 1026 1117 1040.5 1014 c 128,-1,48
 1055 911 1055 911 1055 812 c 0,49,50
 1055 659 1055 659 1027.5 505 c 128,-1,51
 1000 351 1000 351 913 229 c 0,52,53
 832 116 832 116 738.5 58 c 128,-1,54
 645 0 645 0 539 0 c 0,55,56
 386 0 386 0 276 94 c 1,19,20
EndSplineSet
Validated: 1
EndChar

StartChar: colon
Encoding: 58 58 37
Width: 524
Flags: W
LayerCount: 2
Fore
SplineSet
200 1151 m 5,0,-1
 420 1151 l 5,1,-1
 420 932 l 5,2,-1
 200 932 l 5,3,-1
 200 1151 l 5,0,-1
200 424 m 1,4,-1
 420 424 l 1,5,-1
 420 205 l 1,6,-1
 200 205 l 1,7,-1
 200 424 l 1,4,-1
EndSplineSet
Validated: 1
EndChar

StartChar: semicolon
Encoding: 59 59 38
Width: 524
Flags: W
LayerCount: 2
Fore
SplineSet
200 1151 m 5,0,-1
 420 1151 l 5,1,-1
 420 932 l 5,2,-1
 200 932 l 5,3,-1
 200 1151 l 5,0,-1
198 417 m 1,4,-1
 418 417 l 1,5,-1
 418 198 l 1,6,-1
 236 -163 l 1,7,-1
 100 -163 l 1,8,-1
 281 198 l 1,9,-1
 198 198 l 1,10,-1
 198 417 l 1,4,-1
EndSplineSet
Validated: 1
EndChar

StartChar: equal
Encoding: 61 61 39
Width: 1562
Flags: W
LayerCount: 2
Fore
SplineSet
313 605 m 1,0,-1
 1248 605 l 1,1,-1
 1248 440 l 1,2,-1
 313 440 l 1,3,-1
 313 605 l 1,0,-1
313 1095 m 1,4,-1
 1248 1095 l 1,5,-1
 1248 930 l 1,6,-1
 313 930 l 1,7,-1
 313 1095 l 1,4,-1
EndSplineSet
Validated: 1
EndChar

StartChar: greater
Encoding: 62 62 40
Width: 1361
Flags: W
LayerCount: 2
Fore
SplineSet
791 22 m 1,0,-1
 767 78 l 1,1,2
 731 169 731 169 702 271 c 2,3,-1
 590 668 l 1,4,-1
 556 667 l 1,5,6
 517 667 517 667 487.5 672.5 c 128,-1,7
 458 678 458 678 431 688 c 1,8,-1
 431 186 l 2,9,10
 431 141 431 141 464 111 c 0,11,12
 490 87 490 87 549 87 c 2,13,-1
 588 87 l 1,14,-1
 588 0 l 1,15,-1
 130 0 l 1,16,-1
 130 87 l 1,17,18
 178 87 178 87 211 110 c 1,19,20
 257 144 257 144 257 186 c 2,21,-1
 257 1284 l 2,22,23
 257 1332 257 1332 210 1361 c 0,24,25
 177 1382 177 1382 130 1382 c 1,26,-1
 130 1473 l 1,27,-1
 587 1473 l 2,28,29
 673 1473 673 1473 756.5 1427 c 128,-1,30
 840 1381 840 1381 885 1316 c 1,31,32
 956 1210 956 1210 956 1091 c 0,33,34
 956 968 956 968 887 855 c 1,35,36
 823 759 823 759 721 700 c 1,37,-1
 819 339 l 1,38,-1
 844 250 l 1,39,40
 858 206 858 206 875 164 c 1,41,-1
 1035 431 l 1,42,-1
 1202 431 l 1,43,-1
 950 9 l 1,44,45
 1019 -99 1019 -99 1089 -99 c 0,46,47
 1161 -99 1161 -99 1224 -10 c 1,48,-1
 1231 -10 l 1,49,-1
 1231 -220 l 1,50,51
 1165 -246 1165 -246 1107 -246 c 0,52,53
 1097 -246 1097 -246 1089 -245.5 c 128,-1,54
 1081 -245 1081 -245 1056 -241 c 1,55,56
 954 -220 954 -220 875 -117 c 1,57,-1
 696 -416 l 1,58,-1
 529 -416 l 1,59,-1
 791 22 l 1,0,-1
431 1372 m 1,60,-1
 431 804 l 1,61,62
 442 803 442 803 452.5 802.5 c 128,-1,63
 463 802 463 802 474 802 c 0,64,65
 511 802 511 802 539 809 c 1,66,67
 620 824 620 824 688 892 c 0,68,69
 779 983 779 983 779 1109 c 0,70,71
 779 1244 779 1244 660 1317 c 0,72,73
 570 1372 570 1372 431 1372 c 1,60,-1
EndSplineSet
Validated: 1
EndChar

StartChar: question
Encoding: 63 63 41
Width: 1277
Flags: W
LayerCount: 2
Fore
SplineSet
560 0 m 1,0,-1
 560 168 l 1,1,-1
 741 168 l 1,2,-1
 741 0 l 1,3,-1
 560 0 l 1,0,-1
651 1555 m 0,4,5
 841 1555 841 1555 972 1411 c 1,6,7
 1097 1272 1097 1272 1097 1081 c 0,8,9
 1097 995 1097 995 1076 931.5 c 128,-1,10
 1055 868 1055 868 991 799 c 0,11,12
 934 738 934 738 887 706 c 0,13,14
 834 670 834 670 803 645 c 0,15,16
 767 615 767 615 745.5 580 c 128,-1,17
 724 545 724 545 724 484 c 2,18,-1
 724 372 l 1,19,-1
 560 372 l 1,20,-1
 560 483 l 2,21,22
 560 565 560 565 582.5 625 c 128,-1,23
 605 685 605 685 713 768 c 1,24,25
 820 843 820 843 863 897 c 1,26,27
 932 981 932 981 932 1081 c 0,28,29
 932 1206 932 1206 855 1296 c 0,30,31
 774 1392 774 1392 651 1392 c 0,32,33
 543 1392 543 1392 457 1327 c 0,34,35
 344 1241 344 1241 344 1111 c 1,36,-1
 179 1111 l 1,37,38
 179 1201 179 1201 219 1283 c 0,39,40
 256 1359 256 1359 327 1426 c 0,41,42
 464 1555 464 1555 651 1555 c 0,4,5
EndSplineSet
Validated: 1
EndChar

StartChar: at
Encoding: 64 64 42
Width: 1822
Flags: W
LayerCount: 2
Fore
SplineSet
1258 1563 m 0,0,1
 1438 1563 1438 1563 1565 1436 c 128,-1,2
 1692 1309 1692 1309 1692 1132 c 0,3,4
 1692 924 1692 924 1527 793 c 1,5,-1
 1425 936 l 1,6,7
 1516 1013 1516 1013 1516 1132 c 0,8,9
 1516 1249 1516 1249 1422 1330 c 1,10,11
 1348 1389 1348 1389 1258 1389 c 0,12,13
 1155 1389 1155 1389 1080 1318 c 0,14,15
 1042 1283 1042 1283 1021 1233.5 c 128,-1,16
 1000 1184 1000 1184 1000 1134 c 2,17,-1
 1000 0 l 1,18,-1
 824 0 l 1,19,-1
 824 1133 l 2,20,21
 824 1246 824 1246 738 1322 c 0,22,23
 662 1389 662 1389 564 1389 c 0,24,25
 452 1389 452 1389 373 1304 c 1,26,27
 306 1228 306 1228 306 1132 c 0,28,29
 306 1014 306 1014 397 936 c 1,30,-1
 295 793 l 1,31,32
 130 922 130 922 130 1132 c 0,33,34
 130 1297 130 1297 243 1422 c 1,35,36
 372 1563 372 1563 564 1563 c 0,37,38
 674 1563 674 1563 762 1520.5 c 128,-1,39
 850 1478 850 1478 917 1391 c 1,40,41
 982 1478 982 1478 1065.5 1520.5 c 128,-1,42
 1149 1563 1149 1563 1258 1563 c 0,0,1
EndSplineSet
Validated: 1
EndChar

StartChar: A
Encoding: 65 65 43
Width: 1822
Flags: W
LayerCount: 2
Fore
SplineSet
910 1061 m 0,0,1
 694 1061 694 1061 548 900 c 0,2,3
 484 830 484 830 452.5 748.5 c 128,-1,4
 421 667 421 667 421 571 c 0,5,6
 421 382 421 382 548 242 c 0,7,8
 694 81 694 81 910 81 c 0,9,10
 1099 81 1099 81 1239 209 c 1,11,12
 1400 353 1400 353 1400 571 c 0,13,14
 1400 771 1400 771 1256.5 916 c 128,-1,15
 1113 1061 1113 1061 910 1061 c 0,0,1
1258 1148 m 1,16,17
 1417 1052 1417 1052 1505 888 c 0,18,19
 1545 814 1545 814 1565 736 c 128,-1,20
 1585 658 1585 658 1585 571 c 0,21,22
 1585 433 1585 433 1532 309.5 c 128,-1,23
 1479 186 1479 186 1387 94.5 c 128,-1,24
 1295 3 1295 3 1171.5 -50 c 128,-1,25
 1048 -103 1048 -103 910 -103 c 0,26,27
 770 -103 770 -103 648 -50.5 c 128,-1,28
 526 2 526 2 434 94 c 0,29,30
 334 193 334 193 285 312.5 c 128,-1,31
 236 432 236 432 236 571 c 0,32,33
 236 742 236 742 315 888 c 0,34,35
 403 1052 403 1052 562 1148 c 1,36,37
 432 1228 432 1228 349 1352 c 0,38,39
 283 1452 283 1452 255 1564 c 1,40,-1
 459 1564 l 1,41,42
 501 1443 501 1443 604 1358 c 1,43,44
 736 1247 736 1247 910 1247 c 0,45,46
 1063 1247 1063 1247 1188 1336 c 0,47,48
 1308 1421 1308 1421 1361 1564 c 1,49,-1
 1565 1564 l 1,50,51
 1535 1435 1535 1435 1454 1325.5 c 128,-1,52
 1373 1216 1373 1216 1258 1148 c 1,16,17
EndSplineSet
Validated: 1
EndChar

StartChar: B
Encoding: 66 66 44
Width: 1822
Flags: W
LayerCount: 2
Fore
SplineSet
910 1295 m 0,0,1
 775 1295 775 1295 652 1320 c 1,2,-1
 652 244 l 1,3,4
 781 269 781 269 910 269 c 0,5,6
 1045 269 1045 269 1168 244 c 1,7,-1
 1168 1320 l 1,8,9
 1039 1295 1039 1295 910 1295 c 0,0,1
483 197 m 1,10,-1
 483 1367 l 1,11,12
 284 1435 284 1435 134 1564 c 1,13,-1
 443 1564 l 1,14,15
 664 1453 664 1453 910 1453 c 0,16,17
 1154 1453 1154 1453 1377 1564 c 1,18,-1
 1687 1564 l 1,19,20
 1535 1435 1535 1435 1337 1366 c 1,21,-1
 1337 197 l 1,22,23
 1534 129 1534 129 1687 0 c 1,24,-1
 1377 0 l 1,25,26
 1156 111 1156 111 910 111 c 0,27,28
 666 111 666 111 443 0 c 1,29,-1
 134 0 l 1,30,31
 282 126 282 126 483 197 c 1,10,-1
EndSplineSet
Validated: 1
EndChar

StartChar: C
Encoding: 67 67 45
Width: 1822
Flags: W
LayerCount: 2
Fore
SplineSet
510 905 m 0,0,1
 666 905 666 905 777.5 793.5 c 128,-1,2
 889 682 889 682 889 524 c 0,3,4
 889 420 889 420 838 332.5 c 128,-1,5
 787 245 787 245 698 194 c 1,6,7
 745 182 745 182 795 173.5 c 128,-1,8
 845 165 845 165 889 165 c 0,9,10
 1009 165 1009 165 1103 184 c 0,11,12
 1210 206 1210 206 1306 254 c 0,13,14
 1555 377 1555 377 1691 619 c 1,15,-1
 1691 334 l 1,16,17
 1618 258 1618 258 1534.5 198.5 c 128,-1,18
 1451 139 1451 139 1353 94 c 0,19,20
 1243 44 1243 44 1125 21 c 128,-1,21
 1007 -2 1007 -2 882 -2 c 0,22,23
 819 -2 819 -2 755 8.5 c 128,-1,24
 691 19 691 19 610 42 c 1,25,26
 462 82 462 82 342 165 c 0,27,28
 248 229 248 229 189 318.5 c 128,-1,29
 130 408 130 408 130 524 c 0,30,31
 130 680 130 680 241.5 792.5 c 128,-1,32
 353 905 353 905 510 905 c 0,0,1
510 736 m 0,33,34
 420 736 420 736 359 671.5 c 128,-1,35
 298 607 298 607 298 524 c 0,36,37
 298 437 298 437 359 374.5 c 128,-1,38
 420 312 420 312 510 312 c 0,39,40
 602 312 602 312 666 382 c 0,41,42
 721 443 721 443 721 524 c 0,43,44
 721 615 721 615 652 681 c 1,45,46
 621 708 621 708 586 722 c 128,-1,47
 551 736 551 736 510 736 c 0,33,34
1311 659 m 0,48,49
 1133 659 1133 659 1018 798 c 0,50,51
 931 903 931 903 931 1040 c 0,52,53
 931 1092 931 1092 944 1140 c 128,-1,54
 957 1188 957 1188 984 1233 c 1,55,56
 1031 1315 1031 1315 1122 1370 c 1,57,58
 1065 1384 1065 1384 1020.5 1391.5 c 128,-1,59
 976 1399 976 1399 932 1399 c 0,60,61
 808 1399 808 1399 699 1375 c 128,-1,62
 590 1351 590 1351 488 1297 c 1,63,64
 256 1171 256 1171 130 945 c 1,65,-1
 130 1230 l 1,66,67
 265 1371 265 1371 442 1458 c 0,68,69
 559 1516 559 1516 681.5 1542 c 128,-1,70
 804 1568 804 1568 938 1568 c 0,71,72
 991 1568 991 1568 1047.5 1558.5 c 128,-1,73
 1104 1549 1104 1549 1177 1530 c 0,74,75
 1309 1497 1309 1497 1422.5 1433.5 c 128,-1,76
 1536 1370 1536 1370 1613.5 1272 c 128,-1,77
 1691 1174 1691 1174 1691 1040 c 0,78,79
 1691 884 1691 884 1579 771.5 c 128,-1,80
 1467 659 1467 659 1311 659 c 0,48,49
1311 828 m 0,81,82
 1398 828 1398 828 1460 890 c 128,-1,83
 1522 952 1522 952 1522 1040 c 0,84,85
 1522 1132 1522 1132 1453 1197 c 1,86,87
 1422 1224 1422 1224 1387 1238 c 128,-1,88
 1352 1252 1352 1252 1311 1252 c 0,89,90
 1228 1252 1228 1252 1169 1197 c 0,91,92
 1099 1133 1099 1133 1099 1040 c 0,93,94
 1099 952 1099 952 1161 890 c 128,-1,95
 1223 828 1223 828 1311 828 c 0,81,82
EndSplineSet
Validated: 1
EndChar

StartChar: D
Encoding: 68 68 46
Width: 1822
Flags: W
LayerCount: 2
Fore
SplineSet
433 616 m 0,0,1
 374 616 374 616 331 574 c 128,-1,2
 288 532 288 532 288 473 c 0,3,4
 288 417 288 417 326 378 c 1,5,6
 368 331 368 331 433 331 c 0,7,8
 489 331 489 331 534 371 c 128,-1,9
 579 411 579 411 579 473 c 0,10,11
 579 534 579 534 531 579 c 1,12,13
 488 616 488 616 433 616 c 0,0,1
1691 -253 m 1,14,15
 1562 -416 1562 -416 1382 -416 c 0,16,17
 1295 -416 1295 -416 1224.5 -373.5 c 128,-1,18
 1154 -331 1154 -331 1103 -264 c 1,19,20
 1024 -155 1024 -155 1024 -39 c 0,21,22
 1024 -15 1024 -15 1027 9 c 0,23,24
 1048 149 1048 149 1120 292 c 1,25,-1
 1247 502 l 1,26,-1
 1366 708 l 1,27,28
 1433 826 1433 826 1465 910 c 0,29,30
 1501 1004 1501 1004 1501 1075 c 0,31,32
 1501 1176 1501 1176 1453 1256 c 0,33,34
 1402 1342 1402 1342 1294 1411 c 1,35,36
 1167 1494 1167 1494 1008 1494 c 0,37,38
 897 1494 897 1494 797.5 1452.5 c 128,-1,39
 698 1411 698 1411 630 1329 c 1,40,41
 534 1203 534 1203 534 1056 c 0,42,43
 534 1017 534 1017 542 971 c 0,44,45
 566 832 566 832 678 648 c 1,46,47
 736 570 736 570 736 473 c 0,48,49
 736 351 736 351 647.5 264 c 128,-1,50
 559 177 559 177 433 177 c 0,51,52
 300 177 300 177 209 274 c 0,53,54
 130 359 130 359 130 473 c 0,55,56
 130 591 130 591 213 677 c 0,57,58
 255 721 255 721 303 744 c 0,59,60
 356 770 356 770 415 770 c 1,61,62
 372 866 372 866 350.5 952 c 128,-1,63
 329 1038 329 1038 329 1106 c 0,64,65
 329 1176 329 1176 357.5 1250 c 128,-1,66
 386 1324 386 1324 442 1405 c 0,67,68
 536 1543 536 1543 700 1611 c 0,69,70
 837 1667 837 1667 1008 1667 c 0,71,72
 1096 1667 1096 1667 1176 1652.5 c 128,-1,73
 1256 1638 1256 1638 1319 1611 c 0,74,75
 1488 1539 1488 1539 1583 1421 c 0,76,77
 1691 1286 1691 1286 1691 1098 c 0,78,79
 1691 877 1691 877 1528 614 c 1,80,81
 1426 452 1426 452 1337 322 c 1,82,83
 1244 184 1244 184 1215 57 c 0,84,85
 1205 13 1205 13 1205 -31 c 0,86,87
 1205 -101 1205 -101 1236 -158 c 1,88,89
 1280 -233 1280 -233 1376 -238 c 0,90,91
 1384 -239 1384 -239 1391 -239 c 0,92,93
 1399 -238 1399 -238 1406 -237 c 0,94,95
 1478 -228 1478 -228 1557 -156.5 c 128,-1,96
 1636 -85 1636 -85 1691 2 c 1,97,-1
 1691 -253 l 1,14,15
EndSplineSet
Validated: 1
EndChar

StartChar: E
Encoding: 69 69 47
Width: 1822
Flags: W
LayerCount: 2
Fore
SplineSet
1111 1021 m 2,0,1
 1111 1142 1111 1142 1077 1185 c 0,2,3
 1057 1210 1057 1210 1033.5 1223.5 c 128,-1,4
 1010 1237 1010 1237 982 1237 c 0,5,6
 952 1237 952 1237 928 1232.5 c 128,-1,7
 904 1228 904 1228 879 1216 c 1,8,9
 826 1188 826 1188 793 1140 c 1,10,11
 799 1095 799 1095 799 1023 c 2,12,-1
 799 0 l 1,13,-1
 626 0 l 1,14,-1
 626 1064 l 1,15,16
 625 1087 625 1087 623 1109 c 0,17,18
 620 1131 620 1131 613 1148.5 c 128,-1,19
 606 1166 606 1166 591 1185 c 0,20,21
 552 1238 552 1238 482 1238 c 0,22,23
 401 1238 401 1238 350 1181 c 1,24,-1
 318 1142 l 1,25,-1
 318 0 l 1,26,-1
 145 0 l 1,27,-1
 145 1471 l 1,28,-1
 230 1564 l 1,29,-1
 318 1564 l 1,30,-1
 318 1262 l 1,31,-1
 342 1300 l 1,32,33
 381 1351 381 1351 432 1377 c 128,-1,34
 483 1403 483 1403 538 1403 c 0,35,36
 627 1403 627 1403 702 1337 c 1,37,38
 741 1301 741 1301 763 1254 c 1,39,40
 778 1285 778 1285 807 1312 c 1,41,42
 847 1356 847 1356 891 1376 c 0,43,44
 951 1403 951 1403 1026 1403 c 0,45,46
 1112 1403 1112 1403 1187 1337 c 1,47,48
 1242 1285 1242 1285 1266 1205 c 0,49,50
 1284 1142 1284 1142 1284 1032 c 1,51,52
 1489 1004 1489 1004 1606 842 c 0,53,54
 1707 702 1707 702 1707 505 c 0,55,56
 1707 352 1707 352 1634 188 c 1,57,58
 1568 45 1568 45 1465 -75 c 1,59,-1
 1368 -181 l 1,60,61
 1447 -258 1447 -258 1545 -258 c 0,62,63
 1591 -258 1591 -258 1631 -238 c 1,64,65
 1676 -219 1676 -219 1706 -197 c 1,66,-1
 1706 -377 l 1,67,68
 1644 -416 1644 -416 1545 -416 c 0,69,70
 1455 -416 1455 -416 1376.5 -381.5 c 128,-1,71
 1298 -347 1298 -347 1238 -288 c 1,72,73
 1178 -329 1178 -329 1088 -364 c 0,74,75
 1034 -384 1034 -384 975 -400 c 128,-1,76
 916 -416 916 -416 863 -416 c 0,77,78
 791 -416 791 -416 713 -388 c 1,79,-1
 713 -214 l 1,80,81
 798 -255 798 -255 872 -255 c 0,82,83
 944 -255 944 -255 1014.5 -225.5 c 128,-1,84
 1085 -196 1085 -196 1146 -157 c 1,85,86
 1111 -76 1111 -76 1111 0 c 2,87,-1
 1111 1021 l 2,0,1
1284 857 m 1,88,-1
 1285 0 l 1,89,90
 1283 -18 1283 -18 1289 -43 c 1,91,92
 1350 15 1350 15 1406.5 95.5 c 128,-1,93
 1463 176 1463 176 1503 280 c 0,94,95
 1523 333 1523 333 1532.5 383.5 c 128,-1,96
 1542 434 1542 434 1542 488 c 0,97,98
 1542 656 1542 656 1446 761 c 0,99,100
 1380 832 1380 832 1284 857 c 1,88,-1
EndSplineSet
Validated: 1
EndChar

StartChar: F
Encoding: 70 70 48
Width: 1822
Flags: W
LayerCount: 2
Fore
SplineSet
1372 818 m 1,0,-1
 1691 818 l 1,1,-1
 1691 654 l 1,2,-1
 1206 654 l 1,3,-1
 1206 810 l 2,4,5
 1206 876 1206 876 1184.5 929.5 c 128,-1,6
 1163 983 1163 983 1123 1027 c 0,7,8
 1043 1118 1043 1118 911 1118 c 0,9,10
 783 1118 783 1118 699 1027 c 0,11,12
 659 983 659 983 637.5 928.5 c 128,-1,13
 616 874 616 874 616 810 c 2,14,-1
 616 654 l 1,15,-1
 130 654 l 1,16,-1
 130 818 l 1,17,-1
 450 818 l 1,18,19
 450 916 450 916 482.5 997 c 128,-1,20
 515 1078 515 1078 583 1147 c 0,21,22
 718 1285 718 1285 911 1285 c 0,23,24
 1088 1285 1088 1285 1222 1163 c 0,25,26
 1297 1094 1297 1094 1334.5 1007.5 c 128,-1,27
 1372 921 1372 921 1372 818 c 1,0,-1
130 442 m 1,28,-1
 1691 442 l 1,29,-1
 1691 278 l 1,30,-1
 130 278 l 1,31,-1
 130 442 l 1,28,-1
EndSplineSet
Validated: 1
EndChar

StartChar: G
Encoding: 71 71 49
Width: 1822
Flags: W
LayerCount: 2
Fore
SplineSet
1578 -123 m 1,0,1
 1542 -217 1542 -217 1456 -301 c 1,2,3
 1398 -356 1398 -356 1337.5 -385 c 128,-1,4
 1277 -414 1277 -414 1209 -414 c 0,5,6
 1139 -414 1139 -414 1083.5 -390 c 128,-1,7
 1028 -366 1028 -366 985 -315 c 0,8,9
 949 -272 949 -272 932 -221 c 128,-1,10
 915 -170 915 -170 915 -109 c 0,11,12
 915 -42 915 -42 937 21 c 0,13,14
 947 51 947 51 962 86 c 128,-1,15
 977 121 977 121 993 151 c 0,16,17
 1026 216 1026 216 1059 273 c 128,-1,18
 1092 330 1092 330 1125 394 c 1,19,20
 1210 567 1210 567 1231 757 c 0,21,22
 1234 792 1234 792 1234 825 c 0,23,24
 1234 928 1234 928 1201 1015 c 0,25,26
 1184 1059 1184 1059 1167 1091 c 0,27,28
 1147 1128 1147 1128 1118 1162 c 128,-1,29
 1089 1196 1089 1196 1059 1215 c 0,30,31
 1023 1238 1023 1238 986 1238 c 0,32,33
 952 1238 952 1238 929 1233.5 c 128,-1,34
 906 1229 906 1229 880 1216 c 0,35,36
 831 1191 831 1191 794 1141 c 1,37,38
 800 1096 800 1096 800 1024 c 2,39,-1
 800 0 l 1,40,-1
 626 0 l 1,41,-1
 626 1021 l 2,42,43
 626 1139 626 1139 592 1186 c 0,44,45
 555 1239 555 1239 482 1239 c 0,46,47
 432 1239 432 1239 391 1212 c 0,48,49
 359 1191 359 1191 332 1160 c 1,50,-1
 318 1143 l 1,51,-1
 318 0 l 1,52,-1
 145 0 l 1,53,-1
 145 1472 l 1,54,-1
 230 1564 l 1,55,-1
 318 1564 l 1,56,-1
 318 1262 l 1,57,-1
 342 1301 l 1,58,59
 381 1352 381 1352 431 1377.5 c 128,-1,60
 481 1403 481 1403 539 1403 c 0,61,62
 628 1403 628 1403 703 1337 c 1,63,64
 742 1300 742 1300 764 1254 c 1,65,66
 776 1280 776 1280 808 1313 c 0,67,68
 851 1358 851 1358 893 1377 c 0,69,70
 951 1403 951 1403 1025 1403 c 0,71,72
 1112 1403 1112 1403 1188.5 1335 c 128,-1,73
 1265 1267 1265 1267 1316 1170 c 128,-1,74
 1367 1073 1367 1073 1386 953 c 0,75,76
 1391 918 1391 918 1392.5 884.5 c 128,-1,77
 1394 851 1394 851 1394 800 c 2,78,-1
 1394 750 l 2,79,80
 1394 703 1394 703 1384 657 c 128,-1,81
 1374 611 1374 611 1356 560 c 1,82,83
 1326 468 1326 468 1286 391 c 128,-1,84
 1246 314 1246 314 1198 239 c 1,85,-1
 1107 85 l 2,86,87
 1051 -11 1051 -11 1051 -100 c 0,88,89
 1051 -119 1051 -119 1052 -128 c 0,90,91
 1065 -265 1065 -265 1187 -282 c 0,92,93
 1194 -283 1194 -283 1207 -283 c 0,94,95
 1295 -283 1295 -283 1379 -196 c 1,96,97
 1428 -142 1428 -142 1468 -61 c 1,98,-1
 1417 -47 l 1,99,100
 1396 -43 1396 -43 1379 -41 c 128,-1,101
 1362 -39 1362 -39 1340 -39 c 0,102,103
 1330 -39 1330 -39 1320.5 -39.5 c 128,-1,104
 1311 -40 1311 -40 1303 -41 c 0,105,106
 1250 -46 1250 -46 1196 -69 c 1,107,-1
 1707 278 l 1,108,-1
 1706 -343 l 1,109,110
 1694 -278 1694 -278 1678 -246 c 0,111,112
 1648 -188 1648 -188 1607 -149 c 1,113,-1
 1578 -123 l 1,0,1
EndSplineSet
Validated: 1
EndChar

StartChar: H
Encoding: 72 72 50
Width: 1822
Flags: W
LayerCount: 2
Fore
SplineSet
1369 1118 m 1,0,-1
 846 596 l 1,1,-1
 1071 495 l 1,2,-1
 1000 336 l 1,3,-1
 715 464 l 1,4,-1
 253 3 l 1,5,-1
 130 126 l 1,6,-1
 545 541 l 1,7,-1
 324 640 l 1,8,-1
 395 799 l 1,9,-1
 677 672 l 1,10,-1
 1246 1241 l 1,11,12
 1190 1281 1190 1281 1126 1308.5 c 128,-1,13
 1062 1336 1062 1336 986 1345 c 1,14,-1
 1692 1565 l 1,15,-1
 1473 859 l 1,16,17
 1464 937 1464 937 1432 1009 c 1,18,19
 1410 1062 1410 1062 1369 1118 c 1,0,-1
EndSplineSet
Validated: 1
EndChar

StartChar: I
Encoding: 73 73 51
Width: 1822
Flags: W
LayerCount: 2
Fore
SplineSet
960 903 m 1,0,-1
 1339 1392 l 1,1,-1
 458 1392 l 1,2,-1
 458 1564 l 1,3,-1
 1692 1564 l 1,4,-1
 1208 939 l 1,5,-1
 1221 939 l 2,6,7
 1413 939 1413 939 1552 801.5 c 128,-1,8
 1691 664 1691 664 1691 469 c 0,9,10
 1691 275 1691 275 1553 137.5 c 128,-1,11
 1415 0 1415 0 1221 0 c 0,12,13
 1028 0 1028 0 889 138 c 128,-1,14
 750 276 750 276 750 469 c 0,15,16
 750 561 750 561 786 650 c 1,17,18
 598 549 598 549 461.5 337 c 128,-1,19
 325 125 325 125 292 -103 c 1,20,-1
 130 -103 l 1,21,22
 142 -5 142 -5 168 86.5 c 128,-1,23
 194 178 194 178 240 274 c 0,24,25
 321 444 321 444 448 585 c 1,26,27
 569 717 569 717 716 802 c 0,28,29
 827 866 827 866 960 903 c 1,0,-1
976 639 m 1,30,31
 920 562 920 562 920 469 c 0,32,33
 920 349 920 349 1008.5 262.5 c 128,-1,34
 1097 176 1097 176 1221 176 c 0,35,36
 1343 176 1343 176 1432 262 c 128,-1,37
 1521 348 1521 348 1521 469 c 0,38,39
 1521 589 1521 589 1431.5 676 c 128,-1,40
 1342 763 1342 763 1221 763 c 0,41,42
 1072 763 1072 763 976 639 c 1,30,31
EndSplineSet
Validated: 1
EndChar

StartChar: J
Encoding: 74 74 52
Width: 1822
Flags: W
LayerCount: 2
Fore
SplineSet
130 722 m 1,0,1
 190 722 190 722 235 676.5 c 128,-1,2
 280 631 280 631 316 568 c 1,3,4
 359 486 359 486 392 400 c 1,5,6
 422 318 422 318 447 318 c 0,7,8
 468 318 468 318 495 384 c 0,9,10
 514 431 514 431 525 455.5 c 128,-1,11
 536 480 536 480 560 528 c 0,12,13
 598 603 598 603 643 660 c 0,14,15
 693 722 693 722 756 722 c 0,16,17
 815 722 815 722 857.5 674.5 c 128,-1,18
 900 627 900 627 935 558 c 0,19,20
 977 474 977 474 1007 396 c 128,-1,21
 1037 318 1037 318 1065 318 c 0,22,23
 1092 318 1092 318 1120 392 c 0,24,25
 1132 426 1132 426 1149.5 466.5 c 128,-1,26
 1167 507 1167 507 1187 548 c 0,27,28
 1221 618 1221 618 1264.5 669.5 c 128,-1,29
 1308 721 1308 721 1371 721 c 0,30,31
 1435 721 1435 721 1480 666 c 0,32,33
 1522 614 1522 614 1557 542 c 1,34,-1
 1623 393 l 2,35,36
 1654 321 1654 321 1691 321 c 1,37,-1
 1691 144 l 1,38,39
 1628 144 1628 144 1583.5 195.5 c 128,-1,40
 1539 247 1539 247 1502 318 c 0,41,42
 1480 361 1480 361 1462 399 c 128,-1,43
 1444 437 1444 437 1430 473 c 0,44,45
 1399 548 1399 548 1375 548 c 0,46,47
 1352 548 1352 548 1322 481 c 2,48,-1
 1256 338 l 1,49,50
 1220 265 1220 265 1174.5 205 c 128,-1,51
 1129 145 1129 145 1069 145 c 0,52,53
 1012 145 1012 145 965.5 199 c 128,-1,54
 919 253 919 253 881 327 c 0,55,56
 862 364 862 364 843.5 401.5 c 128,-1,57
 825 439 825 439 808 477 c 0,58,59
 778 548 778 548 756 548 c 0,60,61
 736 548 736 548 704.5 474 c 128,-1,62
 673 400 673 400 630 318 c 0,63,64
 594 249 594 249 548 197 c 128,-1,65
 502 145 502 145 444 145 c 0,66,67
 382 145 382 145 339 200.5 c 128,-1,68
 296 256 296 256 264 327 c 2,69,-1
 195 476 l 1,70,71
 165 547 165 547 130 547 c 1,72,-1
 130 722 l 1,0,1
130 1418 m 1,73,74
 190 1418 190 1418 235 1372.5 c 128,-1,75
 280 1327 280 1327 316 1264 c 1,76,77
 361 1181 361 1181 391.5 1098 c 128,-1,78
 422 1015 422 1015 447 1015 c 0,79,80
 468 1015 468 1015 495 1081 c 0,81,82
 514 1128 514 1128 525 1152.5 c 128,-1,83
 536 1177 536 1177 560 1225 c 0,84,85
 598 1300 598 1300 643 1357 c 0,86,87
 692 1418 692 1418 756 1418 c 0,88,89
 815 1418 815 1418 857 1371 c 128,-1,90
 899 1324 899 1324 935 1255 c 1,91,92
 977 1171 977 1171 1007 1093.5 c 128,-1,93
 1037 1016 1037 1016 1065 1016 c 0,94,95
 1092 1016 1092 1016 1120 1091.5 c 128,-1,96
 1148 1167 1148 1167 1187 1245 c 0,97,98
 1221 1315 1221 1315 1264.5 1366.5 c 128,-1,99
 1308 1418 1308 1418 1371 1418 c 0,100,101
 1436 1418 1436 1418 1479 1364 c 128,-1,102
 1522 1310 1522 1310 1557 1238 c 1,103,-1
 1623 1089 l 2,104,105
 1654 1018 1654 1018 1691 1018 c 1,106,-1
 1691 841 l 1,107,108
 1628 841 1628 841 1583.5 892.5 c 128,-1,109
 1539 944 1539 944 1502 1015 c 0,110,111
 1480 1058 1480 1058 1462 1096 c 128,-1,112
 1444 1134 1444 1134 1430 1170 c 0,113,114
 1400 1244 1400 1244 1375 1244 c 0,115,116
 1352 1244 1352 1244 1322 1178 c 2,117,-1
 1256 1034 l 1,118,119
 1220 962 1220 962 1174.5 902 c 128,-1,120
 1129 842 1129 842 1069 842 c 0,121,122
 1012 842 1012 842 965.5 896 c 128,-1,123
 919 950 919 950 881 1024 c 0,124,125
 862 1061 862 1061 843.5 1098.5 c 128,-1,126
 825 1136 825 1136 808 1174 c 0,127,128
 778 1244 778 1244 756 1244 c 0,129,130
 736 1244 736 1244 704.5 1170.5 c 128,-1,131
 673 1097 673 1097 630 1015 c 0,132,133
 594 946 594 946 548 894 c 128,-1,134
 502 842 502 842 444 842 c 0,135,136
 382 842 382 842 339 897.5 c 128,-1,137
 296 953 296 953 264 1024 c 2,138,-1
 195 1173 l 1,139,140
 165 1244 165 1244 130 1244 c 1,141,-1
 130 1418 l 1,73,74
EndSplineSet
Validated: 1
EndChar

StartChar: K
Encoding: 75 75 53
Width: 1822
Flags: W
LayerCount: 2
Fore
SplineSet
1692 0 m 1,0,-1
 1431 0 l 1,1,2
 1303 160 1303 160 1233 344 c 0,3,4
 1197 436 1197 436 1178 515 c 0,5,6
 1155 611 1155 611 1155 695 c 1,7,-1
 668 695 l 1,8,9
 668 597 668 597 641 493 c 0,10,11
 620 411 620 411 572 300 c 0,12,13
 502 138 502 138 391 0 c 1,14,-1
 130 0 l 1,15,16
 285 143 285 143 380 333 c 1,17,18
 464 506 464 506 481 695 c 1,19,-1
 229 695 l 1,20,-1
 229 869 l 1,21,-1
 481 869 l 1,22,23
 463 1061 463 1061 380 1232 c 0,24,25
 289 1420 289 1420 130 1564 c 1,26,-1
 387 1564 l 1,27,28
 498 1426 498 1426 570 1264 c 1,29,30
 649 1079 649 1079 667 869 c 1,31,-1
 1155 869 l 1,32,33
 1155 958 1155 958 1180 1057 c 0,34,35
 1200 1138 1200 1138 1243 1243 c 0,36,37
 1315 1420 1315 1420 1436 1564 c 1,38,-1
 1692 1564 l 1,39,40
 1526 1416 1526 1416 1432 1210 c 1,41,42
 1357 1043 1357 1043 1342 869 c 1,43,-1
 1594 869 l 1,44,-1
 1594 695 l 1,45,-1
 1341 695 l 1,46,47
 1341 607 1341 607 1370 511 c 0,48,49
 1394 433 1394 433 1443 333 c 0,50,51
 1533 147 1533 147 1692 0 c 1,0,-1
EndSplineSet
Validated: 1
EndChar

StartChar: L
Encoding: 76 76 54
Width: 1822
Flags: W
LayerCount: 2
Fore
SplineSet
468 1014 m 1,0,-1
 377 576 l 1,1,-1
 552 576 l 1,2,-1
 468 1014 l 1,0,-1
547 1324 m 1,3,-1
 788 0 l 1,4,-1
 589 0 l 1,5,-1
 589 81 l 1,6,7
 612 81 612 81 626 98 c 0,8,9
 636 109 636 109 636 136 c 1,10,-1
 569 482 l 1,11,-1
 358 482 l 1,12,-1
 291 147 l 2,13,14
 289 140 289 140 289 128 c 0,15,16
 289 109 289 109 300 98 c 1,17,18
 315 80 315 80 358 80 c 1,19,-1
 358 0 l 1,20,-1
 130 0 l 1,21,-1
 130 80 l 1,22,23
 162 80 162 80 181 99 c 1,24,25
 195 111 195 111 204 141 c 1,26,-1
 450 1324 l 1,27,-1
 547 1324 l 1,3,-1
1536 937 m 0,28,29
 1629 937 1629 937 1691 848 c 1,30,-1
 1691 648 l 1,31,-1
 1661 639 l 1,32,33
 1652 740 1652 740 1625 793 c 1,34,35
 1591 857 1591 857 1535 857 c 0,36,37
 1464 857 1464 857 1436 709 c 0,38,39
 1427 663 1427 663 1422 606 c 128,-1,40
 1417 549 1417 549 1417 478 c 0,41,42
 1417 345 1417 345 1433 256 c 1,43,44
 1460 85 1460 85 1535 85 c 0,45,46
 1595 85 1595 85 1631 160 c 0,47,48
 1644 189 1644 189 1651 222 c 128,-1,49
 1658 255 1658 255 1658 300 c 1,50,-1
 1691 290 l 1,51,-1
 1691 95 l 1,52,53
 1631 0 1631 0 1536 0 c 0,54,55
 1405 0 1405 0 1328 198 c 1,56,57
 1281 322 1281 322 1281 469 c 0,58,59
 1281 621 1281 621 1332 749 c 0,60,61
 1407 937 1407 937 1536 937 c 0,28,29
1218 706 m 1,62,-1
 1188 695 l 1,63,64
 1173 779 1173 779 1138 826 c 0,65,66
 1118 852 1118 852 1095 865.5 c 128,-1,67
 1072 879 1072 879 1042 879 c 0,68,69
 974 879 974 879 946 805 c 0,70,71
 941 794 941 794 937 778.5 c 128,-1,72
 933 763 933 763 933 743 c 0,73,74
 933 699 933 699 961 659 c 1,75,76
 983 623 983 623 1014 597 c 2,77,-1
 1076 546 l 2,78,79
 1104 524 1104 524 1134 492 c 1,80,81
 1162 465 1162 465 1184 421 c 1,82,83
 1216 351 1216 351 1216 278 c 0,84,85
 1216 227 1216 227 1201 173 c 0,86,87
 1150 0 1150 0 992 0 c 0,88,89
 931 0 931 0 870 26 c 1,90,-1
 820 258 l 1,91,-1
 896 239 l 1,92,93
 889 221 889 221 889 199 c 0,94,95
 889 169 889 169 905 140 c 0,96,97
 941 75 941 75 1006 75 c 0,98,99
 1057 75 1057 75 1091 125 c 0,100,101
 1118 164 1118 164 1118 208 c 0,102,103
 1118 254 1118 254 1087 304 c 0,104,105
 1066 336 1066 336 1033 366 c 2,106,-1
 973 420 l 1,107,108
 939 446 939 446 912.5 472.5 c 128,-1,109
 886 499 886 499 868 535 c 0,110,111
 830 611 830 611 830 683 c 0,112,113
 830 750 830 750 862 819 c 0,114,115
 918 939 918 939 1054 939 c 0,116,117
 1091 939 1091 939 1131 930 c 128,-1,118
 1171 921 1171 921 1217 901 c 1,119,-1
 1218 706 l 1,62,-1
EndSplineSet
Validated: 1
EndChar

StartChar: M
Encoding: 77 77 55
Width: 1822
Flags: W
LayerCount: 2
Fore
SplineSet
337 1207 m 1,0,-1
 337 114 l 2,1,2
 337 106 337 106 343 95 c 1,3,4
 350 86 350 86 360 85 c 1,5,6
 441 85 441 85 492 158 c 128,-1,7
 543 231 543 231 575 333 c 1,8,9
 602 426 602 426 614 522 c 128,-1,10
 626 618 626 618 626 680 c 0,11,12
 626 709 626 709 623 746.5 c 128,-1,13
 620 784 620 784 613 835 c 0,14,15
 601 930 601 930 570.5 1018.5 c 128,-1,16
 540 1107 540 1107 488 1169.5 c 128,-1,17
 436 1232 436 1232 360 1232 c 1,18,19
 350 1231 350 1231 344 1225 c 1,20,21
 335 1219 335 1219 337 1207 c 1,0,-1
444 1324 m 2,22,23
 531 1324 531 1324 600.5 1252 c 128,-1,24
 670 1180 670 1180 717 1058 c 1,25,26
 747 974 747 974 764.5 861 c 128,-1,27
 782 748 782 748 782 662 c 0,28,29
 782 580 782 580 770 499 c 1,30,31
 755 387 755 387 716 274 c 128,-1,32
 677 161 677 161 611 80.5 c 128,-1,33
 545 0 545 0 444 0 c 2,34,-1
 120 0 l 1,35,-1
 120 76 l 1,36,37
 151 76 151 76 172 93 c 128,-1,38
 193 110 193 110 193 140 c 2,39,-1
 193 1187 l 2,40,41
 193 1213 193 1213 173 1230.5 c 128,-1,42
 153 1248 153 1248 120 1248 c 1,43,-1
 120 1324 l 1,44,-1
 444 1324 l 2,22,23
1537 948 m 0,45,46
 1631 948 1631 948 1692 857 c 1,47,-1
 1692 655 l 1,48,-1
 1662 646 l 1,49,50
 1653 748 1653 748 1626 802 c 0,51,52
 1593 867 1593 867 1536 867 c 0,53,54
 1467 867 1467 867 1437 717 c 0,55,56
 1418 619 1418 619 1418 483 c 0,57,58
 1418 351 1418 351 1434 259 c 1,59,60
 1461 85 1461 85 1536 85 c 0,61,62
 1596 85 1596 85 1632 161 c 0,63,64
 1645 190 1645 190 1652 224.5 c 128,-1,65
 1659 259 1659 259 1659 303 c 1,66,-1
 1692 293 l 1,67,-1
 1692 96 l 1,68,69
 1632 0 1632 0 1537 0 c 0,70,71
 1407 0 1407 0 1329 200 c 1,72,73
 1282 324 1282 324 1282 474 c 0,74,75
 1282 629 1282 629 1333 757 c 0,76,77
 1408 948 1408 948 1537 948 c 0,45,46
1233 712 m 1,78,-1
 1204 703 l 1,79,80
 1189 790 1189 790 1154 835 c 0,81,82
 1134 862 1134 862 1111 875.5 c 128,-1,83
 1088 889 1088 889 1058 889 c 0,84,85
 1025 889 1025 889 1001 871 c 128,-1,86
 977 853 977 853 962 814 c 1,87,88
 949 784 949 784 949 751 c 0,89,90
 949 707 949 707 977 666 c 1,91,92
 999 630 999 630 1030 604 c 2,93,-1
 1092 553 l 1,94,-1
 1150 497 l 2,95,96
 1178 470 1178 470 1200 426 c 0,97,98
 1232 359 1232 359 1232 282 c 0,99,100
 1232 231 1232 231 1217 175 c 1,101,102
 1196 104 1196 104 1154 60 c 0,103,104
 1095 0 1095 0 1008 0 c 0,105,106
 963 0 963 0 913 22 c 0,107,108
 878 37 878 37 849 59 c 1,109,-1
 849 258 l 1,110,-1
 888 248 l 1,111,112
 888 173 888 173 916 130 c 1,113,114
 949 76 949 76 1022 76 c 0,115,116
 1097 76 1097 76 1121 177 c 1,117,118
 1126 204 1126 204 1126 222 c 0,119,120
 1126 269 1126 269 1103.5 306 c 128,-1,121
 1081 343 1081 343 1049 370 c 1,122,-1
 989 424 l 1,123,124
 973 436 973 436 958 449 c 0,125,126
 951 456 951 456 929 477 c 0,127,128
 902 504 902 504 884 541 c 0,129,130
 848 616 848 616 848 690 c 0,131,132
 848 760 848 760 879 828 c 0,133,134
 933 950 933 950 1071 950 c 0,135,136
 1103 950 1103 950 1149.5 938 c 128,-1,137
 1196 926 1196 926 1233 911 c 1,138,-1
 1233 712 l 1,78,-1
EndSplineSet
Validated: 1
EndChar

StartChar: N
Encoding: 78 78 56
Width: 1822
Flags: W
LayerCount: 2
Fore
SplineSet
1436 1324 m 0,0,1
 1500 1324 1500 1324 1570.5 1293 c 128,-1,2
 1641 1262 1641 1262 1692 1198 c 1,3,-1
 1692 915 l 1,4,-1
 1640 910 l 1,5,6
 1624 1050 1624 1050 1583 1121 c 1,7,8
 1517 1232 1517 1232 1436 1232 c 0,9,10
 1385 1232 1385 1232 1328 1170 c 128,-1,11
 1271 1108 1271 1108 1238 1004 c 0,12,13
 1188 851 1188 851 1188 665 c 0,14,15
 1188 482 1188 482 1234 338 c 1,16,17
 1267 230 1267 230 1324 164.5 c 128,-1,18
 1381 99 1381 99 1436 99 c 0,19,20
 1523 99 1523 99 1592 226 c 0,21,22
 1613 266 1613 266 1625 314.5 c 128,-1,23
 1637 363 1637 363 1637 423 c 1,24,-1
 1692 409 l 1,25,-1
 1692 134 l 1,26,27
 1651 80 1651 80 1575 40 c 128,-1,28
 1499 0 1499 0 1436 0 c 0,29,30
 1327 0 1327 0 1237.5 79.5 c 128,-1,31
 1148 159 1148 159 1091 292 c 0,32,33
 1060 365 1060 365 1039.5 460.5 c 128,-1,34
 1019 556 1019 556 1019 662 c 0,35,36
 1019 898 1019 898 1115 1083 c 0,37,38
 1172 1193 1172 1193 1255.5 1258.5 c 128,-1,39
 1339 1324 1339 1324 1436 1324 c 0,0,1
793 1037 m 1,40,-1
 547 0 l 1,41,-1
 513 0 l 1,42,-1
 274 969 l 1,43,-1
 274 151 l 2,44,45
 274 123 274 123 288.5 104.5 c 128,-1,46
 303 86 303 86 334 86 c 1,47,-1
 334 0 l 1,48,-1
 130 0 l 1,49,-1
 130 86 l 1,50,51
 161 89 161 89 175 106 c 1,52,53
 188 126 188 126 188 150 c 2,54,-1
 188 1188 l 2,55,56
 188 1210 188 1210 174 1227 c 0,57,58
 157 1247 157 1247 130 1247 c 1,59,-1
 130 1324 l 1,60,-1
 321 1324 l 1,61,-1
 556 408 l 1,62,-1
 773 1324 l 1,63,-1
 989 1324 l 1,64,-1
 989 1245 l 1,65,66
 947 1245 947 1245 925 1230.5 c 128,-1,67
 903 1216 903 1216 903 1182 c 2,68,-1
 903 160 l 2,69,70
 903 128 903 128 924.5 107 c 128,-1,71
 946 86 946 86 980 86 c 1,72,-1
 980 0 l 1,73,-1
 712 0 l 1,74,-1
 712 85 l 1,75,76
 745 85 745 85 769 106 c 128,-1,77
 793 127 793 127 793 158 c 2,78,-1
 793 1037 l 1,40,-1
EndSplineSet
Validated: 1
EndChar

StartChar: O
Encoding: 79 79 57
Width: 1822
Flags: W
LayerCount: 2
Fore
SplineSet
1229 1324 m 0,0,1
 1293 1324 1293 1324 1363.5 1293 c 128,-1,2
 1434 1262 1434 1262 1485 1198 c 1,3,-1
 1485 915 l 1,4,-1
 1433 910 l 1,5,6
 1424 974 1424 974 1413 1024.5 c 128,-1,7
 1402 1075 1402 1075 1376 1121 c 1,8,9
 1345 1173 1345 1173 1312.5 1202.5 c 128,-1,10
 1280 1232 1280 1232 1229 1232 c 256,11,12
 1178 1232 1178 1232 1121 1170 c 128,-1,13
 1064 1108 1064 1108 1031 1004 c 0,14,15
 981 849 981 849 981 665 c 0,16,17
 981 482 981 482 1027 338 c 1,18,19
 1060 230 1060 230 1117 164.5 c 128,-1,20
 1174 99 1174 99 1229 99 c 0,21,22
 1316 99 1316 99 1385 226 c 0,23,24
 1406 266 1406 266 1418 314.5 c 128,-1,25
 1430 363 1430 363 1430 423 c 1,26,-1
 1485 409 l 1,27,-1
 1485 134 l 1,28,29
 1444 80 1444 80 1368 40 c 128,-1,30
 1292 0 1292 0 1229 0 c 0,31,32
 1120 0 1120 0 1030.5 79.5 c 128,-1,33
 941 159 941 159 884 292 c 0,34,35
 813 460 813 460 813 662 c 0,36,37
 813 900 813 900 908 1083 c 0,38,39
 965 1193 965 1193 1048.5 1258.5 c 128,-1,40
 1132 1324 1132 1324 1229 1324 c 0,0,1
537 1182 m 2,41,-1
 537 143 l 2,42,43
 537 119 537 119 551 102 c 1,44,45
 573 83 573 83 640 83 c 1,46,-1
 640 0 l 1,47,-1
 285 0 l 1,48,-1
 285 83 l 1,49,50
 336 83 336 83 361 99 c 128,-1,51
 386 115 386 115 386 143 c 2,52,-1
 386 1181 l 2,53,54
 386 1211 386 1211 349 1230 c 1,55,56
 321 1242 321 1242 285 1242 c 1,57,-1
 285 1324 l 1,58,-1
 640 1324 l 1,59,-1
 640 1242 l 1,60,61
 578 1242 578 1242 555 1225 c 1,62,63
 537 1209 537 1209 537 1182 c 2,41,-1
EndSplineSet
Validated: 1
EndChar

StartChar: P
Encoding: 80 80 58
Width: 1822
Flags: W
LayerCount: 2
Fore
SplineSet
911 1563 m 0,0,1
 1062 1563 1062 1563 1197 1508.5 c 128,-1,2
 1332 1454 1332 1454 1436 1360 c 1,3,4
 1553 1252 1553 1252 1622.5 1101.5 c 128,-1,5
 1692 951 1692 951 1692 782 c 0,6,7
 1692 610 1692 610 1622.5 461 c 128,-1,8
 1553 312 1553 312 1436 204 c 1,9,10
 1331 110 1331 110 1196 55 c 128,-1,11
 1061 0 1061 0 911 0 c 0,12,13
 749 0 749 0 607 61 c 128,-1,14
 465 122 465 122 358.5 228.5 c 128,-1,15
 252 335 252 335 191 477 c 0,16,17
 162 546 162 546 146 624 c 128,-1,18
 130 702 130 702 130 782 c 0,19,20
 130 943 130 943 184 1076 c 0,21,22
 235 1200 235 1200 333 1307 c 0,23,24
 440 1424 440 1424 590.5 1493.5 c 128,-1,25
 741 1563 741 1563 911 1563 c 0,0,1
911 1391 m 0,26,27
 659 1391 659 1391 480.5 1212.5 c 128,-1,28
 302 1034 302 1034 302 782 c 256,29,30
 302 530 302 530 481 351.5 c 128,-1,31
 660 173 660 173 911 173 c 0,32,33
 1163 173 1163 173 1341.5 351.5 c 128,-1,34
 1520 530 1520 530 1520 782 c 0,35,36
 1520 923 1520 923 1459 1046 c 128,-1,37
 1398 1169 1398 1169 1298 1252 c 0,38,39
 1129 1391 1129 1391 911 1391 c 0,26,27
911 955 m 0,40,41
 982 955 982 955 1033 904 c 128,-1,42
 1084 853 1084 853 1084 782 c 0,43,44
 1084 717 1084 717 1039 666 c 1,45,46
 986 609 986 609 911 609 c 0,47,48
 837 609 837 609 787.5 660 c 128,-1,49
 738 711 738 711 738 782 c 256,50,51
 738 853 738 853 787.5 904 c 128,-1,52
 837 955 837 955 911 955 c 0,40,41
EndSplineSet
Validated: 1
EndChar

StartChar: Q
Encoding: 81 81 59
Width: 1822
Flags: W
LayerCount: 2
Fore
SplineSet
784 1564 m 0,0,1
 921 1564 921 1564 1041 1512 c 128,-1,2
 1161 1460 1161 1460 1261 1360 c 1,3,4
 1366 1253 1366 1253 1430 1100.5 c 128,-1,5
 1494 948 1494 948 1494 782 c 0,6,7
 1494 614 1494 614 1438 474 c 128,-1,8
 1382 334 1382 334 1285.5 228 c 128,-1,9
 1189 122 1189 122 1058.5 61 c 128,-1,10
 928 0 928 0 784 0 c 0,11,12
 626 0 626 0 477 81 c 0,13,14
 418 113 418 113 328 181 c 1,15,16
 358 178 358 178 387 178 c 0,17,18
 433 178 433 178 477 187 c 1,19,20
 671 232 671 232 787 414 c 0,21,22
 893 579 893 579 893 782 c 0,23,24
 893 1003 893 1003 769 1175 c 1,25,26
 682 1299 682 1299 548 1355 c 1,27,28
 470 1386 470 1386 386 1386 c 0,29,30
 372 1386 372 1386 362.5 1386 c 128,-1,31
 353 1386 353 1386 329 1382 c 1,32,33
 405 1450 405 1450 480 1488 c 128,-1,34
 555 1526 555 1526 630 1545 c 128,-1,35
 705 1564 705 1564 784 1564 c 0,0,1
614 1424 m 1,36,37
 711 1398 711 1398 804 1320 c 1,38,39
 875 1257 875 1257 927 1180 c 0,40,41
 1049 999 1049 999 1049 782 c 0,42,43
 1049 575 1049 575 939 395 c 0,44,45
 880 298 880 298 812 239 c 0,46,47
 725 162 725 162 618 137 c 1,48,49
 649 127 649 127 690.5 123.5 c 128,-1,50
 732 120 732 120 785 120 c 1,51,52
 884 129 884 129 970 173 c 0,53,54
 1128 253 1128 253 1227 425 c 1,55,56
 1320 590 1320 590 1320 782 c 0,57,58
 1320 985 1320 985 1208 1152 c 0,59,60
 1101 1311 1101 1311 931 1389 c 1,61,62
 857 1420 857 1420 776 1432 c 0,63,64
 763 1434 763 1434 744 1435 c 128,-1,65
 725 1436 725 1436 710 1436 c 0,66,67
 658 1436 658 1436 614 1424 c 1,36,37
EndSplineSet
Validated: 1
EndChar

StartChar: R
Encoding: 82 82 60
Width: 1822
Flags: W
LayerCount: 2
Fore
SplineSet
565 263 m 1,0,-1
 828 263 l 1,1,-1
 828 493 l 1,2,3
 674 523 674 523 576 642 c 0,4,5
 525 703 525 703 501 764 c 0,6,7
 474 833 474 833 474 920 c 0,8,9
 474 1114 474 1114 622 1246 c 1,10,11
 553 1304 553 1304 516 1386 c 1,12,13
 474 1473 474 1473 474 1563 c 1,14,-1
 639 1563 l 1,15,16
 639 1495 639 1495 670 1436 c 1,17,18
 699 1369 699 1369 758 1328 c 1,19,20
 830 1355 830 1355 912 1355 c 0,21,22
 993 1355 993 1355 1065 1328 c 1,23,24
 1118 1366 1118 1366 1153 1436 c 0,25,26
 1168 1466 1168 1466 1175.5 1496.5 c 128,-1,27
 1183 1527 1183 1527 1183 1563 c 1,28,-1
 1348 1563 l 1,29,30
 1348 1473 1348 1473 1308 1389.5 c 128,-1,31
 1268 1306 1268 1306 1201 1246 c 1,32,33
 1348 1115 1348 1115 1348 920 c 0,34,35
 1348 743 1348 743 1222 615 c 0,36,37
 1128 520 1128 520 995 493 c 1,38,-1
 995 263 l 1,39,-1
 1257 263 l 1,40,-1
 1257 118 l 1,41,-1
 995 118 l 1,42,-1
 995 -103 l 1,43,-1
 828 -103 l 1,44,-1
 828 118 l 1,45,-1
 565 118 l 1,46,-1
 565 263 l 1,0,-1
911 1192 m 0,47,48
 794 1192 794 1192 713 1107 c 0,49,50
 637 1026 637 1026 637 919 c 0,51,52
 637 815 637 815 709 735 c 0,53,54
 789 646 789 646 911 646 c 0,55,56
 1032 646 1032 646 1112 735 c 1,57,58
 1183 812 1183 812 1183 919 c 0,59,60
 1183 1027 1183 1027 1112 1102 c 1,61,62
 1031 1192 1031 1192 911 1192 c 0,47,48
EndSplineSet
Validated: 1
EndChar

StartChar: S
Encoding: 83 83 61
Width: 1822
Flags: W
LayerCount: 2
Fore
SplineSet
911 1401 m 0,0,1
 764 1401 764 1401 665 1292 c 0,2,3
 578 1196 578 1196 578 1068 c 0,4,5
 578 941 578 941 665 845 c 0,6,7
 764 735 764 735 911 735 c 0,8,9
 1047 735 1047 735 1145 833.5 c 128,-1,10
 1243 932 1243 932 1243 1068 c 0,11,12
 1243 1206 1243 1206 1145.5 1303.5 c 128,-1,13
 1048 1401 1048 1401 911 1401 c 0,0,1
572 387 m 1,14,-1
 829 387 l 1,15,-1
 829 578 l 1,16,17
 653 608 653 608 533.5 747.5 c 128,-1,18
 414 887 414 887 414 1068 c 0,19,20
 414 1272 414 1272 560 1418 c 128,-1,21
 706 1564 706 1564 911 1564 c 256,22,23
 1116 1564 1116 1564 1261.5 1418.5 c 128,-1,24
 1407 1273 1407 1273 1407 1068 c 0,25,26
 1407 884 1407 884 1288 746.5 c 128,-1,27
 1169 609 1169 609 993 579 c 1,28,-1
 993 387 l 1,29,-1
 1249 387 l 1,30,-1
 1249 245 l 1,31,-1
 993 245 l 1,32,-1
 993 0 l 1,33,-1
 829 0 l 1,34,-1
 829 245 l 1,35,-1
 572 245 l 1,36,-1
 572 387 l 1,14,-1
EndSplineSet
Validated: 1
EndChar

StartChar: T
Encoding: 84 84 62
Width: 1822
Flags: W
LayerCount: 2
Fore
SplineSet
1127 499 m 0,0,1
 1127 293 1127 293 980 146.5 c 128,-1,2
 833 0 833 0 628 0 c 0,3,4
 393 0 393 0 244 182 c 0,5,6
 130 320 130 320 130 499 c 0,7,8
 130 696 130 696 268 842 c 0,9,10
 415 997 415 997 628 997 c 0,11,12
 781 997 781 997 919 905 c 1,13,-1
 1257 1243 l 1,14,15
 1199 1288 1199 1288 1133.5 1314.5 c 128,-1,16
 1068 1341 1068 1341 994 1350 c 1,17,-1
 1691 1566 l 1,18,-1
 1480 864 l 1,19,20
 1472 942 1472 942 1439 1016 c 0,21,22
 1414 1073 1414 1073 1373 1127 c 1,23,-1
 1035 789 l 1,24,25
 1127 647 1127 647 1127 499 c 0,0,1
963 499 m 0,26,27
 963 634 963 634 864 733.5 c 128,-1,28
 765 833 765 833 628 833 c 256,29,30
 491 833 491 833 392.5 734 c 128,-1,31
 294 635 294 635 294 499 c 0,32,33
 294 370 294 370 381 274 c 1,34,35
 479 164 479 164 628 164 c 0,36,37
 766 164 766 164 864.5 263 c 128,-1,38
 963 362 963 362 963 499 c 0,26,27
EndSplineSet
Validated: 1
EndChar

StartChar: U
Encoding: 85 85 63
Width: 1822
Flags: W
LayerCount: 2
Fore
SplineSet
649 574 m 1,0,-1
 1019 574 l 1,1,-1
 1019 829 l 1,2,-1
 1187 998 l 1,3,-1
 1187 574 l 1,4,-1
 1548 574 l 1,5,-1
 1548 432 l 1,6,-1
 1187 432 l 1,7,-1
 1187 0 l 1,8,-1
 1019 0 l 1,9,-1
 1019 432 l 1,10,-1
 273 432 l 1,11,12
 293 450 293 450 342 495 c 0,13,14
 412 559 412 559 447 598 c 0,15,16
 528 687 528 687 579 793 c 0,17,18
 664 969 664 969 664 1135 c 0,19,20
 664 1200 664 1200 646.5 1267 c 128,-1,21
 629 1334 629 1334 582 1386 c 0,22,23
 545 1426 545 1426 488 1453 c 1,24,25
 431 1477 431 1477 375 1477 c 0,26,27
 347 1477 347 1477 325 1473 c 128,-1,28
 303 1469 303 1469 273 1457 c 1,29,30
 297 1481 297 1481 349 1506 c 0,31,32
 377 1519 377 1519 398 1527.5 c 128,-1,33
 419 1536 419 1536 437 1542 c 0,34,35
 469 1552 469 1552 501 1558 c 128,-1,36
 533 1564 533 1564 559 1564 c 0,37,38
 610 1564 610 1564 657 1545 c 1,39,40
 713 1520 713 1520 751 1479 c 0,41,42
 797 1431 797 1431 822 1364 c 0,43,44
 854 1280 854 1280 854 1171 c 0,45,46
 854 1086 854 1086 834 995 c 0,47,48
 820 931 820 931 798 867 c 128,-1,49
 776 803 776 803 742 734 c 0,50,51
 701 652 701 652 649 574 c 1,0,-1
EndSplineSet
Validated: 1
EndChar

StartChar: V
Encoding: 86 86 64
Width: 1822
Flags: W
LayerCount: 2
Fore
SplineSet
1626 -227 m 1,0,1
 1579 -316 1579 -316 1485 -373 c 1,2,3
 1448 -394 1448 -394 1411.5 -405 c 128,-1,4
 1375 -416 1375 -416 1337 -416 c 0,5,6
 1242 -416 1242 -416 1164 -346 c 0,7,8
 1104 -292 1104 -292 1085 -221 c 1,9,10
 1073 -181 1073 -181 1073 -133 c 0,11,12
 1073 -130 1073 -130 1073 -126 c 0,13,14
 1073 -108 1073 -108 1073.5 -101.5 c 128,-1,15
 1074 -95 1074 -95 1075 -86 c 0,16,17
 1082 -18 1082 -18 1099 49 c 2,18,-1
 1135 197 l 2,19,20
 1155 275 1155 275 1155 350 c 0,21,22
 1155 405 1155 405 1139 474.5 c 128,-1,23
 1123 544 1123 544 1088 601 c 128,-1,24
 1053 658 1053 658 997 699 c 128,-1,25
 941 740 941 740 859 740 c 0,26,27
 661 740 661 740 603 606 c 1,28,-1
 603 0 l 1,29,-1
 449 0 l 1,30,-1
 449 1150 l 1,31,-1
 195 1150 l 1,32,-1
 195 1293 l 1,33,-1
 449 1293 l 1,34,-1
 449 1564 l 1,35,-1
 603 1564 l 1,36,-1
 603 1293 l 1,37,-1
 857 1293 l 1,38,-1
 857 1150 l 1,39,-1
 603 1150 l 1,40,-1
 603 814 l 1,41,42
 701 894 701 894 848 894 c 0,43,44
 977 894 977 894 1064 840.5 c 128,-1,45
 1151 787 1151 787 1203 712 c 1,46,47
 1260 627 1260 627 1285 527.5 c 128,-1,48
 1310 428 1310 428 1310 358 c 0,49,50
 1310 263 1310 263 1282.5 170.5 c 128,-1,51
 1255 78 1255 78 1240 -14 c 0,52,53
 1231 -68 1231 -68 1231 -111 c 0,54,55
 1231 -145 1231 -145 1237 -174 c 0,56,57
 1260 -279 1260 -279 1357 -279 c 0,58,59
 1445 -279 1445 -279 1524 -170 c 128,-1,60
 1603 -61 1603 -61 1626 3 c 1,61,-1
 1626 -227 l 1,0,1
EndSplineSet
Validated: 1
EndChar

StartChar: W
Encoding: 87 87 65
Width: 1822
Flags: W
LayerCount: 2
Fore
SplineSet
597 1246 m 1,0,-1
 829 1246 l 1,1,-1
 829 1438 l 1,2,-1
 993 1438 l 1,3,-1
 993 1246 l 1,4,-1
 1225 1246 l 1,5,6
 1225 1290 1225 1290 1230 1329.5 c 128,-1,7
 1235 1369 1235 1369 1253 1447 c 128,-1,8
 1271 1525 1271 1525 1309 1615 c 1,9,-1
 1501 1615 l 1,10,11
 1473 1557 1473 1557 1454 1507.5 c 128,-1,12
 1435 1458 1435 1458 1422 1403 c 128,-1,13
 1409 1348 1409 1348 1403 1289.5 c 128,-1,14
 1397 1231 1397 1231 1397 1171 c 0,15,16
 1397 1054 1397 1054 1422.5 943 c 128,-1,17
 1448 832 1448 832 1501 728 c 1,18,-1
 1308 728 l 1,19,20
 1288 777 1288 777 1275 814.5 c 128,-1,21
 1262 852 1262 852 1251 902 c 128,-1,22
 1240 952 1240 952 1232.5 1001.5 c 128,-1,23
 1225 1051 1225 1051 1225 1097 c 1,24,-1
 993 1097 l 1,25,-1
 993 687 l 1,26,27
 1108 662 1108 662 1193 578 c 0,28,29
 1310 461 1310 461 1310 296 c 0,30,31
 1310 136 1310 136 1200 20 c 1,32,33
 1079 -103 1079 -103 911 -103 c 0,34,35
 731 -103 731 -103 609 34 c 1,36,37
 512 146 512 146 512 296 c 0,38,39
 512 461 512 461 629 578 c 0,40,41
 711 660 711 660 829 687 c 1,42,-1
 829 1097 l 1,43,-1
 597 1097 l 1,44,45
 597 1050 597 1050 589 1002 c 128,-1,46
 581 954 581 954 567.5 898.5 c 128,-1,47
 554 843 554 843 543.5 809 c 128,-1,48
 533 775 533 775 514 728 c 1,49,-1
 321 728 l 1,50,51
 344 775 344 775 363.5 828.5 c 128,-1,52
 383 882 383 882 396 936 c 0,53,54
 425 1049 425 1049 425 1171 c 0,55,56
 425 1242 425 1242 420 1293.5 c 128,-1,57
 415 1345 415 1345 399 1407 c 0,58,59
 374 1510 374 1510 321 1615 c 1,60,-1
 513 1615 l 1,61,62
 528 1578 528 1578 543 1533 c 128,-1,63
 558 1488 558 1488 567 1449 c 0,64,65
 582 1387 582 1387 589.5 1340.5 c 128,-1,66
 597 1294 597 1294 597 1246 c 1,0,-1
911 531 m 256,67,68
 813 531 813 531 744.5 462 c 128,-1,69
 676 393 676 393 676 296 c 0,70,71
 676 207 676 207 733 142 c 1,72,73
 803 60 803 60 911 60 c 0,74,75
 1009 60 1009 60 1081 133 c 1,76,77
 1146 201 1146 201 1146 296 c 256,78,79
 1146 391 1146 391 1077.5 461 c 128,-1,80
 1009 531 1009 531 911 531 c 256,67,68
EndSplineSet
Validated: 1
EndChar

StartChar: X
Encoding: 88 88 66
Width: 1822
Flags: W
LayerCount: 2
Fore
SplineSet
334 1595 m 1,0,-1
 543 1200 l 1,1,2
 521 1226 521 1226 490 1250 c 1,3,4
 459 1271 459 1271 418 1286 c 1,5,-1
 418 1145 l 2,6,7
 418 1001 418 1001 492 896 c 1,8,9
 576 774 576 774 700 774 c 2,10,-1
 833 774 l 1,11,-1
 833 1288 l 1,12,13
 791 1276 791 1276 757.5 1253.5 c 128,-1,14
 724 1231 724 1231 701 1200 c 1,15,-1
 910 1595 l 1,16,-1
 1118 1200 l 1,17,18
 1098 1225 1098 1225 1066 1250 c 1,19,20
 1036 1271 1036 1271 996 1285 c 1,21,-1
 996 774 l 1,22,-1
 1121 774 l 2,23,24
 1236 774 1236 774 1319 882.5 c 128,-1,25
 1402 991 1402 991 1402 1145 c 2,26,-1
 1402 1286 l 1,27,28
 1364 1273 1364 1273 1335 1254 c 0,29,30
 1300 1231 1300 1231 1277 1200 c 1,31,-1
 1486 1595 l 1,32,-1
 1695 1200 l 1,33,34
 1673 1226 1673 1226 1642 1250 c 1,35,36
 1612 1271 1612 1271 1572 1285 c 1,37,-1
 1572 1152 l 2,38,39
 1572 933 1572 933 1447 774 c 0,40,41
 1312 604 1312 604 1119 604 c 2,42,-1
 996 604 l 1,43,-1
 996 377 l 1,44,-1
 1240 377 l 1,45,-1
 1240 238 l 1,46,-1
 996 238 l 1,47,-1
 996 0 l 1,48,-1
 833 0 l 1,49,-1
 833 238 l 1,50,-1
 580 238 l 1,51,-1
 580 377 l 1,52,-1
 833 377 l 1,53,-1
 833 604 l 1,54,-1
 701 604 l 2,55,56
 515 604 515 604 382 764.5 c 128,-1,57
 249 925 249 925 249 1152 c 2,58,-1
 249 1286 l 1,59,60
 211 1273 211 1273 183 1254 c 0,61,62
 147 1230 147 1230 126 1200 c 1,63,-1
 334 1595 l 1,0,-1
EndSplineSet
Validated: 1
EndChar

StartChar: Y
Encoding: 89 89 67
Width: 1822
Flags: W
LayerCount: 2
Fore
SplineSet
573 308 m 1,0,-1
 829 308 l 1,1,-1
 829 564 l 1,2,3
 569 591 569 591 374 775 c 1,4,5
 264 877 264 877 201 1002 c 0,6,7
 131 1141 131 1141 131 1285 c 1,8,-1
 297 1392 l 1,9,-1
 295 1340 l 1,10,11
 295 1213 295 1213 341.5 1105 c 128,-1,12
 388 997 388 997 481 904 c 0,13,14
 571 814 571 814 678 768.5 c 128,-1,15
 785 723 785 723 913 723 c 0,16,17
 1032 723 1032 723 1139.5 766 c 128,-1,18
 1247 809 1247 809 1337 891 c 0,19,20
 1431 976 1431 976 1480.5 1090 c 128,-1,21
 1530 1204 1530 1204 1530 1340 c 1,22,-1
 1528 1392 l 1,23,-1
 1690 1288 l 1,24,25
 1689 1125 1689 1125 1624 1007 c 1,26,27
 1563 882 1563 882 1449 775 c 0,28,29
 1256 593 1256 593 993 564 c 1,30,-1
 993 308 l 1,31,-1
 1250 308 l 1,32,-1
 1250 166 l 1,33,-1
 993 166 l 1,34,-1
 993 -103 l 1,35,-1
 829 -103 l 1,36,-1
 829 166 l 1,37,-1
 573 166 l 1,38,-1
 573 308 l 1,0,-1
912 1668 m 0,39,40
 1047 1668 1047 1668 1144.5 1571 c 128,-1,41
 1242 1474 1242 1474 1242 1337 c 0,42,43
 1242 1204 1242 1204 1151 1109 c 0,44,45
 1051 1006 1051 1006 912 1006 c 0,46,47
 774 1006 774 1006 677 1103.5 c 128,-1,48
 580 1201 580 1201 580 1337 c 0,49,50
 580 1470 580 1470 672 1565 c 1,51,52
 770 1668 770 1668 912 1668 c 0,39,40
912 1525 m 0,53,54
 831 1525 831 1525 777.5 1468 c 128,-1,55
 724 1411 724 1411 724 1337 c 0,56,57
 724 1259 724 1259 779 1204 c 128,-1,58
 834 1149 834 1149 912 1149 c 0,59,60
 992 1149 992 1149 1047 1208 c 1,61,62
 1099 1262 1099 1262 1099 1337 c 0,63,64
 1099 1414 1099 1414 1043.5 1469.5 c 128,-1,65
 988 1525 988 1525 912 1525 c 0,53,54
EndSplineSet
Validated: 1
EndChar

StartChar: bracketleft
Encoding: 91 91 68
Width: 1822
Flags: W
LayerCount: 2
Fore
SplineSet
572 1178 m 1,0,-1
 572 1320 l 1,1,-1
 826 1320 l 1,2,-1
 826 1564 l 1,3,-1
 994 1564 l 1,4,-1
 994 1320 l 1,5,-1
 1249 1320 l 1,6,-1
 1249 1178 l 1,7,-1
 994 1178 l 1,8,-1
 994 986 l 1,9,10
 1148 959 1148 959 1259 854 c 1,11,12
 1407 709 1407 709 1407 496 c 0,13,14
 1407 295 1407 295 1253 142 c 1,15,16
 1105 0 1105 0 910 0 c 0,17,18
 803 0 803 0 709 43.5 c 128,-1,19
 615 87 615 87 543 168 c 0,20,21
 414 312 414 312 414 496 c 0,22,23
 414 696 414 696 546 839 c 1,24,25
 659 956 659 956 826 986 c 1,26,-1
 826 1178 l 1,27,-1
 572 1178 l 1,0,-1
910 174 m 0,28,29
 1052 174 1052 174 1148 280 c 1,30,31
 1232 370 1232 370 1232 496 c 0,32,33
 1232 630 1232 630 1137.5 724.5 c 128,-1,34
 1043 819 1043 819 910 819 c 256,35,36
 777 819 777 819 682.5 724.5 c 128,-1,37
 588 630 588 630 588 496 c 0,38,39
 588 373 588 373 672 280 c 0,40,41
 769 174 769 174 910 174 c 0,28,29
EndSplineSet
Validated: 1
EndChar

StartChar: backslash
Encoding: 92 92 69
Width: 1822
Flags: W
LayerCount: 2
Fore
SplineSet
1469 1217 m 1,0,-1
 1036 784 l 1,1,2
 1090 695 1090 695 1090 592 c 0,3,4
 1090 439 1090 439 981.5 331.5 c 128,-1,5
 873 224 873 224 721 224 c 0,6,7
 568 224 568 224 460.5 331.5 c 128,-1,8
 353 439 353 439 353 592 c 256,9,10
 353 745 353 745 461 853 c 128,-1,11
 569 961 569 961 722 961 c 0,12,13
 824 961 824 961 913 907 c 1,14,-1
 1346 1340 l 1,15,-1
 1469 1217 l 1,0,-1
EndSplineSet
Validated: 1
EndChar

StartChar: bracketright
Encoding: 93 93 70
Width: 1822
Flags: W
LayerCount: 2
Fore
SplineSet
1132 880 m 1,0,-1
 813 561 l 1,1,2
 866 470 866 470 866 368 c 0,3,4
 866 216 866 216 758.5 108 c 128,-1,5
 651 0 651 0 498 0 c 256,6,7
 345 0 345 0 237.5 107.5 c 128,-1,8
 130 215 130 215 130 369 c 0,9,10
 130 522 130 522 237.5 629.5 c 128,-1,11
 345 737 345 737 499 737 c 0,12,13
 600 737 600 737 690 683 c 1,14,-1
 1009 1004 l 1,15,16
 956 1092 956 1092 956 1195 c 0,17,18
 956 1348 956 1348 1063.5 1456 c 128,-1,19
 1171 1564 1171 1564 1325 1564 c 0,20,21
 1475 1564 1475 1564 1583.5 1456.5 c 128,-1,22
 1692 1349 1692 1349 1692 1195 c 256,23,24
 1692 1041 1692 1041 1584.5 934 c 128,-1,25
 1477 827 1477 827 1325 827 c 0,26,27
 1273 827 1273 827 1225 840 c 128,-1,28
 1177 853 1177 853 1132 880 c 1,0,-1
EndSplineSet
Validated: 1
EndChar

StartChar: asciicircum
Encoding: 94 94 71
Width: 1822
Flags: W
LayerCount: 2
Fore
SplineSet
730 229 m 0,0,1
 730 106 730 106 642 18.5 c 128,-1,2
 554 -69 554 -69 430 -69 c 0,3,4
 316 -69 316 -69 230 8 c 1,5,6
 131 95 131 95 131 229 c 0,7,8
 131 322 131 322 185.5 400.5 c 128,-1,9
 240 479 240 479 334 512 c 1,10,11
 215 684 215 684 215 889 c 0,12,13
 215 1148 215 1148 396 1342 c 0,14,15
 495 1447 495 1447 623 1504 c 0,16,17
 758 1564 758 1564 911 1564 c 0,18,19
 1160 1564 1160 1564 1353 1410 c 0,20,21
 1470 1316 1470 1316 1538.5 1180 c 128,-1,22
 1607 1044 1607 1044 1607 889 c 0,23,24
 1607 683 1607 683 1488 512 c 1,25,26
 1574 482 1574 482 1632 404 c 128,-1,27
 1690 326 1690 326 1690 229 c 0,28,29
 1690 101 1690 101 1597 12 c 0,30,31
 1511 -69 1511 -69 1391 -69 c 0,32,33
 1267 -69 1267 -69 1180 17 c 1,34,35
 1136 62 1136 62 1114 114 c 128,-1,36
 1092 166 1092 166 1092 229 c 0,37,38
 1092 303 1092 303 1129 371 c 128,-1,39
 1166 439 1166 439 1225 477 c 1,40,41
 1321 546 1321 546 1379.5 655 c 128,-1,42
 1438 764 1438 764 1438 889 c 0,43,44
 1438 1115 1438 1115 1265 1267 c 0,45,46
 1113 1401 1113 1401 911 1401 c 0,47,48
 677 1401 677 1401 521 1232 c 1,49,50
 383 1085 383 1085 383 889 c 0,51,52
 383 761 383 761 443 652 c 128,-1,53
 503 543 503 543 603 473 c 0,54,55
 625 457 625 457 644.5 436.5 c 128,-1,56
 664 416 664 416 683 389 c 1,57,58
 730 315 730 315 730 229 c 0,0,1
1391 358 m 0,59,60
 1337 358 1337 358 1299.5 321 c 128,-1,61
 1262 284 1262 284 1262 229 c 0,62,63
 1262 175 1262 175 1300 137 c 128,-1,64
 1338 99 1338 99 1391 99 c 256,65,66
 1444 99 1444 99 1482.5 137.5 c 128,-1,67
 1521 176 1521 176 1521 229 c 0,68,69
 1521 281 1521 281 1483.5 319.5 c 128,-1,70
 1446 358 1446 358 1391 358 c 0,59,60
430 358 m 0,71,72
 376 358 376 358 338.5 319 c 128,-1,73
 301 280 301 280 301 229 c 0,74,75
 301 176 301 176 339 137.5 c 128,-1,76
 377 99 377 99 430 99 c 0,77,78
 484 99 484 99 522 137 c 128,-1,79
 560 175 560 175 560 229 c 256,80,81
 560 283 560 283 521.5 320.5 c 128,-1,82
 483 358 483 358 430 358 c 0,71,72
EndSplineSet
Validated: 1
EndChar

StartChar: underscore
Encoding: 95 95 72
Width: 1822
Flags: W
LayerCount: 2
Fore
SplineSet
729 1208 m 0,0,1
 729 1118 729 1118 683 1048 c 0,2,3
 652 1001 652 1001 603 964 c 1,4,5
 504 895 504 895 443.5 786 c 128,-1,6
 383 677 383 677 383 548 c 0,7,8
 383 351 383 351 521 204 c 1,9,10
 677 36 677 36 911 36 c 0,11,12
 1113 36 1113 36 1265 170 c 1,13,14
 1438 320 1438 320 1438 548 c 0,15,16
 1438 613 1438 613 1424 669 c 128,-1,17
 1410 725 1410 725 1379 781 c 1,18,19
 1323 888 1323 888 1225 960 c 1,20,21
 1164 999 1164 999 1128 1065 c 128,-1,22
 1092 1131 1092 1131 1092 1208 c 0,23,24
 1092 1330 1092 1330 1179 1419 c 1,25,26
 1224 1463 1224 1463 1276 1485 c 128,-1,27
 1328 1507 1328 1507 1391 1507 c 0,28,29
 1510 1507 1510 1507 1597 1424 c 0,30,31
 1690 1335 1690 1335 1690 1208 c 0,32,33
 1690 1111 1690 1111 1633.5 1033 c 128,-1,34
 1577 955 1577 955 1487 925 c 1,35,36
 1607 754 1607 754 1607 548 c 0,37,38
 1607 395 1607 395 1540 258.5 c 128,-1,39
 1473 122 1473 122 1353 27 c 0,40,41
 1158 -126 1158 -126 911 -126 c 0,42,43
 759 -126 759 -126 626.5 -69 c 128,-1,44
 494 -12 494 -12 396 94 c 1,45,46
 215 287 215 287 215 548 c 0,47,48
 215 752 215 752 334 925 c 1,49,50
 242 955 242 955 186.5 1034.5 c 128,-1,51
 131 1114 131 1114 131 1208 c 0,52,53
 131 1340 131 1340 229 1429 c 1,54,55
 313 1507 313 1507 430 1507 c 0,56,57
 551 1507 551 1507 640 1419.5 c 128,-1,58
 729 1332 729 1332 729 1208 c 0,0,1
1391 1079 m 256,59,60
 1445 1079 1445 1079 1482.5 1116 c 128,-1,61
 1520 1153 1520 1153 1520 1208 c 0,62,63
 1520 1262 1520 1262 1483 1299.5 c 128,-1,64
 1446 1337 1446 1337 1391 1337 c 0,65,66
 1337 1337 1337 1337 1299 1299 c 128,-1,67
 1261 1261 1261 1261 1261 1208 c 256,68,69
 1261 1155 1261 1155 1299 1117 c 128,-1,70
 1337 1079 1337 1079 1391 1079 c 256,59,60
430 1079 m 0,71,72
 482 1079 482 1079 521 1116.5 c 128,-1,73
 560 1154 560 1154 560 1208 c 0,74,75
 560 1261 560 1261 522 1299 c 128,-1,76
 484 1337 484 1337 430 1337 c 256,77,78
 376 1337 376 1337 338.5 1300 c 128,-1,79
 301 1263 301 1263 301 1208 c 0,80,81
 301 1158 301 1158 337.5 1118.5 c 128,-1,82
 374 1079 374 1079 430 1079 c 0,71,72
EndSplineSet
Validated: 1
EndChar

StartChar: grave
Encoding: 96 96 73
Width: 1822
Flags: W
LayerCount: 2
Fore
SplineSet
888 759 m 1,0,1
 835 810 835 810 758 810 c 0,2,3
 750 810 750 810 744 809.5 c 128,-1,4
 738 809 738 809 730 808 c 0,5,6
 646 796 646 796 582 732 c 128,-1,7
 518 668 518 668 506 584 c 0,8,9
 505 576 505 576 504.5 566.5 c 128,-1,10
 504 557 504 557 504 553 c 0,11,12
 504 479 504 479 554.5 427 c 128,-1,13
 605 375 605 375 680 375 c 2,14,-1
 692 375 l 2,15,16
 699 375 699 375 713 377 c 0,17,18
 796 387 796 387 861.5 453.5 c 128,-1,19
 927 520 927 520 938 611 c 0,20,21
 939 618 939 618 939 633 c 0,22,23
 939 706 939 706 888 759 c 1,0,1
1469 1217 m 1,24,-1
 1036 784 l 1,25,26
 1090 695 1090 695 1090 592 c 0,27,28
 1090 440 1090 440 982 332 c 128,-1,29
 874 224 874 224 722 224 c 0,30,31
 569 224 569 224 461 330.5 c 128,-1,32
 353 437 353 437 353 592 c 0,33,34
 353 745 353 745 461 853 c 128,-1,35
 569 961 569 961 722 961 c 0,36,37
 824 961 824 961 914 907 c 1,38,-1
 1346 1340 l 1,39,-1
 1469 1217 l 1,24,-1
EndSplineSet
Validated: 1
EndChar

StartChar: a
Encoding: 97 97 74
Width: 1822
Flags: W
LayerCount: 2
Fore
SplineSet
1393 403 m 1,0,-1
 998 631 l 1,1,-1
 998 175 l 1,2,-1
 824 175 l 1,3,-1
 824 631 l 1,4,-1
 429 403 l 1,5,-1
 342 554 l 1,6,-1
 737 782 l 1,7,-1
 342 1010 l 1,8,-1
 429 1160 l 1,9,-1
 824 932 l 1,10,-1
 824 1388 l 1,11,-1
 998 1388 l 1,12,-1
 998 932 l 1,13,-1
 1393 1160 l 1,14,-1
 1480 1010 l 1,15,-1
 1085 782 l 1,16,-1
 1480 554 l 1,17,-1
 1393 403 l 1,0,-1
EndSplineSet
Validated: 1
EndChar

StartChar: b
Encoding: 98 98 75
Width: 1822
Flags: W
LayerCount: 2
Fore
SplineSet
364 1370 m 1,0,-1
 1494 1370 l 1,1,-1
 1494 240 l 1,2,-1
 364 240 l 1,3,-1
 364 1370 l 1,0,-1
516 1222 m 1,4,-1
 516 393 l 1,5,-1
 1345 393 l 1,6,-1
 1345 1222 l 1,7,-1
 516 1222 l 1,4,-1
EndSplineSet
Validated: 1
EndChar

StartChar: c
Encoding: 99 99 76
Width: 1822
Flags: W
LayerCount: 2
Fore
SplineSet
910 1103 m 1,0,-1
 427 278 l 1,1,-1
 1392 278 l 1,2,-1
 910 1103 l 1,0,-1
911 1456 m 1,3,-1
 1691 108 l 1,4,-1
 131 108 l 1,5,-1
 911 1456 l 1,3,-1
EndSplineSet
Validated: 1
EndChar

StartChar: d
Encoding: 100 100 77
Width: 1822
Flags: W
LayerCount: 2
Fore
SplineSet
1491 1362 m 1,0,1
 1439 1412 1439 1412 1361 1412 c 0,2,3
 1359 1412 1359 1412 1349.5 1411.5 c 128,-1,4
 1340 1411 1340 1411 1333 1410 c 0,5,6
 1250 1398 1250 1398 1185 1335 c 0,7,8
 1107 1259 1107 1259 1107 1160 c 0,9,10
 1107 1080 1107 1080 1156.5 1029 c 128,-1,11
 1206 978 1206 978 1286 978 c 2,12,-1
 1302 978 l 1,13,14
 1308 979 1308 979 1311 979 c 0,15,16
 1397 988 1397 988 1464 1055 c 0,17,18
 1527 1118 1527 1118 1540 1204 c 0,19,20
 1541 1214 1541 1214 1541.5 1222 c 128,-1,21
 1542 1230 1542 1230 1542 1235 c 0,22,23
 1542 1308 1542 1308 1491 1362 c 1,0,1
665 535 m 0,24,25
 638 561 638 561 604 573.5 c 128,-1,26
 570 586 570 586 527 586 c 0,27,28
 436 586 436 586 358.5 508.5 c 128,-1,29
 281 431 281 431 281 334 c 0,30,31
 281 251 281 251 331 201 c 128,-1,32
 381 151 381 151 460 151 c 0,33,34
 476 151 476 151 484 152 c 0,35,36
 572 163 572 163 638 229 c 0,37,38
 674 265 674 265 694 304 c 128,-1,39
 714 343 714 343 714 387 c 0,40,41
 714 436 714 436 703.5 471.5 c 128,-1,42
 693 507 693 507 665 535 c 0,24,25
1132 880 m 1,43,-1
 813 560 l 1,44,45
 866 472 866 472 866 368 c 0,46,47
 866 216 866 216 758.5 108 c 128,-1,48
 651 0 651 0 498 0 c 256,49,50
 345 0 345 0 237.5 107.5 c 128,-1,51
 130 215 130 215 130 368 c 0,52,53
 130 522 130 522 237.5 629.5 c 128,-1,54
 345 737 345 737 499 737 c 0,55,56
 600 737 600 737 690 683 c 1,57,-1
 1009 1003 l 1,58,59
 956 1092 956 1092 956 1195 c 0,60,61
 956 1348 956 1348 1064 1456 c 128,-1,62
 1172 1564 1172 1564 1325 1564 c 0,63,64
 1474 1564 1474 1564 1583 1456.5 c 128,-1,65
 1692 1349 1692 1349 1692 1195 c 256,66,67
 1692 1041 1692 1041 1584.5 934 c 128,-1,68
 1477 827 1477 827 1325 827 c 0,69,70
 1273 827 1273 827 1225 840 c 128,-1,71
 1177 853 1177 853 1132 880 c 1,43,-1
EndSplineSet
Validated: 1
EndChar

StartChar: e
Encoding: 101 101 78
Width: 1822
Flags: W
LayerCount: 2
Fore
SplineSet
237 523 m 1,0,-1
 759 523 l 1,1,-1
 254 1100 l 1,2,-1
 384 1214 l 1,3,-1
 911 614 l 1,4,-1
 1436 1214 l 1,5,-1
 1567 1100 l 1,6,-1
 1061 523 l 1,7,-1
 1584 523 l 1,8,-1
 1584 349 l 1,9,-1
 237 349 l 1,10,-1
 237 523 l 1,0,-1
EndSplineSet
Validated: 1
EndChar

StartChar: f
Encoding: 102 102 79
Width: 1822
Flags: W
LayerCount: 2
Fore
SplineSet
587 403 m 1,0,-1
 1479 403 l 1,1,-1
 1479 229 l 1,2,-1
 342 229 l 1,3,-1
 342 402 l 1,4,-1
 1274 1335 l 1,5,-1
 1397 1212 l 1,6,-1
 587 403 l 1,0,-1
EndSplineSet
Validated: 1
EndChar

StartChar: g
Encoding: 103 103 80
Width: 1822
Flags: W
LayerCount: 2
Fore
SplineSet
344 1550 m 1,0,-1
 1469 1550 l 1,1,-1
 1469 420 l 1,2,-1
 993 420 l 1,3,-1
 993 167 l 1,4,-1
 1469 167 l 1,5,-1
 1469 -5 l 1,6,-1
 820 -5 l 1,7,-1
 820 420 l 1,8,-1
 344 420 l 1,9,-1
 344 1550 l 1,0,-1
993 897 m 1,10,-1
 993 588 l 1,11,-1
 1303 588 l 1,12,-1
 1303 1395 l 1,13,-1
 508 1395 l 1,14,-1
 508 588 l 1,15,-1
 821 588 l 1,16,-1
 821 897 l 1,17,-1
 993 897 l 1,10,-1
EndSplineSet
Validated: 1
EndChar

StartChar: h
Encoding: 104 104 81
Width: 1822
Flags: W
LayerCount: 2
Fore
SplineSet
237 1040 m 1,0,-1
 237 1214 l 1,1,-1
 1584 1214 l 1,2,-1
 1584 1040 l 1,3,-1
 1061 1040 l 1,4,-1
 1567 464 l 1,5,-1
 1436 349 l 1,6,-1
 911 949 l 1,7,-1
 384 349 l 1,8,-1
 254 464 l 1,9,-1
 759 1040 l 1,10,-1
 237 1040 l 1,0,-1
EndSplineSet
Validated: 1
EndChar

StartChar: i
Encoding: 105 105 82
Width: 1822
Flags: W
LayerCount: 2
Fore
SplineSet
703 105 m 2,0,1
 573 105 573 105 480.5 197.5 c 128,-1,2
 388 290 388 290 388 419 c 2,3,-1
 388 1145 l 2,4,5
 388 1278 388 1278 486 1373 c 0,6,7
 576 1460 576 1460 703 1460 c 2,8,-1
 1119 1460 l 2,9,10
 1256 1460 1256 1460 1352 1357 c 1,11,12
 1434 1264 1434 1264 1434 1145 c 2,13,-1
 1434 419 l 2,14,15
 1434 295 1434 295 1347 203 c 1,16,17
 1252 105 1252 105 1119 105 c 2,18,-1
 998 105 l 1,19,-1
 998 -45 l 1,20,-1
 1434 -45 l 1,21,-1
 1434 -220 l 1,22,-1
 824 -220 l 1,23,-1
 824 105 l 1,24,-1
 703 105 l 2,0,1
824 487 m 1,25,-1
 998 487 l 1,26,-1
 998 279 l 1,27,-1
 1098 279 l 2,28,29
 1168 279 1168 279 1217 338 c 0,30,31
 1259 389 1259 389 1259 459 c 2,32,-1
 1259 1106 l 2,33,34
 1259 1170 1259 1170 1223 1222 c 0,35,36
 1200 1254 1200 1254 1168 1272.5 c 128,-1,37
 1136 1291 1136 1291 1098 1291 c 2,38,-1
 724 1291 l 2,39,40
 689 1291 689 1291 656.5 1273.5 c 128,-1,41
 624 1256 624 1256 602 1226 c 0,42,43
 584 1202 584 1202 573.5 1170.5 c 128,-1,44
 563 1139 563 1139 563 1106 c 2,45,-1
 563 459 l 2,46,47
 563 391 563 391 605 338 c 0,48,49
 652 279 652 279 724 279 c 2,50,-1
 824 279 l 1,51,-1
 824 487 l 1,25,-1
EndSplineSet
Validated: 1
EndChar

StartChar: j
Encoding: 106 106 83
Width: 1822
Flags: W
LayerCount: 2
Fore
SplineSet
562 278 m 1,0,-1
 798 278 l 1,1,-1
 798 487 l 1,2,-1
 972 487 l 1,3,-1
 972 278 l 1,4,-1
 1021 278 l 2,5,6
 1126 278 1126 278 1197 355 c 0,7,8
 1259 422 1259 422 1259 515 c 0,9,10
 1259 609 1259 609 1198 674 c 0,11,12
 1163 710 1163 710 1118.5 730.5 c 128,-1,13
 1074 751 1074 751 1022 751 c 2,14,-1
 562 751 l 1,15,-1
 562 278 l 1,0,-1
972 -46 m 1,16,-1
 1434 -46 l 1,17,-1
 1434 -221 l 1,18,-1
 798 -221 l 1,19,-1
 798 105 l 1,20,-1
 388 104 l 1,21,-1
 388 1459 l 1,22,-1
 981 1459 l 2,23,24
 1131 1459 1131 1459 1240 1350 c 1,25,26
 1339 1246 1339 1246 1339 1104 c 0,27,28
 1339 1027 1339 1027 1295.5 961.5 c 128,-1,29
 1252 896 1252 896 1178 856 c 1,30,31
 1288 814 1288 814 1363 714 c 0,32,33
 1433 620 1433 620 1433 515 c 0,34,35
 1433 344 1433 344 1313 224 c 0,36,37
 1252 163 1252 163 1180.5 133.5 c 128,-1,38
 1109 104 1109 104 1021 104 c 2,39,-1
 972 104 l 1,40,-1
 972 -46 l 1,16,-1
985 1285 m 2,41,-1
 562 1285 l 1,42,-1
 562 923 l 1,43,-1
 990 923 l 2,44,45
 1070 923 1070 923 1125 991 c 1,46,47
 1165 1043 1165 1043 1165 1104 c 0,48,49
 1165 1177 1165 1177 1111.5 1231 c 128,-1,50
 1058 1285 1058 1285 985 1285 c 2,41,-1
EndSplineSet
Validated: 1
EndChar

StartChar: n
Encoding: 110 110 84
Width: 1822
Flags: W
LayerCount: 2
Fore
SplineSet
1254 1564 m 1,0,-1
 1254 0 l 1,1,-1
 1090 0 l 1,2,-1
 1090 1564 l 1,3,-1
 1254 1564 l 1,0,-1
732 1564 m 1,4,-1
 732 0 l 1,5,-1
 568 0 l 1,6,-1
 568 1564 l 1,7,-1
 732 1564 l 1,4,-1
EndSplineSet
Validated: 1
EndChar

StartChar: o
Encoding: 111 111 85
Width: 1822
Flags: W
LayerCount: 2
Fore
SplineSet
1254 1563 m 1,0,-1
 1254 651 l 1,1,-1
 1479 651 l 1,2,-1
 1479 487 l 1,3,-1
 1254 487 l 1,4,-1
 1254 0 l 1,5,-1
 1090 0 l 1,6,-1
 1090 487 l 1,7,-1
 732 487 l 1,8,-1
 732 0 l 1,9,-1
 568 0 l 1,10,-1
 568 487 l 1,11,-1
 343 487 l 1,12,-1
 343 651 l 1,13,-1
 568 651 l 1,14,-1
 568 1563 l 1,15,-1
 732 1563 l 1,16,-1
 732 651 l 1,17,-1
 1090 651 l 1,18,-1
 1090 1563 l 1,19,-1
 1254 1563 l 1,0,-1
EndSplineSet
Validated: 1
EndChar

StartChar: p
Encoding: 112 112 86
Width: 1822
Flags: W
LayerCount: 2
Fore
SplineSet
358 1335 m 1,0,1
 472 1449 472 1449 616 1506 c 128,-1,2
 760 1563 760 1563 911 1563 c 0,3,4
 1061 1563 1061 1563 1204.5 1506 c 128,-1,5
 1348 1449 1348 1449 1463 1335 c 128,-1,6
 1578 1221 1578 1221 1635 1076.5 c 128,-1,7
 1692 932 1692 932 1692 782 c 0,8,9
 1692 633 1692 633 1635 488 c 128,-1,10
 1578 343 1578 343 1464.5 229.5 c 128,-1,11
 1351 116 1351 116 1206 58 c 128,-1,12
 1061 0 1061 0 911 0 c 0,13,14
 762 0 762 0 616.5 57 c 128,-1,15
 471 114 471 114 357.5 228.5 c 128,-1,16
 244 343 244 343 187 487 c 128,-1,17
 130 631 130 631 130 782 c 0,18,19
 130 932 130 932 187 1075.5 c 128,-1,20
 244 1219 244 1219 358 1335 c 1,0,1
424 418 m 1,21,-1
 788 782 l 1,22,-1
 424 1146 l 1,23,24
 304 984 304 984 304 782 c 0,25,26
 304 579 304 579 424 418 c 1,21,-1
547 1269 m 1,27,-1
 911 905 l 1,28,-1
 1275 1269 l 1,29,30
 1114 1389 1114 1389 911 1389 c 256,31,32
 708 1389 708 1389 547 1269 c 1,27,-1
1398 1146 m 1,33,-1
 1034 782 l 1,34,-1
 1398 418 l 1,35,36
 1518 577 1518 577 1518 782 c 0,37,38
 1518 982 1518 982 1398 1146 c 1,33,-1
1275 295 m 1,39,-1
 911 659 l 1,40,-1
 547 295 l 1,41,42
 707 174 707 174 911 174 c 256,43,44
 1115 174 1115 174 1275 295 c 1,39,-1
EndSplineSet
Validated: 1
EndChar

StartChar: q
Encoding: 113 113 87
Width: 1822
Flags: W
LayerCount: 2
Fore
SplineSet
1527 1129 m 1,0,1
 1612 1114 1612 1114 1652 1062 c 128,-1,2
 1692 1010 1692 1010 1692 953 c 0,3,4
 1692 889 1692 889 1651 836.5 c 128,-1,5
 1610 784 1610 784 1540 784 c 1,6,7
 1607 784 1607 784 1651 729 c 0,8,9
 1692 679 1692 679 1692 618 c 0,10,11
 1692 561 1692 561 1653 508 c 128,-1,12
 1614 455 1614 455 1526 435 c 1,13,14
 1565 501 1565 501 1565 562 c 0,15,16
 1565 607 1565 607 1546.5 636.5 c 128,-1,17
 1528 666 1528 666 1501.5 681 c 128,-1,18
 1475 696 1475 696 1454 696 c 2,19,-1
 999 696 l 1,20,-1
 999 238 l 2,21,22
 999 219 999 219 1009.5 196 c 128,-1,23
 1020 173 1020 173 1039.5 157.5 c 128,-1,24
 1059 142 1059 142 1081 134.5 c 128,-1,25
 1103 127 1103 127 1132 127 c 0,26,27
 1187 127 1187 127 1257 165 c 1,28,29
 1242 78 1242 78 1190.5 39 c 128,-1,30
 1139 0 1139 0 1081 0 c 0,31,32
 1017 0 1017 0 965 40.5 c 128,-1,33
 913 81 913 81 913 152 c 1,34,35
 913 117 913 117 899.5 90 c 128,-1,36
 886 63 886 63 858 40 c 0,37,38
 807 0 807 0 746 0 c 0,39,40
 689 0 689 0 635.5 39 c 128,-1,41
 582 78 582 78 563 166 c 1,42,43
 631 125 631 125 686 125 c 0,44,45
 745 125 745 125 780 155 c 1,46,47
 802 171 802 171 813.5 194.5 c 128,-1,48
 825 218 825 218 825 237 c 2,49,-1
 825 696 l 1,50,-1
 364 696 l 2,51,52
 345 696 345 696 319.5 682 c 128,-1,53
 294 668 294 668 278 645 c 0,54,55
 254 610 254 610 254 561 c 0,56,57
 254 503 254 503 294 435 c 1,58,59
 206 453 206 453 167.5 506.5 c 128,-1,60
 129 560 129 560 129 618 c 0,61,62
 129 680 129 680 169 730 c 0,63,64
 190 756 190 756 217 769.5 c 128,-1,65
 244 783 244 783 280 785 c 1,66,67
 244 787 244 787 216.5 799.5 c 128,-1,68
 189 812 189 812 168 839 c 0,69,70
 129 890 129 890 129 953 c 0,71,72
 129 1011 129 1011 167.5 1061.5 c 128,-1,73
 206 1112 206 1112 293 1129 c 1,74,75
 256 1061 256 1061 256 1008 c 0,76,77
 256 961 256 961 274 928 c 0,78,79
 289 899 289 899 315 884.5 c 128,-1,80
 341 870 341 870 366 870 c 2,81,-1
 825 870 l 1,82,-1
 825 1328 l 2,83,84
 825 1347 825 1347 814 1368 c 0,85,86
 800 1395 800 1395 774 1412 c 1,87,88
 738 1438 738 1438 689 1438 c 0,89,90
 634 1438 634 1438 563 1398 c 1,91,92
 581 1485 581 1485 635 1524.5 c 128,-1,93
 689 1564 689 1564 746 1564 c 0,94,95
 807 1564 807 1564 858 1522 c 1,96,97
 885 1502 885 1502 899 1474.5 c 128,-1,98
 913 1447 913 1447 913 1412 c 1,99,100
 913 1480 913 1480 966 1522 c 128,-1,101
 1019 1564 1019 1564 1081 1564 c 0,102,103
 1138 1564 1138 1564 1189.5 1524.5 c 128,-1,104
 1241 1485 1241 1485 1257 1399 c 1,105,106
 1189 1436 1189 1436 1131 1436 c 0,107,108
 1081 1436 1081 1436 1048 1412 c 1,109,110
 1024 1398 1024 1398 1011.5 1373.5 c 128,-1,111
 999 1349 999 1349 999 1326 c 2,112,-1
 999 870 l 1,113,-1
 1454 870 l 2,114,115
 1477 870 1477 870 1499 882 c 0,116,117
 1526 897 1526 897 1543 925 c 0,118,119
 1564 962 1564 962 1564 1006 c 0,120,121
 1564 1058 1564 1058 1527 1129 c 1,0,1
EndSplineSet
Validated: 1
EndChar

StartChar: r
Encoding: 114 114 88
Width: 1822
Flags: W
LayerCount: 2
Fore
SplineSet
911 1565 m 0,0,1
 1062 1565 1062 1565 1197.5 1510 c 128,-1,2
 1333 1455 1333 1455 1436 1361 c 0,3,4
 1553 1253 1553 1253 1622.5 1102 c 128,-1,5
 1692 951 1692 951 1692 782 c 0,6,7
 1692 700 1692 700 1677 625 c 128,-1,8
 1662 550 1662 550 1630 477 c 0,9,10
 1568 335 1568 335 1462.5 229.5 c 128,-1,11
 1357 124 1357 124 1214 62 c 128,-1,12
 1071 0 1071 0 911 0 c 0,13,14
 748 0 748 0 607 61 c 128,-1,15
 466 122 466 122 360 228.5 c 128,-1,16
 254 335 254 335 191 477 c 1,17,18
 162 546 162 546 146 624 c 128,-1,19
 130 702 130 702 130 782 c 0,20,21
 130 945 130 945 191.5 1086.5 c 128,-1,22
 253 1228 253 1228 359 1334 c 128,-1,23
 465 1440 465 1440 607 1502.5 c 128,-1,24
 749 1565 749 1565 911 1565 c 0,0,1
311 869 m 1,25,-1
 824 869 l 1,26,-1
 824 1384 l 1,27,28
 611 1354 611 1354 466 1194 c 1,29,30
 338 1056 338 1056 311 869 c 1,25,-1
998 1384 m 1,31,-1
 998 869 l 1,32,-1
 1512 869 l 1,33,34
 1482 1078 1482 1078 1323 1228 c 1,35,36
 1182 1357 1182 1357 998 1384 c 1,31,-1
1512 696 m 1,37,-1
 998 696 l 1,38,-1
 998 181 l 1,39,40
 1182 207 1182 207 1323 336 c 1,41,42
 1482 485 1482 485 1512 696 c 1,37,-1
824 181 m 1,43,-1
 824 696 l 1,44,-1
 311 696 l 1,45,46
 335 510 335 510 466 370 c 1,47,48
 612 211 612 211 824 181 c 1,43,-1
EndSplineSet
Validated: 1
EndChar

StartChar: uni0080
Encoding: 128 128 89
Width: 1822
Flags: W
LayerCount: 2
Fore
SplineSet
1263 505 m 1,0,1
 1409 359 1409 359 1409 153 c 0,2,3
 1409 -52 1409 -52 1264 -198 c 128,-1,4
 1119 -344 1119 -344 910 -344 c 0,5,6
 704 -344 704 -344 558.5 -198.5 c 128,-1,7
 413 -53 413 -53 413 153 c 0,8,9
 413 360 413 360 558 505 c 0,10,11
 663 610 663 610 829 646 c 1,12,-1
 829 1124 l 1,13,14
 753 1114 753 1114 686.5 1085.5 c 128,-1,15
 620 1057 620 1057 567 1014 c 1,16,-1
 911 1668 l 1,17,-1
 1255 1014 l 1,18,19
 1194 1061 1194 1061 1118 1092 c 1,20,21
 1088 1103 1088 1103 1059 1110.5 c 128,-1,22
 1030 1118 1030 1118 993 1124 c 1,23,-1
 993 646 l 1,24,25
 1158 612 1158 612 1263 505 c 1,0,1
1147 389 m 256,26,27
 1049 487 1049 487 912 487 c 0,28,29
 772 487 772 487 674.5 389.5 c 128,-1,30
 577 292 577 292 577 153 c 0,31,32
 577 15 577 15 674 -82.5 c 128,-1,33
 771 -180 771 -180 911 -180 c 0,34,35
 1049 -180 1049 -180 1147 -81.5 c 128,-1,36
 1245 17 1245 17 1245 153 c 0,37,38
 1245 291 1245 291 1147 389 c 256,26,27
912 276 m 0,39,40
 960 276 960 276 999 240 c 1,41,42
 1034 203 1034 203 1034 153 c 0,43,44
 1034 106 1034 106 1002 71 c 0,45,46
 966 30 966 30 912 30 c 256,47,48
 858 30 858 30 821 71 c 0,49,50
 789 106 789 106 789 153 c 0,51,52
 789 204 789 204 825 240 c 128,-1,53
 861 276 861 276 912 276 c 0,39,40
EndSplineSet
Validated: 1
EndChar

StartChar: c129
Encoding: 129 129 90
Width: 1822
Flags: W
LayerCount: 2
Fore
SplineSet
518 1390 m 1,0,-1
 518 815 l 1,1,-1
 1013 815 l 2,2,3
 1150 815 1150 815 1238 919 c 1,4,5
 1304 999 1304 999 1304 1103 c 0,6,7
 1304 1222 1304 1222 1219 1306 c 128,-1,8
 1134 1390 1134 1390 1013 1390 c 2,9,-1
 518 1390 l 1,0,-1
518 174 m 1,10,-1
 1447 174 l 1,11,-1
 1447 0 l 1,12,-1
 344 0 l 1,13,-1
 344 1564 l 1,14,-1
 1013 1564 l 2,15,16
 1191 1564 1191 1564 1325 1445 c 1,17,18
 1478 1307 1478 1307 1478 1103 c 0,19,20
 1478 918 1478 918 1350 784 c 0,21,22
 1213 641 1213 641 1016 641 c 2,23,-1
 518 641 l 1,24,-1
 518 174 l 1,10,-1
EndSplineSet
Validated: 1
EndChar

StartChar: uni0082
Encoding: 130 130 91
Width: 1822
Flags: W
LayerCount: 2
Fore
SplineSet
1691 890 m 0,0,1
 1691 732 1691 732 1643.5 591.5 c 128,-1,2
 1596 451 1596 451 1502 325 c 1,3,4
 1390 177 1390 177 1232 88.5 c 128,-1,5
 1074 0 1074 0 895 0 c 0,6,7
 742 0 742 0 609.5 61.5 c 128,-1,8
 477 123 477 123 375 231 c 1,9,10
 261 349 261 349 193 522 c 0,11,12
 161 605 161 605 146 696 c 128,-1,13
 131 787 131 787 131 887 c 0,14,15
 131 974 131 974 147 1050 c 1,16,17
 267 836 267 836 467.5 709 c 128,-1,18
 668 582 668 582 906 582 c 0,19,20
 1132 582 1132 582 1341 712 c 0,21,22
 1545 838 1545 838 1681 1052 c 1,23,24
 1691 981 1691 981 1691 890 c 0,0,1
910 1564 m 0,25,26
 1029 1564 1029 1564 1116 1484 c 0,27,28
 1216 1393 1216 1393 1216 1257 c 0,29,30
 1216 1124 1216 1124 1121 1035 c 0,31,32
 1031 950 1031 950 910 950 c 0,33,34
 775 950 775 950 684 1051 c 0,35,36
 604 1139 604 1139 604 1257 c 0,37,38
 604 1371 604 1371 679 1458 c 0,39,40
 770 1564 770 1564 910 1564 c 0,25,26
910 1457 m 0,41,42
 841 1457 841 1457 793 1398 c 128,-1,43
 745 1339 745 1339 745 1257 c 0,44,45
 745 1185 745 1185 782 1130 c 0,46,47
 832 1057 832 1057 910 1057 c 0,48,49
 981 1057 981 1057 1030 1119 c 0,50,51
 1076 1177 1076 1177 1076 1257 c 0,52,53
 1076 1338 1076 1338 1028 1397.5 c 128,-1,54
 980 1457 980 1457 910 1457 c 0,41,42
1595 784 m 1,55,56
 1444 587 1444 587 1232 486 c 1,57,58
 1059 407 1059 407 878 407 c 0,59,60
 693 407 693 407 515 510 c 1,61,62
 360 596 360 596 223 759 c 1,63,64
 300 502 300 502 483.5 342 c 128,-1,65
 667 182 667 182 887 182 c 0,66,67
 1124 182 1124 182 1312 332 c 0,68,69
 1511 491 1511 491 1595 784 c 1,55,56
EndSplineSet
Validated: 1
EndChar

StartChar: uni0083
Encoding: 131 131 92
Width: 1822
Flags: W
LayerCount: 2
Fore
SplineSet
913 1564 m 0,0,1
 986 1564 986 1564 1052 1552 c 128,-1,2
 1118 1540 1118 1540 1184 1516 c 0,3,4
 1304 1471 1304 1471 1408 1385 c 0,5,6
 1540 1275 1540 1275 1614 1122 c 0,7,8
 1692 962 1692 962 1692 782 c 0,9,10
 1692 624 1692 624 1633 482 c 128,-1,11
 1574 340 1574 340 1464 229 c 0,12,13
 1358 123 1358 123 1215.5 61.5 c 128,-1,14
 1073 0 1073 0 913 0 c 0,15,16
 751 0 751 0 610 61 c 128,-1,17
 469 122 469 122 360.5 229 c 128,-1,18
 252 336 252 336 191 478 c 128,-1,19
 130 620 130 620 130 782 c 0,20,21
 130 1082 130 1082 334 1307 c 0,22,23
 440 1424 440 1424 591.5 1494 c 128,-1,24
 743 1564 743 1564 913 1564 c 0,0,1
854 1387 m 1,25,26
 988 1277 988 1277 1063 1122 c 0,27,28
 1142 958 1142 958 1142 782 c 0,29,30
 1142 613 1142 613 1072 461 c 1,31,32
 997 293 997 293 854 177 c 1,33,-1
 913 174 l 1,34,35
 1053 174 1053 174 1174 233.5 c 128,-1,36
 1295 293 1295 293 1381 396 c 0,37,38
 1520 564 1520 564 1520 782 c 0,39,40
 1520 922 1520 922 1460 1044 c 128,-1,41
 1400 1166 1400 1166 1299 1251 c 1,42,43
 1215 1320 1215 1320 1119 1355 c 128,-1,44
 1023 1390 1023 1390 913 1390 c 1,45,-1
 854 1387 l 1,25,26
636 241 m 1,46,47
 783 315 783 315 875 460.5 c 128,-1,48
 967 606 967 606 967 782 c 256,49,50
 967 958 967 958 876 1102 c 128,-1,51
 785 1246 785 1246 636 1323 c 1,52,53
 487 1248 487 1248 395.5 1101.5 c 128,-1,54
 304 955 304 955 304 782 c 0,55,56
 304 631 304 631 376 497 c 1,57,58
 463 329 463 329 636 241 c 1,46,47
EndSplineSet
Validated: 1
EndChar

StartChar: uni0084
Encoding: 132 132 93
Width: 1822
Flags: W
LayerCount: 2
Fore
SplineSet
729 619 m 1,0,-1
 877 619 l 2,1,2
 962 619 962 619 1034 649.5 c 128,-1,3
 1106 680 1106 680 1169 741 c 0,4,5
 1289 857 1289 857 1289 1019 c 0,6,7
 1289 1184 1289 1184 1163 1301.5 c 128,-1,8
 1037 1419 1037 1419 862 1419 c 0,9,10
 719 1419 719 1419 606 1339 c 128,-1,11
 493 1259 493 1259 453 1137 c 1,12,-1
 361 1101 l 1,13,14
 397 1324 397 1324 585 1460 c 1,15,16
 727 1564 727 1564 907 1564 c 0,17,18
 1117 1564 1117 1564 1278 1420 c 1,19,20
 1460 1255 1460 1255 1460 1011 c 0,21,22
 1460 780 1460 780 1293 616 c 0,23,24
 1212 536 1212 536 1112.5 497 c 128,-1,25
 1013 458 1013 458 897 458 c 1,26,-1
 897 285 l 1,27,-1
 1114 285 l 1,28,-1
 1114 141 l 1,29,-1
 897 141 l 1,30,-1
 897 -103 l 1,31,-1
 729 -103 l 1,32,-1
 729 141 l 1,33,-1
 514 141 l 1,34,-1
 514 285 l 1,35,-1
 729 285 l 1,36,-1
 729 619 l 1,0,-1
EndSplineSet
Validated: 1
EndChar

StartChar: uni0085
Encoding: 133 133 94
Width: 1822
Flags: W
LayerCount: 2
Fore
SplineSet
1249 135 m 1,0,-1
 995 135 l 1,1,-1
 995 -103 l 1,2,-1
 827 -103 l 1,3,-1
 827 135 l 1,4,-1
 573 135 l 1,5,-1
 573 276 l 1,6,-1
 827 276 l 1,7,-1
 827 515 l 1,8,-1
 376 999 l 1,9,-1
 902 1563 l 1,10,-1
 1445 998 l 1,11,-1
 995 518 l 1,12,-1
 995 276 l 1,13,-1
 1249 276 l 1,14,-1
 1249 135 l 1,0,-1
910 672 m 1,15,-1
 1206 997 l 1,16,-1
 906 1317 l 1,17,-1
 616 997 l 1,18,-1
 910 672 l 1,15,-1
EndSplineSet
Validated: 1
EndChar

StartChar: uni0086
Encoding: 134 134 95
Width: 1822
Flags: W
LayerCount: 2
Fore
SplineSet
1216 111 m 1,0,-1
 990 111 l 1,1,-1
 990 -103 l 1,2,-1
 830 -103 l 1,3,-1
 830 111 l 1,4,-1
 604 111 l 1,5,-1
 604 254 l 1,6,-1
 830 254 l 1,7,-1
 830 775 l 1,8,-1
 531 477 l 1,9,-1
 430 578 l 1,10,-1
 737 885 l 1,11,-1
 303 885 l 1,12,-1
 303 1029 l 1,13,-1
 737 1029 l 1,14,-1
 430 1336 l 1,15,-1
 531 1437 l 1,16,-1
 838 1130 l 1,17,-1
 838 1564 l 1,18,-1
 982 1564 l 1,19,-1
 982 1130 l 1,20,-1
 1289 1437 l 1,21,-1
 1390 1336 l 1,22,-1
 1083 1029 l 1,23,-1
 1518 1029 l 1,24,-1
 1518 885 l 1,25,-1
 1083 885 l 1,26,-1
 1390 578 l 1,27,-1
 1289 477 l 1,28,-1
 990 775 l 1,29,-1
 990 254 l 1,30,-1
 1216 254 l 1,31,-1
 1216 111 l 1,0,-1
EndSplineSet
Validated: 1
EndChar

StartChar: uni0087
Encoding: 135 135 96
Width: 1822
Flags: W
LayerCount: 2
Fore
SplineSet
130 516 m 1,0,-1
 576 516 l 1,1,-1
 911 141 l 1,2,-1
 1239 516 l 1,3,-1
 1692 516 l 1,4,-1
 1692 342 l 1,5,-1
 1316 342 l 1,6,-1
 911 -103 l 1,7,-1
 506 342 l 1,8,-1
 130 342 l 1,9,-1
 130 516 l 1,0,-1
911 1564 m 1,10,-1
 1047 1337 l 1,11,-1
 911 1186 l 1,12,-1
 911 955 l 1,13,-1
 775 1186 l 1,14,-1
 911 1327 l 1,15,-1
 911 1564 l 1,10,-1
314 1103 m 1,16,-1
 580 1103 l 1,17,-1
 911 728 l 1,18,-1
 1243 1103 l 1,19,-1
 1507 1103 l 1,20,-1
 1507 929 l 1,21,-1
 1320 929 l 1,22,-1
 911 481 l 1,23,-1
 510 929 l 1,24,-1
 314 929 l 1,25,-1
 314 1103 l 1,16,-1
EndSplineSet
Validated: 1
EndChar

StartChar: uni0088
Encoding: 136 136 97
Width: 1822
Flags: W
LayerCount: 2
Fore
SplineSet
677 599 m 2,0,-1
 829 599 l 1,1,-1
 829 1668 l 1,2,-1
 993 1668 l 1,3,-1
 993 1333 l 1,4,-1
 1328 1668 l 1,5,-1
 1443 1552 l 1,6,-1
 1143 1252 l 1,7,-1
 1444 951 l 1,8,-1
 1328 835 l 1,9,-1
 993 1170 l 1,10,-1
 993 599 l 1,11,-1
 1144 599 l 2,12,13
 1272 599 1272 599 1365 479 c 0,14,15
 1443 377 1443 377 1443 249 c 0,16,17
 1443 117 1443 117 1373 17 c 0,18,19
 1289 -103 1289 -103 1144 -103 c 2,20,-1
 677 -103 l 2,21,22
 527 -103 527 -103 440 30 c 1,23,24
 378 127 378 127 378 249 c 0,25,26
 378 357 378 357 438 453 c 0,27,28
 528 599 528 599 677 599 c 2,0,-1
709 435 m 2,29,30
 641 435 641 435 591.5 390 c 128,-1,31
 542 345 542 345 542 284 c 2,32,-1
 542 211 l 2,33,34
 542 150 542 150 591.5 105 c 128,-1,35
 641 60 641 60 709 60 c 2,36,-1
 1112 60 l 2,37,38
 1182 60 1182 60 1230.5 105 c 128,-1,39
 1279 150 1279 150 1279 211 c 2,40,-1
 1279 284 l 2,41,42
 1279 343 1279 343 1230 391 c 1,43,44
 1181 435 1181 435 1112 435 c 2,45,-1
 709 435 l 2,29,30
EndSplineSet
Validated: 1
EndChar

StartChar: uni0089
Encoding: 137 137 98
Width: 1822
Flags: W
LayerCount: 2
Fore
SplineSet
179 161 m 1,0,-1
 489 161 l 1,1,-1
 489 1403 l 1,2,-1
 178 1403 l 1,3,-1
 178 1564 l 1,4,-1
 653 1564 l 1,5,-1
 653 0 l 1,6,-1
 179 0 l 1,7,-1
 179 161 l 1,0,-1
1642 161 m 1,8,-1
 1642 0 l 1,9,-1
 1168 0 l 1,10,-1
 1168 1564 l 1,11,-1
 1643 1564 l 1,12,-1
 1643 1403 l 1,13,-1
 1332 1403 l 1,14,-1
 1332 161 l 1,15,-1
 1642 161 l 1,8,-1
907 929 m 0,16,17
 964 929 964 929 1006 891 c 1,18,19
 1054 846 1054 846 1054 782 c 256,20,21
 1054 718 1054 718 1006 674 c 0,22,23
 964 635 964 635 907 635 c 0,24,25
 841 635 841 635 800.5 680.5 c 128,-1,26
 760 726 760 726 760 782 c 0,27,28
 760 840 760 840 803 886 c 1,29,30
 848 929 848 929 907 929 c 0,16,17
EndSplineSet
Validated: 1
EndChar

StartChar: c142
Encoding: 142 142 99
AltUni2: 00017d.ffffffff.0
Width: 1822
Flags: W
LayerCount: 2
Fore
SplineSet
1479 1668 m 1,0,-1
 448 -103 l 1,1,-1
 307 -103 l 1,2,-1
 1337 1668 l 1,3,-1
 1479 1668 l 1,0,-1
385 1040 m 1,4,5
 446 1049 446 1049 446 1099 c 2,6,-1
 446 1466 l 1,7,-1
 308 1466 l 1,8,-1
 308 1533 l 1,9,10
 377 1546 377 1546 424 1575 c 0,11,12
 491 1616 491 1616 491 1668 c 1,13,-1
 568 1668 l 1,14,-1
 568 1099 l 2,15,16
 568 1057 568 1057 613 1043 c 0,17,18
 640 1035 640 1035 673 1035 c 1,19,-1
 673 948 l 1,20,-1
 308 948 l 1,21,-1
 308 1035 l 1,22,-1
 346 1036 l 2,23,24
 374 1036 374 1036 385 1040 c 1,4,5
1280 -103 m 0,25,26
 1203 -103 1203 -103 1144 -65 c 128,-1,27
 1085 -27 1085 -27 1061 32 c 1,28,-1
 1164 83 l 1,29,30
 1188 14 1188 14 1274 14 c 0,31,32
 1390 14 1390 14 1390 113 c 0,33,34
 1390 162 1390 162 1352 185 c 0,35,36
 1332 198 1332 198 1313 204.5 c 128,-1,37
 1294 211 1294 211 1272 211 c 2,38,-1
 1233 211 l 1,39,-1
 1185 312 l 1,40,-1
 1272 312 l 2,41,42
 1314 312 1314 312 1352 336.5 c 128,-1,43
 1390 361 1390 361 1390 410 c 0,44,45
 1390 508 1390 508 1274 508 c 0,46,47
 1203 508 1203 508 1172 455 c 1,48,-1
 1063 496 l 1,49,50
 1088 553 1088 553 1146.5 589.5 c 128,-1,51
 1205 626 1205 626 1280 626 c 0,52,53
 1324 626 1324 626 1359 615 c 128,-1,54
 1394 604 1394 604 1428 579 c 0,55,56
 1514 516 1514 516 1514 419 c 0,57,58
 1514 324 1514 324 1433 261 c 1,59,60
 1514 198 1514 198 1514 104 c 0,61,62
 1514 21 1514 21 1444.5 -41 c 128,-1,63
 1375 -103 1375 -103 1280 -103 c 0,25,26
EndSplineSet
Validated: 1
EndChar

StartChar: c144
Encoding: 144 144 100
Width: 1822
Flags: W
LayerCount: 2
Fore
SplineSet
130 1324 m 1,0,-1
 396 1324 l 1,1,-1
 396 1244 l 1,2,3
 364 1244 364 1244 342 1225 c 1,4,5
 328 1211 328 1211 328 1194 c 0,6,7
 328 1188 328 1188 329 1184 c 2,8,-1
 489 429 l 1,9,-1
 660 1179 l 2,10,11
 662 1191 662 1191 662 1195 c 0,12,13
 662 1212 662 1212 650 1226 c 0,14,15
 633 1244 633 1244 596 1244 c 1,16,-1
 596 1324 l 1,17,-1
 806 1324 l 1,18,-1
 806 1244 l 1,19,20
 776 1244 776 1244 762 1231 c 1,21,22
 747 1220 747 1220 741 1193 c 2,23,-1
 469 0 l 1,24,-1
 446 0 l 1,25,-1
 192 1198 l 2,26,27
 189 1213 189 1213 170.5 1228.5 c 128,-1,28
 152 1244 152 1244 130 1244 c 1,29,-1
 130 1324 l 1,0,-1
1001 76 m 0,30,31
 1016 59 1016 59 1049 59 c 1,32,-1
 1049 0 l 1,33,-1
 830 0 l 1,34,-1
 830 59 l 1,35,36
 856 59 856 59 877 73 c 1,37,38
 892 85 892 85 892 105 c 2,39,-1
 892 820 l 1,40,-1
 814 820 l 2,41,42
 795 820 795 820 786 811 c 1,43,44
 777 804 777 804 771 784 c 1,45,-1
 758 721 l 1,46,-1
 708 721 l 1,47,-1
 753 941 l 1,48,-1
 801 941 l 1,49,50
 798 926 798 926 813 920 c 0,51,52
 817 918 817 918 833.5 918 c 128,-1,53
 850 918 850 918 859 918 c 2,54,-1
 1094 918 l 2,55,56
 1115 918 1115 918 1122 941 c 1,57,-1
 1170 941 l 1,58,-1
 1170 721 l 1,59,-1
 1122 721 l 1,60,-1
 1122 782 l 2,61,62
 1122 795 1122 795 1111 808 c 1,63,64
 1103 815 1103 815 1096.5 817.5 c 128,-1,65
 1090 820 1090 820 1084 820 c 2,66,-1
 989 820 l 1,67,-1
 989 105 l 2,68,69
 989 90 989 90 1001 76 c 0,30,31
1504 510 m 1,70,-1
 1637 104 l 2,71,72
 1646 76 1646 76 1653 71 c 0,73,74
 1668 59 1668 59 1691 59 c 1,75,-1
 1691 0 l 1,76,-1
 1481 0 l 1,77,-1
 1481 59 l 1,78,79
 1504 59 1504 59 1522 77 c 0,80,81
 1533 88 1533 88 1533 104 c 0,82,83
 1533 114 1533 114 1531 119 c 2,84,-1
 1449 366 l 1,85,-1
 1347 101 l 2,86,87
 1344 93 1344 93 1344 87 c 0,88,89
 1344 80 1344 80 1350 72 c 0,90,91
 1361 59 1361 59 1384 59 c 1,92,-1
 1384 0 l 1,93,-1
 1210 0 l 1,94,-1
 1210 59 l 1,95,96
 1231 59 1231 59 1249 71 c 0,97,98
 1258 77 1258 77 1265 93 c 2,99,-1
 1413 475 l 1,100,-1
 1289 847 l 2,101,102
 1285 860 1285 860 1268 872 c 1,103,104
 1249 883 1249 883 1220 883 c 1,105,-1
 1220 942 l 1,106,-1
 1432 942 l 1,107,-1
 1432 883 l 1,108,109
 1411 883 1411 883 1401 875.5 c 128,-1,110
 1391 868 1391 868 1391 859 c 0,111,112
 1391 853 1391 853 1394 847 c 2,113,-1
 1468 620 l 1,114,-1
 1552 836 l 2,115,116
 1557 851 1557 851 1544 867 c 128,-1,117
 1531 883 1531 883 1508 883 c 1,118,-1
 1508 942 l 1,119,-1
 1691 942 l 1,120,-1
 1691 883 l 1,121,122
 1663 883 1663 883 1651 872 c 1,123,124
 1643 867 1643 867 1637 853 c 2,125,-1
 1504 510 l 1,70,-1
EndSplineSet
Validated: 1
EndChar

StartChar: uni0091
Encoding: 145 145 101
Width: 1822
Flags: W
LayerCount: 2
Fore
SplineSet
375 1227 m 1,0,-1
 375 633 l 1,1,2
 419 633 419 633 460 656.5 c 128,-1,3
 501 680 501 680 539 725 c 1,4,5
 612 815 612 815 612 931 c 0,6,7
 612 1045 612 1045 553 1128 c 0,8,9
 484 1227 484 1227 375 1227 c 1,0,-1
115 83 m 1,10,11
 168 83 168 83 193.5 99 c 128,-1,12
 219 115 219 115 219 143 c 2,13,-1
 219 1181 l 2,14,15
 219 1212 219 1212 182 1230 c 1,16,17
 152 1242 152 1242 115 1242 c 1,18,-1
 115 1324 l 1,19,-1
 433 1324 l 2,20,21
 477 1324 477 1324 515.5 1312.5 c 128,-1,22
 554 1301 554 1301 585 1279 c 0,23,24
 641 1239 641 1239 689 1173 c 1,25,26
 766 1060 766 1060 766 943 c 0,27,28
 766 754 766 754 663 636 c 1,29,30
 608 575 608 575 540 543 c 0,31,32
 464 507 464 507 375 507 c 1,33,-1
 375 142 l 2,34,35
 375 119 375 119 390 102 c 1,36,37
 412 83 412 83 481 83 c 1,38,-1
 481 0 l 1,39,-1
 115 0 l 1,40,-1
 115 83 l 1,10,11
1014 915 m 1,41,-1
 1233 0 l 1,42,-1
 1052 0 l 1,43,-1
 1052 56 l 1,44,45
 1075 56 1075 56 1085.5 66.5 c 128,-1,46
 1096 77 1096 77 1094 94 c 1,47,-1
 1034 333 l 1,48,-1
 843 333 l 1,49,-1
 782 101 l 2,50,51
 780 91 780 91 780 88 c 0,52,53
 780 76 780 76 792.5 65.5 c 128,-1,54
 805 55 805 55 843 55 c 1,55,-1
 843 0 l 1,56,-1
 636 0 l 1,57,-1
 636 55 l 1,58,59
 663 55 663 55 682 68 c 1,60,61
 697 77 697 77 703 97 c 2,62,-1
 926 915 l 1,63,-1
 1014 915 l 1,41,-1
942 700 m 1,64,-1
 860 398 l 1,65,-1
 1018 398 l 1,66,-1
 942 700 l 1,64,-1
1691 692 m 1,67,-1
 1665 686 l 1,68,69
 1648 772 1648 772 1615 815 c 0,70,71
 1595 841 1595 841 1572 854.5 c 128,-1,72
 1549 868 1549 868 1519 868 c 0,73,74
 1484 868 1484 868 1460.5 851 c 128,-1,75
 1437 834 1437 834 1422 795 c 0,76,77
 1415 779 1415 779 1412 764.5 c 128,-1,78
 1409 750 1409 750 1409 734 c 0,79,80
 1409 692 1409 692 1437 650 c 0,81,82
 1460 617 1460 617 1491 589 c 1,83,-1
 1553 539 l 2,84,85
 1570 525 1570 525 1576.5 519.5 c 128,-1,86
 1583 514 1583 514 1612 485 c 1,87,88
 1640 459 1640 459 1661 416 c 1,89,90
 1691 350 1691 350 1691 270 c 0,91,92
 1691 162 1691 162 1637 85 c 1,93,94
 1575 0 1575 0 1469 0 c 0,95,96
 1405 0 1405 0 1345 25 c 1,97,-1
 1292 254 l 1,98,-1
 1372 235 l 1,99,100
 1364 213 1364 213 1364 194 c 0,101,102
 1364 166 1364 166 1381 138 c 1,103,104
 1416 74 1416 74 1482 74 c 0,105,106
 1532 74 1532 74 1568 123 c 1,107,108
 1595 162 1595 162 1595 205 c 0,109,110
 1595 251 1595 251 1564 300 c 1,111,112
 1542 332 1542 332 1510 361 c 2,113,-1
 1449 414 l 1,114,115
 1418 438 1418 438 1390.5 464.5 c 128,-1,116
 1363 491 1363 491 1343 528 c 1,117,118
 1307 600 1307 600 1307 673 c 0,119,120
 1307 742 1307 742 1338 808 c 0,121,122
 1394 927 1394 927 1531 927 c 0,123,124
 1605 927 1605 927 1691 890 c 1,125,-1
 1691 692 l 1,67,-1
EndSplineSet
Validated: 1
EndChar

StartChar: uni0092
Encoding: 146 146 102
Width: 1822
Flags: W
LayerCount: 2
Fore
SplineSet
504 1324 m 0,0,1
 643 1324 643 1324 733 1198 c 1,2,-1
 733 915 l 1,3,-1
 692 908 l 1,4,5
 677 1043 677 1043 635 1121 c 0,6,7
 576 1232 576 1232 503 1232 c 0,8,9
 400 1232 400 1232 332 1025 c 0,10,11
 281 869 281 869 281 665 c 0,12,13
 281 488 281 488 319 349 c 0,14,15
 350 233 350 233 402.5 165.5 c 128,-1,16
 455 98 455 98 503 98 c 0,17,18
 580 98 580 98 643 226 c 0,19,20
 661 263 661 263 672 312.5 c 128,-1,21
 683 362 683 362 683 423 c 1,22,-1
 732 409 l 1,23,-1
 732 134 l 1,24,25
 697 80 697 80 636.5 40 c 128,-1,26
 576 0 576 0 504 0 c 0,27,28
 429 0 429 0 341.5 72.5 c 128,-1,29
 254 145 254 145 204 266 c 0,30,31
 130 444 130 444 130 662 c 0,32,33
 130 898 130 898 215 1083 c 0,34,35
 266 1193 266 1193 349 1258.5 c 128,-1,36
 432 1324 432 1324 504 1324 c 0,0,1
1691 703 m 1,37,-1
 1665 696 l 1,38,39
 1650 788 1650 788 1624 828 c 0,40,41
 1593 876 1593 876 1540 881 c 1,42,43
 1482 881 1482 881 1455 807 c 0,44,45
 1444 774 1444 774 1444 745 c 0,46,47
 1444 700 1444 700 1469 660 c 1,48,49
 1490 624 1490 624 1516 598 c 1,50,-1
 1570 547 l 2,51,52
 1597 522 1597 522 1621 494 c 128,-1,53
 1645 466 1645 466 1665 422 c 1,54,55
 1691 359 1691 359 1691 275 c 0,56,57
 1691 214 1691 214 1680 173 c 0,58,59
 1635 0 1635 0 1496 0 c 0,60,61
 1444 0 1444 0 1389 26 c 1,62,-1
 1334 263 l 1,63,-1
 1412 239 l 1,64,65
 1404 217 1404 217 1404 197 c 0,66,67
 1404 170 1404 170 1420 140 c 1,68,69
 1451 75 1451 75 1509 75 c 0,70,71
 1552 75 1552 75 1583 125 c 1,72,73
 1608 163 1608 163 1608 208 c 0,74,75
 1608 255 1608 255 1580 305 c 0,76,77
 1561 340 1561 340 1533 367 c 2,78,-1
 1479 420 l 1,79,80
 1452 444 1452 444 1428 471 c 128,-1,81
 1404 498 1404 498 1387 536 c 0,82,83
 1355 611 1355 611 1355 684 c 0,84,85
 1355 751 1355 751 1382 820 c 0,86,87
 1430 941 1430 941 1551 941 c 0,88,89
 1615 941 1615 941 1691 903 c 1,90,-1
 1691 703 l 1,37,-1
1094 929 m 1,91,-1
 1287 0 l 1,92,-1
 1128 0 l 1,93,-1
 1128 57 l 1,94,95
 1146 57 1146 57 1156.5 67.5 c 128,-1,96
 1167 78 1167 78 1165 95 c 1,97,-1
 1112 339 l 1,98,-1
 945 338 l 1,99,-1
 891 103 l 2,100,101
 890 98 890 98 890 90 c 0,102,103
 890 77 890 77 900.5 66.5 c 128,-1,104
 911 56 911 56 945 56 c 1,105,-1
 945 0 l 1,106,-1
 764 0 l 1,107,-1
 764 56 l 1,108,109
 788 56 788 56 804 69 c 1,110,111
 816 81 816 81 822 99 c 1,112,-1
 1017 929 l 1,113,-1
 1094 929 l 1,91,-1
1032 711 m 1,114,-1
 960 404 l 1,115,-1
 1098 404 l 1,116,-1
 1032 711 l 1,114,-1
EndSplineSet
Validated: 1
EndChar

StartChar: uni0093
Encoding: 147 147 103
Width: 1822
Flags: W
LayerCount: 2
Fore
SplineSet
337 1207 m 1,0,-1
 337 114 l 2,1,2
 337 106 337 106 343 95 c 1,3,4
 350 86 350 86 360 85 c 1,5,6
 441 85 441 85 492 158 c 128,-1,7
 543 231 543 231 575 333 c 1,8,9
 602 426 602 426 614 522 c 128,-1,10
 626 618 626 618 626 680 c 0,11,12
 626 709 626 709 623 746.5 c 128,-1,13
 620 784 620 784 613 835 c 0,14,15
 601 930 601 930 570.5 1018.5 c 128,-1,16
 540 1107 540 1107 488 1169.5 c 128,-1,17
 436 1232 436 1232 360 1232 c 1,18,19
 350 1231 350 1231 344 1225 c 1,20,21
 335 1219 335 1219 337 1207 c 1,0,-1
444 1324 m 2,22,23
 531 1324 531 1324 600.5 1252 c 128,-1,24
 670 1180 670 1180 717 1058 c 1,25,26
 747 974 747 974 764.5 861 c 128,-1,27
 782 748 782 748 782 662 c 0,28,29
 782 468 782 468 716 273 c 1,30,31
 677 161 677 161 611 80.5 c 128,-1,32
 545 0 545 0 444 0 c 2,33,-1
 120 0 l 1,34,-1
 120 76 l 1,35,36
 151 76 151 76 172 93 c 128,-1,37
 193 110 193 110 193 140 c 2,38,-1
 193 1187 l 2,39,40
 193 1213 193 1213 173 1230.5 c 128,-1,41
 153 1248 153 1248 120 1248 c 1,42,-1
 120 1324 l 1,43,-1
 444 1324 l 2,22,23
1536 947 m 0,44,45
 1629 947 1629 947 1691 857 c 1,46,-1
 1691 655 l 1,47,-1
 1661 646 l 1,48,49
 1652 748 1652 748 1625 802 c 0,50,51
 1592 867 1592 867 1535 867 c 0,52,53
 1466 867 1466 867 1436 717 c 0,54,55
 1417 619 1417 619 1417 483 c 0,56,57
 1417 351 1417 351 1433 259 c 1,58,59
 1460 85 1460 85 1535 85 c 0,60,61
 1595 85 1595 85 1631 161 c 0,62,63
 1644 190 1644 190 1651 224.5 c 128,-1,64
 1658 259 1658 259 1658 303 c 1,65,-1
 1691 293 l 1,66,-1
 1691 96 l 1,67,68
 1631 0 1631 0 1536 0 c 0,69,70
 1406 0 1406 0 1328 200 c 1,71,72
 1281 324 1281 324 1281 474 c 0,73,74
 1281 629 1281 629 1332 757 c 0,75,76
 1407 947 1407 947 1536 947 c 0,44,45
989 804 m 2,77,-1
 989 612 l 2,78,79
 989 572 989 572 1015 549 c 0,80,81
 1037 529 1037 529 1069 529 c 0,82,83
 1098 529 1098 529 1119 554.5 c 128,-1,84
 1140 580 1140 580 1140 612 c 2,85,-1
 1140 640 l 1,86,-1
 1200 640 l 1,87,-1
 1200 347 l 1,88,-1
 1140 347 l 1,89,-1
 1140 376 l 2,90,91
 1140 404 1140 404 1122 431 c 1,92,93
 1099 459 1099 459 1068 459 c 0,94,95
 1034 459 1034 459 1014 443 c 1,96,97
 989 421 989 421 989 384 c 2,98,-1
 989 140 l 2,99,100
 989 103 989 103 1004 86.5 c 128,-1,101
 1019 70 1019 70 1054 70 c 2,102,-1
 1113 70 l 2,103,104
 1142 70 1142 70 1160 89 c 1,105,106
 1171 99 1171 99 1176 112 c 0,107,108
 1177 115 1177 115 1183 134 c 2,109,-1
 1197 178 l 1,110,-1
 1253 160 l 1,111,-1
 1219 0 l 1,112,-1
 811 0 l 1,113,-1
 811 70 l 1,114,115
 835 70 835 70 857.5 90 c 128,-1,116
 880 110 880 110 880 139 c 2,117,-1
 880 804 l 2,118,119
 880 825 880 825 871 840.5 c 128,-1,120
 862 856 862 856 846 867 c 1,121,-1
 845 947 l 1,122,-1
 1220 947 l 1,123,-1
 1253 788 l 1,124,-1
 1197 770 l 1,125,-1
 1188 807 l 1,126,127
 1182 837 1182 837 1159.5 857 c 128,-1,128
 1137 877 1137 877 1113 877 c 2,129,-1
 1048 877 l 2,130,131
 1020 877 1020 877 1004.5 859.5 c 128,-1,132
 989 842 989 842 989 804 c 2,77,-1
EndSplineSet
Validated: 1
EndChar

StartChar: uni0094
Encoding: 148 148 104
Width: 1822
Flags: W
LayerCount: 2
Fore
SplineSet
1402 1307 m 0,0,1
 1466 1307 1466 1307 1536.5 1276.5 c 128,-1,2
 1607 1246 1607 1246 1658 1183 c 1,3,-1
 1658 903 l 1,4,-1
 1606 898 l 1,5,6
 1597 961 1597 961 1586 1011 c 128,-1,7
 1575 1061 1575 1061 1549 1107 c 1,8,9
 1483 1216 1483 1216 1402 1216 c 0,10,11
 1351 1216 1351 1216 1294 1155 c 128,-1,12
 1237 1094 1237 1094 1204 991 c 1,13,14
 1154 840 1154 840 1154 656 c 0,15,16
 1154 476 1154 476 1200 334 c 1,17,18
 1233 227 1233 227 1290 162.5 c 128,-1,19
 1347 98 1347 98 1402 98 c 0,20,21
 1489 98 1489 98 1558 223 c 0,22,23
 1579 263 1579 263 1591 310.5 c 128,-1,24
 1603 358 1603 358 1603 418 c 1,25,-1
 1658 404 l 1,26,-1
 1658 132 l 1,27,28
 1617 78 1617 78 1540.5 39 c 128,-1,29
 1464 0 1464 0 1402 0 c 0,30,31
 1293 0 1293 0 1204 78 c 128,-1,32
 1115 156 1115 156 1057 289 c 0,33,34
 1026 361 1026 361 1005.5 455 c 128,-1,35
 985 549 985 549 985 654 c 0,36,37
 985 886 985 886 1081 1069 c 0,38,39
 1138 1178 1138 1178 1221.5 1242.5 c 128,-1,40
 1305 1307 1305 1307 1402 1307 c 0,0,1
356 1178 m 2,41,-1
 356 112 l 2,42,43
 356 99 356 99 363 92 c 128,-1,44
 370 85 370 85 380 83 c 1,45,46
 467 83 467 83 522 154 c 128,-1,47
 577 225 577 225 611 325 c 0,48,49
 639 410 639 410 652.5 506.5 c 128,-1,50
 666 603 666 603 666 664 c 0,51,52
 666 696 666 696 662.5 731.5 c 128,-1,53
 659 767 659 767 651 816 c 1,54,55
 639 911 639 911 606 994 c 0,56,57
 588 1039 588 1039 567 1074 c 128,-1,58
 546 1109 546 1109 517 1141 c 0,59,60
 463 1203 463 1203 380 1203 c 1,61,62
 370 1202 370 1202 363 1196 c 128,-1,63
 356 1190 356 1190 356 1178 c 2,41,-1
472 1293 m 2,64,65
 561 1293 561 1293 634.5 1221.5 c 128,-1,66
 708 1150 708 1150 755 1033 c 1,67,68
 786 953 786 953 804 843.5 c 128,-1,69
 822 734 822 734 822 647 c 0,70,71
 822 557 822 557 806.5 462 c 128,-1,72
 791 367 791 367 753 262 c 128,-1,73
 715 157 715 157 645.5 78.5 c 128,-1,74
 576 0 576 0 471 0 c 2,75,-1
 135 0 l 1,76,-1
 135 75 l 1,77,78
 166 75 166 75 188 91.5 c 128,-1,79
 210 108 210 108 210 137 c 2,80,-1
 210 1159 l 2,81,82
 210 1187 210 1187 187 1204 c 1,83,84
 165 1218 165 1218 135 1218 c 1,85,-1
 135 1292 l 1,86,-1
 472 1293 l 2,64,65
EndSplineSet
Validated: 1
EndChar

StartChar: uni0095
Encoding: 149 149 105
Width: 1822
Flags: W
LayerCount: 2
Fore
SplineSet
1302 1227 m 1,0,-1
 1302 633 l 1,1,2
 1346 633 1346 633 1387 656.5 c 128,-1,3
 1428 680 1428 680 1466 725 c 0,4,5
 1540 813 1540 813 1540 931 c 0,6,7
 1540 1042 1540 1042 1481 1128 c 1,8,9
 1410 1227 1410 1227 1302 1227 c 1,0,-1
1049 83 m 1,10,11
 1102 83 1102 83 1128 99.5 c 128,-1,12
 1154 116 1154 116 1162 143 c 1,13,-1
 1162 1181 l 1,14,15
 1154 1211 1154 1211 1116 1230 c 1,16,17
 1086 1242 1086 1242 1050 1242 c 1,18,-1
 1050 1324 l 1,19,-1
 1368 1324 l 2,20,21
 1412 1324 1412 1324 1450.5 1312.5 c 128,-1,22
 1489 1301 1489 1301 1520 1279 c 0,23,24
 1577 1239 1577 1239 1623 1173 c 0,25,26
 1700 1063 1700 1063 1700 944 c 0,27,28
 1700 754 1700 754 1597 636 c 1,29,30
 1543 576 1543 576 1470.5 541.5 c 128,-1,31
 1398 507 1398 507 1309 507 c 1,32,-1
 1309 143 l 2,33,34
 1309 117 1309 117 1324 103 c 0,35,36
 1346 83 1346 83 1415 83 c 1,37,-1
 1415 0 l 1,38,-1
 1049 0 l 1,39,-1
 1049 83 l 1,10,11
855 140 m 2,40,41
 861 109 861 109 880.5 95 c 128,-1,42
 900 81 900 81 925 81 c 1,43,-1
 925 0 l 1,44,-1
 655 0 l 1,45,-1
 655 81 l 1,46,47
 683 81 683 81 697 98 c 1,48,49
 711 112 711 112 708 136 c 1,50,-1
 630 482 l 1,51,-1
 388 482 l 1,52,-1
 311 146 l 2,53,54
 308 135 308 135 308 126 c 0,55,56
 308 109 308 109 321 97 c 0,57,58
 340 80 340 80 388 80 c 1,59,-1
 388 0 l 1,60,-1
 125 0 l 1,61,-1
 125 80 l 1,62,63
 161 80 161 80 184 99 c 1,64,65
 201 110 201 110 210 141 c 1,66,-1
 494 1324 l 1,67,-1
 605 1324 l 1,68,-1
 855 140 l 2,40,41
515 1013 m 1,69,-1
 410 576 l 1,70,-1
 611 576 l 1,71,-1
 515 1013 l 1,69,-1
EndSplineSet
Validated: 1
EndChar

StartChar: uni0096
Encoding: 150 150 106
Width: 1822
Flags: W
LayerCount: 2
Fore
SplineSet
362 1120 m 2,0,-1
 362 853 l 2,1,2
 362 799 362 799 398 766 c 0,3,4
 429 737 429 737 474 737 c 0,5,6
 518 737 518 737 547 775 c 0,7,8
 573 809 573 809 573 853 c 2,9,-1
 573 893 l 1,10,-1
 657 893 l 1,11,-1
 657 484 l 1,12,-1
 573 484 l 1,13,-1
 573 523 l 2,14,15
 573 565 573 565 547 600 c 0,16,17
 516 640 516 640 472 640 c 0,18,19
 426 640 426 640 397 617 c 0,20,21
 362 588 362 588 362 535 c 2,22,-1
 362 195 l 2,23,24
 362 143 362 143 383 120.5 c 128,-1,25
 404 98 404 98 453 98 c 2,26,-1
 536 98 l 2,27,28
 573 98 573 98 599 124 c 1,29,30
 628 150 628 150 640 194 c 1,31,-1
 654 254 l 2,32,33
 656 265 656 265 658.5 278 c 128,-1,34
 661 291 661 291 668 314 c 1,35,-1
 745 288 l 1,36,-1
 684 0 l 1,37,-1
 110 0 l 1,38,-1
 110 98 l 1,39,40
 144 98 144 98 175.5 126 c 128,-1,41
 207 154 207 154 207 194 c 2,42,-1
 207 1120 l 2,43,44
 207 1155 207 1155 185 1183 c 1,45,46
 158 1222 158 1222 110 1222 c 1,47,-1
 110 1319 l 1,48,-1
 685 1319 l 1,49,-1
 746 1031 l 1,50,-1
 668 1006 l 1,51,-1
 641 1125 l 2,52,53
 632 1166 632 1166 601.5 1194 c 128,-1,54
 571 1222 571 1222 536 1222 c 2,55,-1
 445 1222 l 2,56,57
 406 1222 406 1222 384 1198 c 128,-1,58
 362 1174 362 1174 362 1120 c 2,0,-1
1279 1208 m 0,59,60
 1215 1208 1215 1208 1157.5 1149.5 c 128,-1,61
 1100 1091 1100 1091 1061 987 c 0,62,63
 1007 843 1007 843 1007 659 c 0,64,65
 1007 492 1007 492 1050 362 c 1,66,67
 1113 161 1113 161 1229 119 c 1,68,-1
 1229 320 l 1,69,-1
 1331 320 l 1,70,-1
 1331 120 l 1,71,72
 1438 162 1438 162 1502 345 c 0,73,74
 1551 487 1551 487 1551 659 c 0,75,76
 1551 857 1551 857 1489 1008 c 0,77,78
 1408 1208 1408 1208 1279 1208 c 0,59,60
1334 4 m 1,79,80
 1341 -62 1341 -62 1365 -106 c 0,81,82
 1400 -172 1400 -172 1470 -178 c 1,83,84
 1497 -178 1497 -178 1524.5 -169.5 c 128,-1,85
 1552 -161 1552 -161 1583 -141 c 0,86,87
 1644 -102 1644 -102 1712 1 c 1,88,-1
 1712 -220 l 1,89,90
 1698 -232 1698 -232 1684 -244 c 0,91,92
 1661 -262 1661 -262 1634.5 -276.5 c 128,-1,93
 1608 -291 1608 -291 1577 -300.5 c 128,-1,94
 1546 -310 1546 -310 1515 -314 c 0,95,96
 1508 -315 1508 -315 1493 -315 c 0,97,98
 1447 -315 1447 -315 1395 -292 c 0,99,100
 1335 -266 1335 -266 1294 -205 c 0,101,102
 1265 -161 1265 -161 1248 -108.5 c 128,-1,103
 1231 -56 1231 -56 1231 3 c 1,104,105
 1137 18 1137 18 1056 92.5 c 128,-1,106
 975 167 975 167 921 287 c 1,107,108
 883 369 883 369 864 457.5 c 128,-1,109
 845 546 845 546 845 659 c 0,110,111
 845 893 845 893 945 1078 c 0,112,113
 1005 1190 1005 1190 1090 1253 c 0,114,115
 1179 1319 1179 1319 1279 1319 c 0,116,117
 1469 1319 1469 1319 1599 1102 c 0,118,119
 1712 912 1712 912 1712 659 c 0,120,121
 1712 426 1712 426 1616 244 c 1,122,123
 1505 37 1505 37 1334 4 c 1,79,80
EndSplineSet
Validated: 1
EndChar

StartChar: uni0097
Encoding: 151 151 107
Width: 1822
Flags: W
LayerCount: 2
Fore
SplineSet
399 1125 m 2,0,-1
 399 856 l 2,1,2
 399 804 399 804 436 768 c 0,3,4
 451 754 451 754 469 747 c 128,-1,5
 487 740 487 740 512 740 c 0,6,7
 556 740 556 740 585 778 c 0,8,9
 611 812 611 812 611 856 c 2,10,-1
 611 896 l 1,11,-1
 695 896 l 1,12,-1
 695 486 l 1,13,-1
 611 486 l 1,14,-1
 611 526 l 2,15,16
 611 566 611 566 585 602 c 1,17,18
 554 642 554 642 510 642 c 0,19,20
 461 642 461 642 435 619 c 1,21,22
 399 590 399 590 399 536 c 2,23,-1
 399 196 l 2,24,25
 399 144 399 144 420.5 121 c 128,-1,26
 442 98 442 98 491 98 c 2,27,-1
 574 98 l 2,28,29
 608 98 608 98 635.5 123.5 c 128,-1,30
 663 149 663 149 678 195 c 1,31,-1
 692 255 l 2,32,33
 694 266 694 266 696.5 279 c 128,-1,34
 699 292 699 292 706 315 c 1,35,-1
 783 289 l 1,36,-1
 722 0 l 1,37,-1
 148 0 l 1,38,-1
 148 98 l 1,39,40
 182 98 182 98 213.5 126 c 128,-1,41
 245 154 245 154 245 195 c 2,42,-1
 245 1124 l 2,43,44
 245 1157 245 1157 223 1188 c 0,45,46
 196 1227 196 1227 148 1227 c 1,47,-1
 148 1323 l 1,48,-1
 723 1324 l 1,49,-1
 742 1227 l 1,50,-1
 783 1035 l 1,51,-1
 706 1010 l 1,52,-1
 679 1129 l 2,53,54
 670 1170 670 1170 639 1198.5 c 128,-1,55
 608 1227 608 1227 574 1227 c 2,56,-1
 483 1227 l 2,57,58
 441 1227 441 1227 422 1204 c 0,59,60
 399 1176 399 1176 399 1125 c 2,0,-1
1035 82 m 1,61,62
 1088 82 1088 82 1113.5 98.5 c 128,-1,63
 1139 115 1139 115 1139 143 c 2,64,-1
 1139 1181 l 2,65,66
 1139 1212 1139 1212 1102 1230 c 1,67,68
 1072 1242 1072 1242 1035 1242 c 1,69,-1
 1035 1324 l 1,70,-1
 1353 1324 l 2,71,72
 1438 1324 1438 1324 1501 1283 c 0,73,74
 1553 1249 1553 1249 1609 1173 c 1,75,76
 1686 1063 1686 1063 1686 943 c 0,77,78
 1686 754 1686 754 1583 636 c 1,79,80
 1529 576 1529 576 1456.5 541.5 c 128,-1,81
 1384 507 1384 507 1295 507 c 1,82,-1
 1295 142 l 2,83,84
 1295 116 1295 116 1310 102 c 0,85,86
 1332 82 1332 82 1401 82 c 1,87,-1
 1401 0 l 1,88,-1
 1035 0 l 1,89,-1
 1035 82 l 1,61,62
1295 1227 m 1,90,-1
 1295 633 l 1,91,92
 1339 633 1339 633 1380 656.5 c 128,-1,93
 1421 680 1421 680 1459 725 c 1,94,95
 1533 816 1533 816 1533 931 c 0,96,97
 1533 1042 1533 1042 1473 1128 c 0,98,99
 1404 1227 1404 1227 1295 1227 c 1,90,-1
EndSplineSet
Validated: 1
EndChar

StartChar: c158
Encoding: 158 158 108
AltUni2: 00017e.ffffffff.0
Width: 1822
Flags: W
LayerCount: 2
Fore
SplineSet
1497 1668 m 1,0,-1
 466 -103 l 1,1,-1
 325 -103 l 1,2,-1
 1355 1668 l 1,3,-1
 1497 1668 l 1,0,-1
403 1040 m 1,4,5
 463 1049 463 1049 463 1099 c 2,6,-1
 463 1466 l 1,7,-1
 326 1466 l 1,8,-1
 326 1534 l 1,9,10
 394 1546 394 1546 442 1576 c 1,11,12
 476 1596 476 1596 492.5 1618 c 128,-1,13
 509 1640 509 1640 509 1668 c 1,14,-1
 586 1668 l 1,15,-1
 586 1099 l 2,16,17
 586 1058 586 1058 631 1043 c 1,18,19
 665 1035 665 1035 691 1035 c 1,20,-1
 691 948 l 1,21,-1
 326 948 l 1,22,-1
 326 1035 l 1,23,-1
 364 1036 l 2,24,25
 392 1036 392 1036 403 1040 c 1,4,5
1389 616 m 1,26,-1
 1389 144 l 1,27,-1
 1461 144 l 1,28,-1
 1461 51 l 1,29,-1
 1389 51 l 1,30,-1
 1389 -103 l 1,31,-1
 1281 -103 l 1,32,-1
 1281 51 l 1,33,-1
 978 51 l 1,34,-1
 978 144 l 1,35,-1
 1285 616 l 1,36,-1
 1389 616 l 1,26,-1
1093 144 m 1,37,-1
 1281 144 l 1,38,-1
 1281 432 l 1,39,-1
 1093 144 l 1,37,-1
EndSplineSet
Validated: 1
EndChar

StartChar: degree
Encoding: 176 176 109
Width: 1822
Flags: W
LayerCount: 2
Fore
SplineSet
573 894 m 1,0,-1
 824 894 l 1,1,-1
 824 1129 l 2,2,3
 824 1182 824 1182 806 1227 c 128,-1,4
 788 1272 788 1272 752 1314 c 1,5,6
 684 1390 684 1390 594 1390 c 2,7,-1
 534 1390 l 2,8,9
 438 1390 438 1390 371 1308 c 0,10,11
 337 1267 337 1267 320 1219 c 128,-1,12
 303 1171 303 1171 303 1112 c 2,13,-1
 303 904 l 1,14,-1
 130 904 l 1,15,-1
 130 1165 l 2,16,17
 130 1251 130 1251 171.5 1324 c 128,-1,18
 213 1397 213 1397 281 1453 c 0,19,20
 416 1564 416 1564 564 1564 c 0,21,22
 697 1564 697 1564 772.5 1523 c 128,-1,23
 848 1482 848 1482 911 1404 c 1,24,25
 973 1481 973 1481 1048.5 1522.5 c 128,-1,26
 1124 1564 1124 1564 1257 1564 c 0,27,28
 1393 1564 1393 1564 1524 1466 c 0,29,30
 1594 1413 1594 1413 1643 1335 c 128,-1,31
 1692 1257 1692 1257 1692 1165 c 2,32,-1
 1692 905 l 1,33,-1
 1518 905 l 1,34,-1
 1518 1112 l 2,35,36
 1518 1227 1518 1227 1450 1308.5 c 128,-1,37
 1382 1390 1382 1390 1287 1390 c 2,38,-1
 1228 1390 l 2,39,40
 1127 1390 1127 1390 1059 1300 c 1,41,42
 1029 1262 1029 1262 1013.5 1220.5 c 128,-1,43
 998 1179 998 1179 998 1129 c 2,44,-1
 998 894 l 1,45,-1
 1249 894 l 1,46,-1
 1249 752 l 1,47,-1
 998 752 l 1,48,-1
 998 469 l 1,49,50
 1081 442 1081 442 1136 379 c 0,51,52
 1212 294 1212 294 1212 179 c 0,53,54
 1212 68 1212 68 1143 -13 c 1,55,56
 1053 -124 1053 -124 911 -124 c 0,57,58
 771 -124 771 -124 678 -13 c 0,59,60
 609 68 609 68 609 179 c 0,61,62
 609 283 609 283 674 366 c 0,63,64
 731 440 731 440 824 469 c 1,65,-1
 824 752 l 1,66,-1
 573 752 l 1,67,-1
 573 894 l 1,0,-1
911 375 m 0,68,69
 841 375 841 375 797 304 c 1,70,71
 763 247 763 247 763 179 c 0,72,73
 763 114 763 114 793 61 c 1,74,75
 835 -17 835 -17 911 -17 c 0,76,77
 975 -17 975 -17 1020 46 c 1,78,79
 1058 104 1058 104 1058 179 c 0,80,81
 1058 259 1058 259 1014.5 317 c 128,-1,82
 971 375 971 375 911 375 c 0,68,69
EndSplineSet
Validated: 1
EndChar

StartChar: Oacute
Encoding: 211 211 110
Width: 1822
Flags: W
LayerCount: 2
Fore
SplineSet
983 493 m 1,0,1
 1082 468 1082 468 1147.5 385.5 c 128,-1,2
 1213 303 1213 303 1213 199 c 0,3,4
 1213 82 1213 82 1134 -4 c 0,5,6
 1044 -103 1044 -103 911 -103 c 0,7,8
 777 -103 777 -103 687 -4 c 1,9,10
 608 81 608 81 608 199 c 0,11,12
 608 302 608 302 674 386 c 0,13,14
 736 466 736 466 838 493 c 1,15,-1
 770 493 l 2,16,17
 651 493 651 493 549.5 541.5 c 128,-1,18
 448 590 448 590 373 680 c 0,19,20
 255 824 255 824 255 1007 c 2,21,-1
 255 1564 l 1,22,-1
 429 1564 l 1,23,-1
 429 1024 l 2,24,25
 429 888 429 888 516 784 c 0,26,27
 615 667 615 667 761 667 c 2,28,-1
 824 667 l 1,29,-1
 824 1564 l 1,30,-1
 998 1564 l 1,31,-1
 998 667 l 1,32,-1
 1060 667 l 2,33,34
 1200 667 1200 667 1299 778 c 0,35,36
 1391 881 1391 881 1391 1024 c 2,37,-1
 1391 1564 l 1,38,-1
 1566 1564 l 1,39,-1
 1566 1007 l 2,40,41
 1566 808 1566 808 1432 662 c 0,42,43
 1277 493 1277 493 1051 493 c 2,44,-1
 983 493 l 1,0,1
911 394 m 0,45,46
 850 394 850 394 806.5 336.5 c 128,-1,47
 763 279 763 279 763 199 c 0,48,49
 763 118 763 118 805.5 60.5 c 128,-1,50
 848 3 848 3 911 3 c 256,51,52
 974 3 974 3 1020 67 c 1,53,54
 1058 122 1058 122 1058 199 c 0,55,56
 1058 267 1058 267 1024 323 c 1,57,58
 979 394 979 394 911 394 c 0,45,46
EndSplineSet
Validated: 1
EndChar

StartChar: Ocircumflex
Encoding: 212 212 111
Width: 1822
Flags: W
LayerCount: 2
Fore
SplineSet
1247 717 m 1,0,-1
 993 717 l 1,1,-1
 993 0 l 1,2,-1
 825 0 l 1,3,-1
 825 717 l 1,4,-1
 571 717 l 1,5,-1
 571 858 l 1,6,-1
 825 858 l 1,7,-1
 825 1168 l 1,8,-1
 993 1168 l 1,9,-1
 993 858 l 1,10,-1
 1247 858 l 1,11,-1
 1247 717 l 1,0,-1
683 1564 m 2,12,-1
 1135 1564 l 2,13,14
 1290 1564 1290 1564 1396 1504.5 c 128,-1,15
 1502 1445 1502 1445 1567.5 1349.5 c 128,-1,16
 1633 1254 1633 1254 1662 1137.5 c 128,-1,17
 1691 1021 1691 1021 1691 869 c 1,18,-1
 1516 869 l 1,19,20
 1516 981 1516 981 1496 1070 c 0,21,22
 1485 1120 1485 1120 1470 1159.5 c 128,-1,23
 1455 1199 1455 1199 1430 1235 c 0,24,25
 1325 1390 1325 1390 1093 1390 c 2,26,-1
 726 1390 l 2,27,28
 484 1390 484 1390 379 1203 c 0,29,30
 340 1132 340 1132 324 1050.5 c 128,-1,31
 308 969 308 969 308 869 c 1,32,-1
 130 869 l 1,33,34
 130 1009 130 1009 158 1122 c 0,35,36
 172 1179 172 1179 195 1231.5 c 128,-1,37
 218 1284 218 1284 248 1331 c 0,38,39
 316 1435 316 1435 425.5 1499.5 c 128,-1,40
 535 1564 535 1564 683 1564 c 2,12,-1
EndSplineSet
Validated: 1
EndChar

StartChar: Otilde
Encoding: 213 213 112
Width: 1822
Flags: W
LayerCount: 2
Fore
SplineSet
504 658 m 1,0,-1
 975 658 l 1,1,-1
 975 1024 l 1,2,3
 876 1077 876 1077 792 1171 c 1,4,-1
 967 1171 l 1,5,6
 1002 1148 1002 1148 1029.5 1132.5 c 128,-1,7
 1057 1117 1057 1117 1086 1106 c 0,8,9
 1153 1080 1153 1080 1230 1080 c 0,10,11
 1317 1080 1317 1080 1390 1112 c 0,12,13
 1415 1123 1415 1123 1441 1138 c 0,14,15
 1458 1148 1458 1148 1493 1171 c 1,16,-1
 1667 1171 l 1,17,18
 1585 1080 1585 1080 1484 1025 c 1,19,-1
 1484 658 l 1,20,-1
 1691 658 l 1,21,-1
 1691 513 l 1,22,-1
 1484 513 l 1,23,-1
 1484 147 l 1,24,25
 1583 93 1583 93 1667 0 c 1,26,-1
 1493 0 l 1,27,28
 1461 21 1461 21 1435 37 c 0,29,30
 1402 57 1402 57 1376 68 c 0,31,32
 1308 96 1308 96 1230 96 c 0,33,34
 1153 96 1153 96 1082 66 c 0,35,36
 1053 54 1053 54 1024 37 c 0,37,38
 1016 33 1016 33 967 0 c 1,39,-1
 792 0 l 1,40,41
 875 93 875 93 975 148 c 1,42,-1
 975 513 l 1,43,-1
 130 513 l 1,44,45
 182 539 182 539 225.5 579 c 128,-1,46
 269 619 269 619 308 667 c 0,47,48
 381 758 381 758 433 881 c 1,49,50
 474 983 474 983 492 1047 c 0,51,52
 515 1130 515 1130 515 1200 c 0,53,54
 515 1279 515 1279 505 1337 c 128,-1,55
 495 1395 495 1395 469 1442 c 1,56,57
 387 1579 387 1579 231 1579 c 0,58,59
 205 1579 205 1579 176 1573 c 1,60,-1
 130 1561 l 1,61,-1
 184 1596 l 1,62,-1
 234 1622 l 1,63,64
 283 1644 283 1644 327.5 1655.5 c 128,-1,65
 372 1667 372 1667 414 1667 c 0,66,67
 513 1667 513 1667 583 1600.5 c 128,-1,68
 653 1534 653 1534 685 1439 c 1,69,70
 709 1361 709 1361 709 1269 c 0,71,72
 709 1197 709 1197 694 1116 c 0,73,74
 668 970 668 970 596 820 c 0,75,76
 552 727 552 727 504 658 c 1,0,-1
1366 195 m 1,77,-1
 1366 513 l 1,78,-1
 1093 513 l 1,79,-1
 1093 195 l 1,80,81
 1159 213 1159 213 1230 213 c 0,82,83
 1298 213 1298 213 1366 195 c 1,77,-1
1366 658 m 1,84,-1
 1366 977 l 1,85,86
 1300 959 1300 959 1230 959 c 0,87,88
 1190 959 1190 959 1160.5 963 c 128,-1,89
 1131 967 1131 967 1093 978 c 1,90,-1
 1093 658 l 1,91,-1
 1366 658 l 1,84,-1
EndSplineSet
Validated: 1
EndChar

StartChar: Odieresis
Encoding: 214 214 113
Width: 1822
Flags: W
LayerCount: 2
Fore
SplineSet
952 1323 m 1,0,-1
 952 1079 l 1,1,-1
 1174 1079 l 1,2,3
 1162 1173 1162 1173 1099.5 1240.5 c 128,-1,4
 1037 1308 1037 1308 952 1323 c 1,0,-1
1286 0 m 1,5,-1
 536 0 l 1,6,-1
 536 144 l 1,7,-1
 829 144 l 1,8,-1
 829 619 l 1,9,10
 672 649 672 649 572 779 c 0,11,12
 484 894 484 894 484 1038 c 0,13,14
 484 1129 484 1129 523 1215 c 0,15,16
 559 1295 559 1295 628 1357 c 1,17,18
 557 1419 557 1419 520.5 1497 c 128,-1,19
 484 1575 484 1575 484 1669 c 1,20,-1
 645 1669 l 1,21,22
 645 1524 645 1524 761 1437 c 1,23,24
 799 1451 799 1451 834.5 1458 c 128,-1,25
 870 1465 870 1465 911 1465 c 0,26,27
 987 1465 987 1465 1061 1437 c 1,28,29
 1118 1479 1118 1479 1147.5 1536.5 c 128,-1,30
 1177 1594 1177 1594 1177 1669 c 1,31,-1
 1338 1669 l 1,32,33
 1338 1576 1338 1576 1301.5 1498.5 c 128,-1,34
 1265 1421 1265 1421 1194 1357 c 1,35,36
 1260 1297 1260 1297 1299 1214 c 128,-1,37
 1338 1131 1338 1131 1338 1038 c 0,38,39
 1338 884 1338 884 1239.5 766.5 c 128,-1,40
 1141 649 1141 649 993 619 c 1,41,-1
 993 144 l 1,42,-1
 1286 144 l 1,43,-1
 1286 0 l 1,5,-1
1174 997 m 1,44,-1
 952 997 l 1,45,-1
 952 752 l 1,46,47
 1038 767 1038 767 1099 834 c 128,-1,48
 1160 901 1160 901 1174 997 c 1,44,-1
870 752 m 1,49,-1
 870 997 l 1,50,-1
 648 997 l 1,51,52
 659 903 659 903 720 835 c 128,-1,53
 781 767 781 767 870 752 c 1,49,-1
648 1079 m 1,54,-1
 870 1079 l 1,55,-1
 870 1323 l 1,56,57
 780 1308 780 1308 715 1233 c 0,58,59
 659 1168 659 1168 648 1079 c 1,54,-1
EndSplineSet
Validated: 1
EndChar

StartChar: multiply
Encoding: 215 215 114
Width: 1822
Flags: W
LayerCount: 2
Fore
SplineSet
952 1219 m 1,0,-1
 952 975 l 1,1,-1
 1174 975 l 1,2,3
 1162 1069 1162 1069 1101 1136 c 128,-1,4
 1040 1203 1040 1203 952 1219 c 1,0,-1
1174 893 m 1,5,-1
 952 893 l 1,6,-1
 952 648 l 1,7,8
 1038 663 1038 663 1099 730 c 128,-1,9
 1160 797 1160 797 1174 893 c 1,5,-1
870 648 m 1,10,-1
 870 893 l 1,11,-1
 648 893 l 1,12,13
 659 799 659 799 720 731 c 128,-1,14
 781 663 781 663 870 648 c 1,10,-1
648 975 m 1,15,-1
 870 975 l 1,16,-1
 870 1219 l 1,17,18
 779 1204 779 1204 715 1128 c 0,19,20
 662 1066 662 1066 648 975 c 1,15,-1
829 -103 m 1,21,-1
 829 514 l 1,22,23
 670 545 670 545 572 675 c 1,24,25
 484 790 484 790 484 933 c 0,26,27
 484 1025 484 1025 523 1111 c 0,28,29
 559 1190 559 1190 628 1253 c 1,30,31
 484 1379 484 1379 484 1564 c 1,32,-1
 645 1564 l 1,33,34
 645 1418 645 1418 761 1333 c 1,35,36
 830 1360 830 1360 911 1360 c 0,37,38
 989 1360 989 1360 1061 1333 c 1,39,40
 1118 1375 1118 1375 1147.5 1432.5 c 128,-1,41
 1177 1490 1177 1490 1177 1564 c 1,42,-1
 1338 1564 l 1,43,44
 1338 1472 1338 1472 1301.5 1394 c 128,-1,45
 1265 1316 1265 1316 1194 1253 c 1,46,47
 1260 1191 1260 1191 1299 1109 c 128,-1,48
 1338 1027 1338 1027 1338 933 c 0,49,50
 1338 781 1338 781 1240 662.5 c 128,-1,51
 1142 544 1142 544 993 514 c 1,52,-1
 993 -103 l 1,53,-1
 829 -103 l 1,21,-1
EndSplineSet
Validated: 1
EndChar

StartChar: Oslash
Encoding: 216 216 115
Width: 1822
Flags: W
LayerCount: 2
Fore
SplineSet
995 1124 m 1,0,-1
 995 717 l 1,1,-1
 1469 -103 l 1,2,-1
 352 -103 l 1,3,-1
 827 717 l 1,4,-1
 827 1124 l 1,5,6
 762 1115 762 1115 694 1089 c 128,-1,7
 626 1063 626 1063 567 1014 c 1,8,-1
 911 1668 l 1,9,-1
 1255 1014 l 1,10,11
 1196 1061 1196 1061 1119 1092 c 0,12,13
 1089 1103 1089 1103 1060.5 1110.5 c 128,-1,14
 1032 1118 1032 1118 995 1124 c 1,0,-1
916 525 m 1,15,-1
 640 54 l 1,16,-1
 1190 54 l 1,17,-1
 916 525 l 1,15,-1
EndSplineSet
Validated: 1
EndChar

StartChar: Ugrave
Encoding: 217 217 116
Width: 1822
Flags: W
LayerCount: 2
Fore
SplineSet
221 1110 m 1,0,-1
 221 1319 l 1,1,2
 366 1207 366 1207 541 1147 c 0,3,4
 620 1120 620 1120 690 1104.5 c 128,-1,5
 760 1089 760 1089 829 1089 c 1,6,-1
 829 1343 l 1,7,-1
 993 1343 l 1,8,-1
 993 1089 l 1,9,10
 1064 1089 1064 1089 1131 1103.5 c 128,-1,11
 1198 1118 1198 1118 1281 1147 c 0,12,13
 1455 1206 1455 1206 1601 1320 c 1,14,-1
 1601 1110 l 1,15,16
 1464 1027 1464 1027 1314 979 c 0,17,18
 1223 950 1223 950 1147 934.5 c 128,-1,19
 1071 919 1071 919 993 919 c 1,20,-1
 993 695 l 1,21,22
 1071 695 1071 695 1146.5 682 c 128,-1,23
 1222 669 1222 669 1313 642 c 0,24,25
 1469 594 1469 594 1601 516 c 1,26,-1
 1601 311 l 1,27,28
 1454 416 1454 416 1280 473 c 1,29,30
 1200 498 1200 498 1138 510 c 0,31,32
 1063 525 1063 525 993 525 c 1,33,-1
 993 220 l 1,34,-1
 829 220 l 1,35,-1
 829 522 l 1,36,37
 677 507 677 507 540 456 c 0,38,39
 451 423 451 423 372.5 378.5 c 128,-1,40
 294 334 294 334 221 274 c 1,41,-1
 221 487 l 1,42,43
 349 570 349 570 507 626 c 0,44,45
 594 656 594 656 666 672 c 0,46,47
 755 692 755 692 829 692 c 1,48,-1
 829 919 l 1,49,50
 752 919 752 919 674.5 934 c 128,-1,51
 597 949 597 949 508 978 c 1,52,53
 355 1025 355 1025 221 1110 c 1,0,-1
EndSplineSet
Validated: 1
EndChar

StartChar: Udieresis
Encoding: 220 220 117
Width: 1822
Flags: W
LayerCount: 2
Fore
SplineSet
1337 835 m 1,0,-1
 1083 835 l 1,1,-1
 1083 422 l 1,2,3
 1205 441 1205 441 1307 521 c 1,4,-1
 1476 451 l 1,5,6
 1315 284 1315 284 1083 254 c 1,7,-1
 1083 -103 l 1,8,-1
 915 -103 l 1,9,-1
 915 255 l 1,10,11
 675 286 675 286 510 471.5 c 128,-1,12
 345 657 345 657 345 907 c 0,13,14
 345 1177 345 1177 538 1370.5 c 128,-1,15
 731 1564 731 1564 1003 1564 c 0,16,17
 1281 1564 1281 1564 1476 1362 c 1,18,-1
 1307 1292 l 1,19,20
 1171 1398 1171 1398 1003 1398 c 0,21,22
 799 1398 799 1398 655 1253.5 c 128,-1,23
 511 1109 511 1109 511 907 c 0,24,25
 511 727 511 727 626 591.5 c 128,-1,26
 741 456 741 456 915 423 c 1,27,-1
 915 835 l 1,28,-1
 660 835 l 1,29,-1
 660 977 l 1,30,-1
 915 977 l 1,31,-1
 915 1212 l 1,32,-1
 1083 1212 l 1,33,-1
 1083 977 l 1,34,-1
 1337 977 l 1,35,-1
 1337 835 l 1,0,-1
EndSplineSet
Validated: 1
EndChar

StartChar: Thorn
Encoding: 222 222 119
Width: 1822
Flags: W
LayerCount: 2
Fore
SplineSet
995 1124 m 1,0,-1
 995 484 l 1,1,-1
 1299 721 l 1,2,-1
 1406 583 l 1,3,-1
 1052 308 l 1,4,-1
 1406 33 l 1,5,-1
 1299 -103 l 1,6,-1
 911 198 l 1,7,-1
 522 -103 l 1,8,-1
 415 33 l 1,9,-1
 769 308 l 1,10,-1
 415 583 l 1,11,-1
 522 721 l 1,12,-1
 827 484 l 1,13,-1
 827 1124 l 1,14,15
 792 1119 792 1119 756 1109.5 c 128,-1,16
 720 1100 720 1100 687 1086 c 1,17,18
 620 1055 620 1055 567 1014 c 1,19,-1
 911 1668 l 1,20,-1
 1254 1014 l 1,21,22
 1223 1038 1223 1038 1191 1056 c 128,-1,23
 1159 1074 1159 1074 1121 1090 c 0,24,25
 1063 1113 1063 1113 995 1124 c 1,0,-1
EndSplineSet
Validated: 1
EndChar

StartChar: egrave
Encoding: 232 232 127
Width: 1822
Flags: W
LayerCount: 2
Fore
SplineSet
911 1452 m 1,0,-1
 1582 940 l 1,1,-1
 1325 112 l 1,2,-1
 495 112 l 1,3,-1
 239 940 l 1,4,-1
 911 1452 l 1,0,-1
911 1237 m 1,5,-1
 449 882 l 1,6,-1
 633 287 l 1,7,-1
 1188 287 l 1,8,-1
 1372 882 l 1,9,-1
 911 1237 l 1,5,-1
EndSplineSet
Validated: 1
EndChar

StartChar: ecircumflex
Encoding: 234 234 128
Width: 1822
Flags: W
LayerCount: 2
Fore
SplineSet
392 97 m 1,0,-1
 1430 97 l 1,1,-1
 1430 -63 l 1,2,-1
 392 -63 l 1,3,-1
 392 97 l 1,0,-1
911 1646 m 1,4,-1
 1582 1134 l 1,5,-1
 1326 306 l 1,6,-1
 496 306 l 1,7,-1
 239 1134 l 1,8,-1
 911 1646 l 1,4,-1
911 1430 m 1,9,-1
 449 1073 l 1,10,-1
 634 472 l 1,11,-1
 1188 472 l 1,12,-1
 1372 1073 l 1,13,-1
 911 1430 l 1,9,-1
EndSplineSet
Validated: 1
EndChar

StartChar: edieresis
Encoding: 235 235 129
Width: 1200
Flags: W
LayerCount: 2
Fore
SplineSet
274 578 m 1,0,-1
 274 280 l 1,1,-1
 473 280 l 2,2,3
 539 280 539 280 587 320 c 128,-1,4
 635 360 635 360 635 428 c 0,5,6
 635 495 635 495 590 536.5 c 128,-1,7
 545 578 545 578 473 578 c 2,8,-1
 274 578 l 1,0,-1
274 165 m 1,9,-1
 274 -275 l 1,10,-1
 100 -275 l 1,11,-1
 100 692 l 1,12,-1
 310 692 l 1,13,-1
 522 693 l 2,14,15
 640 693 640 693 725.5 615.5 c 128,-1,16
 811 538 811 538 811 429 c 0,17,18
 811 311 811 311 716 234 c 1,19,20
 635 165 635 165 522 165 c 2,21,-1
 274 165 l 1,9,-1
EndSplineSet
Validated: 1
EndChar

StartChar: iacute
Encoding: 237 237 130
Width: 1822
Flags: W
LayerCount: 2
Fore
SplineSet
1083 1668 m 0,0,1
 1220 1668 1220 1668 1322 1622 c 1,2,3
 1166 1538 1166 1538 1075 1395 c 1,4,5
 981 1245 981 1245 981 1073 c 0,6,7
 981 898 981 898 1073.5 753 c 128,-1,8
 1166 608 1166 608 1322 525 c 1,9,10
 1207 472 1207 472 1083 472 c 0,11,12
 1052 472 1052 472 993 481 c 1,13,-1
 993 262 l 1,14,-1
 1250 262 l 1,15,-1
 1250 119 l 1,16,-1
 993 119 l 1,17,-1
 993 -103 l 1,18,-1
 829 -103 l 1,19,-1
 829 119 l 1,20,-1
 572 119 l 1,21,-1
 572 262 l 1,22,-1
 829 262 l 1,23,-1
 829 532 l 1,24,25
 675 612 675 612 589 756 c 0,26,27
 544 831 544 831 524 894 c 0,28,29
 500 971 500 971 500 1073 c 0,30,31
 500 1183 500 1183 545.5 1299.5 c 128,-1,32
 591 1416 591 1416 671 1498 c 0,33,34
 836 1668 836 1668 1083 1668 c 0,0,1
EndSplineSet
Validated: 1
EndChar

StartChar: icircumflex
Encoding: 238 238 131
Width: 1822
Flags: W
LayerCount: 2
Fore
SplineSet
999 1135 m 2,0,-1
 999 315 l 1,1,2
 1062 324 1062 324 1118.5 346.5 c 128,-1,3
 1175 369 1175 369 1226 403 c 1,4,-1
 1239 394 l 1,5,-1
 911 -229 l 1,6,-1
 583 395 l 1,7,-1
 596 403 l 1,8,9
 641 372 641 372 696 350 c 0,10,11
 727 338 727 338 761 328.5 c 128,-1,12
 795 319 795 319 825 315 c 1,13,-1
 825 1133 l 2,14,15
 825 1243 825 1243 738 1323 c 1,16,17
 663 1389 663 1389 564 1389 c 0,18,19
 454 1389 454 1389 373 1305 c 1,20,21
 340 1267 340 1267 323 1224.5 c 128,-1,22
 306 1182 306 1182 306 1132 c 0,23,24
 306 1014 306 1014 397 936 c 1,25,-1
 295 793 l 1,26,27
 130 922 130 922 130 1132 c 0,28,29
 130 1297 130 1297 243 1422 c 1,30,31
 373 1564 373 1564 564 1564 c 0,32,33
 670 1564 670 1564 757 1521.5 c 128,-1,34
 844 1479 844 1479 911 1391 c 1,35,36
 978 1481 978 1481 1064 1522.5 c 128,-1,37
 1150 1564 1150 1564 1258 1564 c 0,38,39
 1438 1564 1438 1564 1565 1437 c 128,-1,40
 1692 1310 1692 1310 1692 1132 c 0,41,42
 1692 924 1692 924 1527 793 c 1,43,-1
 1425 936 l 1,44,45
 1516 1013 1516 1013 1516 1132 c 0,46,47
 1516 1252 1516 1252 1422 1330 c 1,48,49
 1349 1389 1349 1389 1258 1389 c 0,50,51
 1156 1389 1156 1389 1080 1319 c 0,52,53
 1042 1284 1042 1284 1020.5 1235 c 128,-1,54
 999 1186 999 1186 999 1135 c 2,0,-1
EndSplineSet
Validated: 1
EndChar

StartChar: eth
Encoding: 240 240 133
Width: 1822
Flags: W
LayerCount: 2
Fore
SplineSet
1010 417 m 1,0,1
 1080 403 1080 403 1080 344 c 2,2,-1
 1080 247 l 2,3,4
 1080 192 1080 192 1016 176 c 1,5,6
 1141 164 1141 164 1246 130 c 0,7,8
 1393 83 1393 83 1495 0 c 1,9,-1
 327 0 l 1,10,11
 412 69 412 69 544 119 c 1,12,13
 667 161 667 161 806 176 c 1,14,15
 742 191 742 191 742 247 c 2,16,-1
 742 344 l 2,17,18
 742 402 742 402 812 417 c 1,19,-1
 812 557 l 1,20,21
 742 571 742 571 742 630 c 2,22,-1
 742 727 l 2,23,24
 742 777 742 777 802 797 c 1,25,26
 549 836 549 836 373 1037 c 0,27,28
 280 1142 280 1142 226.5 1276 c 128,-1,29
 173 1410 173 1410 173 1564 c 1,30,-1
 1649 1564 l 1,31,32
 1649 1398 1649 1398 1588.5 1258.5 c 128,-1,33
 1528 1119 1528 1119 1426 1012 c 0,34,35
 1258 836 1258 836 1020 797 c 1,36,37
 1080 779 1080 779 1080 727 c 2,38,-1
 1080 630 l 2,39,40
 1080 572 1080 572 1010 557 c 1,41,-1
 1010 417 l 1,0,1
358 1458 m 1,42,43
 394 1254 394 1254 541 1114 c 0,44,45
 700 964 700 964 911 964 c 0,46,47
 1108 964 1108 964 1263 1098 c 0,48,49
 1425 1238 1425 1238 1464 1458 c 1,50,-1
 358 1458 l 1,42,43
EndSplineSet
Validated: 1
EndChar

StartChar: Ccircumflex
Encoding: 264 264 156
Width: 1822
Flags: W
LayerCount: 2
Fore
SplineSet
911 1057 m 0,0,1
 980 1057 980 1057 1032 1006 c 128,-1,2
 1084 955 1084 955 1084 884 c 0,3,4
 1084 818 1084 818 1038 768 c 0,5,6
 987 711 987 711 911 711 c 0,7,8
 838 711 838 711 787.5 763.5 c 128,-1,9
 737 816 737 816 737 884 c 0,10,11
 737 953 737 953 788 1005 c 128,-1,12
 839 1057 839 1057 911 1057 c 0,0,1
729 229 m 0,13,14
 729 107 729 107 642 17 c 1,15,16
 551 -69 551 -69 430 -69 c 0,17,18
 313 -69 313 -69 229 8 c 1,19,20
 131 95 131 95 131 229 c 0,21,22
 131 322 131 322 185.5 400.5 c 128,-1,23
 240 479 240 479 334 512 c 1,24,25
 215 681 215 681 215 889 c 0,26,27
 215 1149 215 1149 396 1342 c 1,28,29
 493 1447 493 1447 623 1504 c 0,30,31
 759 1564 759 1564 911 1564 c 0,32,33
 1157 1564 1157 1564 1353 1410 c 1,34,35
 1470 1315 1470 1315 1536 1183 c 0,36,37
 1606 1044 1606 1044 1606 889 c 0,38,39
 1606 682 1606 682 1487 512 c 1,40,41
 1576 482 1576 482 1633 404 c 128,-1,42
 1690 326 1690 326 1690 229 c 0,43,44
 1690 102 1690 102 1597 12 c 1,45,46
 1510 -69 1510 -69 1391 -69 c 0,47,48
 1268 -69 1268 -69 1180 17.5 c 128,-1,49
 1092 104 1092 104 1092 229 c 0,50,51
 1092 303 1092 303 1127.5 369 c 128,-1,52
 1163 435 1163 435 1224 477 c 1,53,54
 1319 545 1319 545 1378.5 654.5 c 128,-1,55
 1438 764 1438 764 1438 889 c 0,56,57
 1438 1115 1438 1115 1265 1267 c 0,58,59
 1113 1401 1113 1401 911 1401 c 0,60,61
 677 1401 677 1401 520 1232 c 1,62,63
 383 1086 383 1086 383 889 c 0,64,65
 383 761 383 761 443 652 c 128,-1,66
 503 543 503 543 603 473 c 1,67,68
 646 439 646 439 683 389 c 1,69,70
 729 315 729 315 729 229 c 0,13,14
1391 358 m 0,71,72
 1337 358 1337 358 1299 320 c 128,-1,73
 1261 282 1261 282 1261 229 c 256,74,75
 1261 176 1261 176 1300 137.5 c 128,-1,76
 1339 99 1339 99 1391 99 c 0,77,78
 1444 99 1444 99 1482 137 c 128,-1,79
 1520 175 1520 175 1520 229 c 256,80,81
 1520 283 1520 283 1483 320.5 c 128,-1,82
 1446 358 1446 358 1391 358 c 0,71,72
430 358 m 0,83,84
 373 358 373 358 337 318 c 1,85,86
 301 282 301 282 301 229 c 0,87,88
 301 175 301 175 339 137 c 128,-1,89
 377 99 377 99 430 99 c 0,90,91
 481 99 481 99 522 137 c 1,92,93
 560 177 560 177 560 229 c 0,94,95
 560 283 560 283 520 323 c 1,96,97
 480 358 480 358 430 358 c 0,83,84
EndSplineSet
Validated: 1
EndChar

StartChar: Cdotaccent
Encoding: 266 266 157
Width: 1822
Flags: W
LayerCount: 2
Fore
SplineSet
910 437 m 0,0,1
 839 437 839 437 788 488 c 128,-1,2
 737 539 737 539 737 610 c 0,3,4
 737 678 737 678 786.5 730.5 c 128,-1,5
 836 783 836 783 910 783 c 256,6,7
 984 783 984 783 1038 726 c 0,8,9
 1083 678 1083 678 1083 610 c 0,10,11
 1083 539 1083 539 1032.5 488 c 128,-1,12
 982 437 982 437 910 437 c 0,0,1
729 1265 m 0,13,14
 729 1177 729 1177 682 1105 c 0,15,16
 653 1059 653 1059 603 1021 c 1,17,18
 504 952 504 952 443.5 843 c 128,-1,19
 383 734 383 734 383 605 c 0,20,21
 383 407 383 407 520 261 c 0,22,23
 678 93 678 93 910 93 c 0,24,25
 1114 93 1114 93 1264 227 c 1,26,27
 1438 377 1438 377 1438 605 c 0,28,29
 1438 670 1438 670 1424 726 c 128,-1,30
 1410 782 1410 782 1379 838 c 1,31,32
 1322 946 1322 946 1224 1017 c 1,33,34
 1164 1055 1164 1055 1128 1122 c 0,35,36
 1111 1154 1111 1154 1101 1190.5 c 128,-1,37
 1091 1227 1091 1227 1091 1265 c 0,38,39
 1091 1388 1091 1388 1179 1476 c 128,-1,40
 1267 1564 1267 1564 1390 1564 c 0,41,42
 1511 1564 1511 1564 1597 1481 c 0,43,44
 1690 1392 1690 1392 1690 1265 c 0,45,46
 1690 1169 1690 1169 1634 1090.5 c 128,-1,47
 1578 1012 1578 1012 1487 982 c 1,48,49
 1606 810 1606 810 1606 605 c 0,50,51
 1606 452 1606 452 1539 315.5 c 128,-1,52
 1472 179 1472 179 1352 84 c 0,53,54
 1158 -69 1158 -69 910 -69 c 0,55,56
 760 -69 760 -69 627 -11.5 c 128,-1,57
 494 46 494 46 395 151 c 0,58,59
 214 344 214 344 214 605 c 0,60,61
 214 809 214 809 333 982 c 1,62,63
 242 1013 242 1013 186.5 1092 c 128,-1,64
 131 1171 131 1171 131 1265 c 0,65,66
 131 1397 131 1397 229 1486 c 1,67,68
 313 1564 313 1564 430 1564 c 0,69,70
 553 1564 553 1564 641 1476 c 128,-1,71
 729 1388 729 1388 729 1265 c 0,13,14
1390 1135 m 0,72,73
 1441 1135 1441 1135 1480.5 1173.5 c 128,-1,74
 1520 1212 1520 1212 1520 1265 c 256,75,76
 1520 1318 1520 1318 1482 1356 c 128,-1,77
 1444 1394 1444 1394 1390 1394 c 256,78,79
 1336 1394 1336 1394 1298.5 1357 c 128,-1,80
 1261 1320 1261 1320 1261 1265 c 0,81,82
 1261 1211 1261 1211 1299 1174 c 1,83,84
 1335 1135 1335 1135 1390 1135 c 0,72,73
430 1135 m 0,85,86
 480 1135 480 1135 519.5 1172 c 128,-1,87
 559 1209 559 1209 559 1265 c 0,88,89
 559 1319 559 1319 522 1356.5 c 128,-1,90
 485 1394 485 1394 430 1394 c 0,91,92
 376 1394 376 1394 338 1356 c 128,-1,93
 300 1318 300 1318 300 1265 c 0,94,95
 300 1215 300 1215 337.5 1175 c 128,-1,96
 375 1135 375 1135 430 1135 c 0,85,86
EndSplineSet
Validated: 1
EndChar

StartChar: cdotaccent
Encoding: 267 267 158
Width: 1822
Flags: W
LayerCount: 2
Fore
SplineSet
831 1668 m 0,0,1
 901 1668 901 1668 959 1657 c 128,-1,2
 1017 1646 1017 1646 1069 1621 c 1,3,4
 913 1539 913 1539 822 1395 c 0,5,6
 728 1245 728 1245 728 1073 c 0,7,8
 728 898 728 898 820.5 753 c 128,-1,9
 913 608 913 608 1069 525 c 1,10,11
 1011 498 1011 498 953.5 485 c 128,-1,12
 896 472 896 472 831 472 c 0,13,14
 802 472 802 472 740 481 c 1,15,-1
 740 262 l 1,16,-1
 997 262 l 1,17,-1
 997 119 l 1,18,-1
 740 119 l 1,19,-1
 740 -103 l 1,20,-1
 576 -103 l 1,21,-1
 576 119 l 1,22,-1
 319 119 l 1,23,-1
 319 262 l 1,24,-1
 576 262 l 1,25,-1
 576 532 l 1,26,27
 421 613 421 613 336 755 c 1,28,29
 291 828 291 828 271 895 c 0,30,31
 247 974 247 974 247 1073 c 0,32,33
 247 1183 247 1183 292.5 1299.5 c 128,-1,34
 338 1416 338 1416 418 1498 c 0,35,36
 583 1668 583 1668 831 1668 c 0,0,1
1400 364 m 0,37,38
 1466 364 1466 364 1517 319 c 1,39,40
 1574 266 1574 266 1574 190 c 0,41,42
 1574 117 1574 117 1523.5 66.5 c 128,-1,43
 1473 16 1473 16 1400 16 c 0,44,45
 1323 16 1323 16 1272 73 c 1,46,47
 1226 122 1226 122 1226 190 c 0,48,49
 1226 259 1226 259 1277 311.5 c 128,-1,50
 1328 364 1328 364 1400 364 c 0,37,38
EndSplineSet
Validated: 1
EndChar

StartChar: Dcaron
Encoding: 270 270 160
Width: 1822
Flags: W
LayerCount: 2
Fore
SplineSet
1248 240 m 1,0,-1
 994 240 l 1,1,-1
 994 0 l 1,2,-1
 826 0 l 1,3,-1
 826 240 l 1,4,-1
 572 240 l 1,5,-1
 572 381 l 1,6,-1
 826 381 l 1,7,-1
 826 620 l 1,8,-1
 376 1103 l 1,9,-1
 901 1667 l 1,10,-1
 1445 1102 l 1,11,-1
 994 622 l 1,12,-1
 994 381 l 1,13,-1
 1248 381 l 1,14,-1
 1248 240 l 1,0,-1
EndSplineSet
Validated: 1
EndChar

StartChar: Emacron
Encoding: 274 274 164
Width: 1822
Flags: W
LayerCount: 2
Fore
SplineSet
128 483 m 1,0,-1
 220 572 l 2,1,2
 254 605 254 605 264 615 c 0,3,4
 279 630 279 630 306 661 c 0,5,6
 386 752 386 752 438 864 c 0,7,8
 523 1049 523 1049 523 1220 c 0,9,10
 523 1288 523 1288 505.5 1358.5 c 128,-1,11
 488 1429 488 1429 441 1482 c 0,12,13
 404 1524 404 1524 347 1552 c 1,14,15
 320 1563 320 1563 290.5 1570 c 128,-1,16
 261 1577 261 1577 234 1577 c 0,17,18
 186 1577 186 1577 133 1556 c 1,19,20
 156 1582 156 1582 208 1607 c 0,21,22
 232 1618 232 1618 253 1627.5 c 128,-1,23
 274 1637 274 1637 296 1645 c 0,24,25
 363 1668 363 1668 418 1668 c 0,26,27
 505 1668 505 1668 580 1608 c 1,28,29
 645 1553 645 1553 681 1459 c 1,30,31
 713 1372 713 1372 713 1258 c 0,32,33
 713 1169 713 1169 693 1075 c 0,34,35
 679 1008 679 1008 657 941 c 128,-1,36
 635 874 635 874 601 802 c 1,37,38
 548 695 548 695 484 611 c 1,39,-1
 1138 611 l 1,40,-1
 1138 759 l 1,41,42
 1028 783 1028 783 950 867 c 1,43,44
 859 967 859 967 859 1103 c 0,45,46
 859 1247 859 1247 961 1350.5 c 128,-1,47
 1063 1454 1063 1454 1209 1454 c 0,48,49
 1344 1454 1344 1454 1445 1363 c 1,50,51
 1560 1257 1560 1257 1560 1103 c 0,52,53
 1560 959 1560 959 1457 855 c 0,54,55
 1383 781 1383 781 1281 759 c 1,56,-1
 1281 611 l 1,57,-1
 1694 611 l 1,58,-1
 1694 483 l 1,59,-1
 1281 483 l 1,60,-1
 1281 311 l 1,61,-1
 1505 311 l 1,62,-1
 1505 191 l 1,63,-1
 1281 191 l 1,64,-1
 1281 0 l 1,65,-1
 1138 0 l 1,66,-1
 1138 191 l 1,67,-1
 915 191 l 1,68,-1
 915 311 l 1,69,-1
 1138 311 l 1,70,-1
 1138 483 l 1,71,-1
 128 483 l 1,0,-1
1209 1314 m 0,72,73
 1121 1314 1121 1314 1059.5 1252 c 128,-1,74
 998 1190 998 1190 998 1103 c 0,75,76
 998 1022 998 1022 1053 961 c 0,77,78
 1117 891 1117 891 1209 891 c 0,79,80
 1296 891 1296 891 1358.5 953.5 c 128,-1,81
 1421 1016 1421 1016 1421 1103 c 0,82,83
 1421 1196 1421 1196 1352 1259 c 0,84,85
 1291 1314 1291 1314 1209 1314 c 0,72,73
EndSplineSet
Validated: 1
EndChar

StartChar: Ecaron
Encoding: 282 282 172
Width: 1822
Flags: W
LayerCount: 2
Fore
SplineSet
981 988 m 1,0,-1
 981 529 l 1,1,-1
 841 529 l 1,2,-1
 841 988 l 1,3,-1
 594 988 l 1,4,-1
 594 1128 l 1,5,-1
 1227 1128 l 1,6,-1
 1227 988 l 1,7,-1
 981 988 l 1,0,-1
730 229 m 0,8,9
 730 106 730 106 642.5 18.5 c 128,-1,10
 555 -69 555 -69 431 -69 c 0,11,12
 314 -69 314 -69 230 8 c 1,13,14
 131 95 131 95 131 229 c 0,15,16
 131 322 131 322 185.5 400.5 c 128,-1,17
 240 479 240 479 334 512 c 1,18,19
 215 684 215 684 215 889 c 0,20,21
 215 1148 215 1148 396 1342 c 0,22,23
 495 1447 495 1447 623 1504 c 0,24,25
 758 1564 758 1564 911 1564 c 0,26,27
 1160 1564 1160 1564 1353 1410 c 0,28,29
 1470 1316 1470 1316 1538.5 1180 c 128,-1,30
 1607 1044 1607 1044 1607 889 c 0,31,32
 1607 683 1607 683 1488 512 c 1,33,34
 1574 482 1574 482 1632 404 c 128,-1,35
 1690 326 1690 326 1690 229 c 0,36,37
 1690 101 1690 101 1597 12 c 0,38,39
 1511 -69 1511 -69 1391 -69 c 0,40,41
 1269 -69 1269 -69 1180.5 18.5 c 128,-1,42
 1092 106 1092 106 1092 229 c 0,43,44
 1092 303 1092 303 1129 371 c 128,-1,45
 1166 439 1166 439 1225 477 c 1,46,47
 1321 546 1321 546 1379.5 655 c 128,-1,48
 1438 764 1438 764 1438 889 c 0,49,50
 1438 1115 1438 1115 1265 1267 c 0,51,52
 1113 1401 1113 1401 911 1401 c 0,53,54
 677 1401 677 1401 521 1233 c 0,55,56
 384 1085 384 1085 384 889 c 0,57,58
 384 759 384 759 443.5 651 c 128,-1,59
 503 543 503 543 603 473 c 0,60,61
 625 457 625 457 644.5 436.5 c 128,-1,62
 664 416 664 416 683 389 c 1,63,64
 730 315 730 315 730 229 c 0,8,9
1391 358 m 256,65,66
 1337 358 1337 358 1299.5 321 c 128,-1,67
 1262 284 1262 284 1262 229 c 0,68,69
 1262 175 1262 175 1299.5 137.5 c 128,-1,70
 1337 100 1337 100 1391 100 c 0,71,72
 1443 100 1443 100 1483 137 c 1,73,74
 1521 177 1521 177 1521 229 c 0,75,76
 1521 282 1521 282 1483 320 c 128,-1,77
 1445 358 1445 358 1391 358 c 256,65,66
431 358 m 0,78,79
 376 358 376 358 338.5 319 c 128,-1,80
 301 280 301 280 301 229 c 0,81,82
 301 176 301 176 339.5 138 c 128,-1,83
 378 100 378 100 431 100 c 0,84,85
 485 100 485 100 522.5 137.5 c 128,-1,86
 560 175 560 175 560 229 c 256,87,88
 560 283 560 283 521.5 320.5 c 128,-1,89
 483 358 483 358 431 358 c 0,78,79
EndSplineSet
Validated: 1
EndChar

StartChar: ecaron
Encoding: 283 283 173
Width: 1822
Flags: W
LayerCount: 2
Fore
SplineSet
729 1265 m 0,0,1
 729 1175 729 1175 683 1105 c 0,2,3
 652 1058 652 1058 603 1021 c 1,4,5
 504 952 504 952 443.5 843 c 128,-1,6
 383 734 383 734 383 605 c 0,7,8
 383 407 383 407 520 261 c 0,9,10
 678 93 678 93 910 93 c 0,11,12
 1113 93 1113 93 1265 227 c 1,13,14
 1438 377 1438 377 1438 605 c 0,15,16
 1438 670 1438 670 1424 726 c 128,-1,17
 1410 782 1410 782 1379 838 c 1,18,19
 1322 946 1322 946 1224 1017 c 1,20,21
 1164 1055 1164 1055 1128 1121 c 128,-1,22
 1092 1187 1092 1187 1092 1265 c 0,23,24
 1092 1387 1092 1387 1179 1476 c 1,25,26
 1224 1520 1224 1520 1276 1542 c 128,-1,27
 1328 1564 1328 1564 1391 1564 c 0,28,29
 1510 1564 1510 1564 1597 1481 c 0,30,31
 1690 1392 1690 1392 1690 1265 c 0,32,33
 1690 1168 1690 1168 1633.5 1090 c 128,-1,34
 1577 1012 1577 1012 1487 982 c 1,35,36
 1606 812 1606 812 1606 605 c 0,37,38
 1606 452 1606 452 1539 316 c 128,-1,39
 1472 180 1472 180 1353 84 c 1,40,41
 1158 -69 1158 -69 910 -69 c 0,42,43
 759 -69 759 -69 626.5 -11.5 c 128,-1,44
 494 46 494 46 396 151 c 0,45,46
 215 344 215 344 215 605 c 0,47,48
 215 812 215 812 334 982 c 1,49,50
 242 1012 242 1012 186.5 1091.5 c 128,-1,51
 131 1171 131 1171 131 1265 c 0,52,53
 131 1395 131 1395 229 1486 c 0,54,55
 313 1564 313 1564 430 1564 c 0,56,57
 551 1564 551 1564 640 1476.5 c 128,-1,58
 729 1389 729 1389 729 1265 c 0,0,1
1391 1135 m 0,59,60
 1443 1135 1443 1135 1481.5 1172.5 c 128,-1,61
 1520 1210 1520 1210 1520 1265 c 0,62,63
 1520 1319 1520 1319 1483 1356.5 c 128,-1,64
 1446 1394 1446 1394 1391 1394 c 0,65,66
 1337 1394 1337 1394 1299 1356 c 128,-1,67
 1261 1318 1261 1318 1261 1265 c 256,68,69
 1261 1212 1261 1212 1299.5 1173.5 c 128,-1,70
 1338 1135 1338 1135 1391 1135 c 0,59,60
430 1135 m 0,71,72
 479 1135 479 1135 520 1171 c 1,73,74
 560 1211 560 1211 560 1265 c 0,75,76
 560 1318 560 1318 522 1356 c 128,-1,77
 484 1394 484 1394 430 1394 c 256,78,79
 376 1394 376 1394 338.5 1357 c 128,-1,80
 301 1320 301 1320 301 1265 c 0,81,82
 301 1214 301 1214 337 1174.5 c 128,-1,83
 373 1135 373 1135 430 1135 c 0,71,72
981 696 m 1,84,-1
 981 237 l 1,85,-1
 840 237 l 1,86,-1
 840 696 l 1,87,-1
 594 696 l 1,88,-1
 594 837 l 1,89,-1
 1227 837 l 1,90,-1
 1227 696 l 1,91,-1
 981 696 l 1,84,-1
EndSplineSet
Validated: 1
EndChar

StartChar: imacron
Encoding: 299 299 188
Width: 1822
Flags: W
LayerCount: 2
Fore
SplineSet
1373 1375 m 1,0,-1
 692 1375 l 1,1,-1
 730 1308 l 1,2,-1
 751 1309 l 1,3,4
 802 1309 802 1309 837 1271 c 0,5,6
 867 1238 867 1238 867 1194 c 0,7,8
 867 1143 867 1143 829 1108 c 0,9,10
 796 1078 796 1078 751 1078 c 0,11,12
 707 1078 707 1078 676 1106 c 1,13,-1
 911 825 l 1,14,-1
 1373 1375 l 1,0,-1
605 1375 m 1,15,-1
 449 1375 l 1,16,-1
 651 1135 l 1,17,18
 635 1164 635 1164 635 1194 c 0,19,20
 635 1235 635 1235 665 1271 c 1,21,-1
 605 1375 l 1,15,-1
553 1465 m 1,22,-1
 438 1668 l 1,23,-1
 524 1668 l 1,24,-1
 640 1465 l 1,25,-1
 1675 1465 l 1,26,-1
 998 658 l 1,27,-1
 998 37 l 1,28,-1
 1396 37 l 1,29,-1
 1396 -103 l 1,30,-1
 426 -103 l 1,31,-1
 426 37 l 1,32,-1
 824 37 l 1,33,-1
 824 658 l 1,34,-1
 147 1465 l 1,35,-1
 553 1465 l 1,22,-1
EndSplineSet
Validated: 1
EndChar

StartChar: Iogonek
Encoding: 302 302 191
Width: 1822
Flags: W
LayerCount: 2
Fore
SplineSet
921 696 m 1,0,-1
 921 -65 l 2,1,2
 921 -95 921 -95 871 -102 c 0,3,4
 867 -103 867 -103 859 -103 c 0,5,6
 819 -103 819 -103 801 -65 c 1,7,8
 772 -13 772 -13 756 45 c 0,9,10
 749 73 749 73 737 103 c 0,11,12
 732 116 732 116 711 161 c 0,13,14
 684 217 684 217 657 274 c 1,15,16
 635 331 635 331 588 379 c 0,17,18
 566 401 566 401 522 426 c 1,19,20
 483 446 483 446 457 475 c 0,21,22
 452 480 452 480 452 485 c 0,23,24
 452 492 452 492 463 503 c 1,25,26
 481 518 481 518 512 526 c 1,27,28
 537 531 537 531 554 533 c 128,-1,29
 571 535 571 535 618 540 c 1,30,31
 645 540 645 540 668 546 c 128,-1,32
 691 552 691 552 713 563 c 0,33,34
 746 578 746 578 758 605 c 2,35,-1
 782 658 l 1,36,-1
 796 700 l 1,37,38
 744 700 744 700 690 710 c 128,-1,39
 636 720 636 720 568.5 738 c 128,-1,40
 501 756 501 756 424 798 c 1,41,42
 386 820 386 820 350 831.5 c 128,-1,43
 314 843 314 843 278 843 c 0,44,45
 234 843 234 843 198 825.5 c 128,-1,46
 162 808 162 808 130 769 c 1,47,-1
 130 879 l 1,48,49
 196 953 196 953 281 1035 c 0,50,51
 377 1128 377 1128 460 1194 c 0,52,53
 537 1255 537 1255 612 1293 c 0,54,55
 671 1322 671 1322 731.5 1337.5 c 128,-1,56
 792 1353 792 1353 852 1353 c 0,57,58
 960 1353 960 1353 1073 1304 c 0,59,60
 1175 1260 1175 1260 1293 1169 c 0,61,62
 1338 1135 1338 1135 1376 1095 c 1,63,-1
 1453 1017 l 1,64,65
 1495 954 1495 954 1565.5 926.5 c 128,-1,66
 1636 899 1636 899 1691 863 c 1,67,-1
 1691 746 l 1,68,69
 1608 793 1608 793 1562 826 c 0,70,71
 1531 848 1531 848 1480 848 c 0,72,73
 1447 848 1447 848 1405 839 c 1,74,75
 1330 821 1330 821 1258 797 c 2,76,-1
 1113 748 l 2,77,78
 1090 740 1090 740 1055 729 c 0,79,80
 1034 722 1034 722 1001 713 c 1,81,-1
 1402 85 l 2,82,83
 1410 73 1410 73 1416 63 c 0,84,85
 1439 27 1439 27 1444 19 c 0,86,87
 1474 -23 1474 -23 1516 -23 c 0,88,89
 1564 -23 1564 -23 1590 -1 c 128,-1,90
 1616 21 1616 21 1616 68 c 0,91,92
 1616 143 1616 143 1566 168 c 1,93,94
 1543 178 1543 178 1523 178 c 0,95,96
 1497 178 1497 178 1479 159 c 1,97,-1
 1428 201 l 1,98,99
 1457 251 1457 251 1534 251 c 0,100,101
 1600 251 1600 251 1649 191 c 0,102,103
 1691 139 1691 139 1691 63 c 0,104,105
 1691 28 1691 28 1676.5 -1.5 c 128,-1,106
 1662 -31 1662 -31 1633 -57 c 0,107,108
 1584 -103 1584 -103 1512 -103 c 0,109,110
 1483 -103 1483 -103 1457 -90.5 c 128,-1,111
 1431 -78 1431 -78 1409 -55 c 128,-1,112
 1387 -32 1387 -32 1372 -9 c 2,113,-1
 1340 42 l 1,114,-1
 921 696 l 1,0,-1
930 1250 m 1,115,116
 968 1235 968 1235 998 1210 c 0,117,118
 1087 1135 1087 1135 1087 1021 c 0,119,120
 1087 929 1087 929 1027 860 c 0,121,122
 989 817 989 817 931 792 c 1,123,124
 981 801 981 801 1031 817 c 2,125,-1
 1108 843 l 1,126,-1
 1190 870 l 1,127,-1
 1304 898 l 1,128,-1
 1419 925 l 1,129,-1
 1336 1002 l 1,130,131
 1298 1041 1298 1041 1254 1078 c 0,132,133
 1154 1161 1154 1161 1039 1213 c 0,134,135
 988 1236 988 1236 930 1250 c 1,115,116
785 782 m 1,136,137
 717 797 717 797 664 851 c 0,138,139
 630 887 630 887 613 929 c 128,-1,140
 596 971 596 971 596 1021 c 0,141,142
 596 1135 596 1135 686 1210 c 1,143,144
 716 1237 716 1237 758 1252 c 1,145,146
 719 1243 719 1243 694 1235 c 128,-1,147
 669 1227 669 1227 632 1210 c 0,148,149
 584 1187 584 1187 543.5 1163.5 c 128,-1,150
 503 1140 503 1140 465 1110 c 1,151,152
 408 1062 408 1062 356 1007 c 2,153,-1
 252 895 l 1,154,155
 275 899 275 899 300 899 c 0,156,157
 326 899 326 899 356.5 893.5 c 128,-1,158
 387 888 387 888 440 868 c 2,159,-1
 549 827 l 1,160,161
 596 811 596 811 661 798 c 0,162,163
 702 790 702 790 728.5 786 c 128,-1,164
 755 782 755 782 785 782 c 1,136,137
842 1199 m 0,165,166
 766 1199 766 1199 715 1146.5 c 128,-1,167
 664 1094 664 1094 664 1021 c 0,168,169
 664 951 664 951 710 901 c 0,170,171
 763 843 763 843 842 843 c 0,172,173
 919 843 919 843 973 901 c 1,174,175
 1020 953 1020 953 1020 1021 c 0,176,177
 1020 1099 1020 1099 961 1152 c 0,178,179
 909 1199 909 1199 842 1199 c 0,165,166
130 1101 m 1,180,-1
 130 1200 l 1,181,182
 198 1274 198 1274 280 1340 c 1,183,184
 397 1432 397 1432 535 1491 c 0,185,186
 609 1523 609 1523 685 1542 c 0,187,188
 772 1564 772 1564 847 1564 c 0,189,190
 1000 1564 1000 1564 1151 1518 c 1,191,192
 1219 1496 1219 1496 1294 1458 c 0,193,194
 1359 1426 1359 1426 1435 1379 c 0,195,196
 1459 1364 1459 1364 1552 1287 c 0,197,198
 1628 1224 1628 1224 1691 1198 c 1,199,-1
 1691 1099 l 1,200,201
 1630 1117 1630 1117 1510 1219 c 0,202,203
 1431 1286 1431 1286 1398 1309 c 1,204,205
 1324 1354 1324 1354 1265 1384 c 0,206,207
 1192 1422 1192 1422 1124 1445.5 c 128,-1,208
 1056 1469 1056 1469 990 1479 c 128,-1,209
 924 1489 924 1489 851 1489 c 0,210,211
 770 1489 770 1489 700 1472.5 c 128,-1,212
 630 1456 630 1456 561 1423 c 0,213,214
 432 1361 432 1361 319 1276 c 1,215,216
 221 1201 221 1201 130 1101 c 1,180,-1
856 683 m 1,217,218
 849 657 849 657 844 641 c 128,-1,219
 839 625 839 625 830 601 c 1,220,221
 817 560 817 560 780 526 c 128,-1,222
 743 492 743 492 687 480 c 1,223,224
 671 478 671 478 646.5 478 c 128,-1,225
 622 478 622 478 613 478 c 0,226,227
 599 478 599 478 588 477.5 c 128,-1,228
 577 477 577 477 579 472 c 0,229,230
 580 468 580 468 593 458.5 c 128,-1,231
 606 449 606 449 620 439 c 1,232,233
 646 418 646 418 654 411 c 0,234,235
 674 394 674 394 684.5 379.5 c 128,-1,236
 695 365 695 365 704 345 c 0,237,238
 717 316 717 316 730 288 c 1,239,240
 747 256 747 256 767 210 c 0,241,242
 773 195 773 195 787 157 c 0,243,244
 798 126 798 126 810 96 c 2,245,-1
 856 -25 l 1,246,-1
 856 683 l 1,217,218
EndSplineSet
Validated: 1
EndChar

StartChar: iogonek
Encoding: 303 303 192
Width: 1351
Flags: W
LayerCount: 2
Fore
SplineSet
494 -103 m 1,0,-1
 494 79 l 1,1,2
 395 114 395 114 326 187 c 0,3,4
 206 312 206 312 206 506 c 1,5,-1
 344 506 l 1,6,7
 344 360 344 360 430 274 c 1,8,9
 457 244 457 244 494 225 c 1,10,-1
 494 828 l 1,11,12
 430 854 430 854 394 877 c 1,13,14
 327 916 327 916 280 980 c 0,15,16
 257 1013 257 1013 245 1052 c 128,-1,17
 233 1091 233 1091 233 1140 c 0,18,19
 233 1312 233 1312 359 1416 c 0,20,21
 413 1460 413 1460 494 1488 c 1,22,-1
 494 1668 l 1,23,-1
 582 1668 l 1,24,-1
 582 1509 l 1,25,26
 607 1512 607 1512 629 1514 c 128,-1,27
 651 1516 651 1516 671 1516 c 0,28,29
 715 1516 715 1516 769 1506 c 1,30,-1
 769 1668 l 1,31,-1
 856 1668 l 1,32,-1
 856 1479 l 1,33,34
 902 1462 902 1462 946 1430 c 0,35,36
 1024 1373 1024 1373 1065.5 1297.5 c 128,-1,37
 1107 1222 1107 1222 1107 1126 c 1,38,-1
 970 1126 l 1,39,40
 970 1193 970 1193 939 1248 c 128,-1,41
 908 1303 908 1303 856 1336 c 1,42,-1
 856 858 l 1,43,44
 897 840 897 840 940.5 813.5 c 128,-1,45
 984 787 984 787 1023 751 c 1,46,47
 1073 703 1073 703 1108.5 630.5 c 128,-1,48
 1144 558 1144 558 1144 462 c 0,49,50
 1144 258 1144 258 1016 151 c 1,51,52
 953 97 953 97 856 70 c 1,53,-1
 856 -103 l 1,54,-1
 769 -103 l 1,55,-1
 769 53 l 1,56,57
 719 48 719 48 673 48 c 0,58,59
 653 48 653 48 629 48.5 c 128,-1,60
 605 49 605 49 582 56 c 1,61,-1
 582 -103 l 1,62,-1
 494 -103 l 1,0,-1
494 980 m 1,63,-1
 494 1345 l 1,64,65
 471 1334 471 1334 449 1318 c 0,66,67
 422 1298 422 1298 408 1276.5 c 128,-1,68
 394 1255 394 1255 386.5 1221 c 128,-1,69
 379 1187 379 1187 379 1150 c 0,70,71
 379 1090 379 1090 411.5 1049.5 c 128,-1,72
 444 1009 444 1009 494 980 c 1,63,-1
582 1375 m 1,73,-1
 582 942 l 1,74,75
 597 936 597 936 624 928 c 128,-1,76
 651 920 651 920 675 914 c 0,77,78
 722 901 722 901 769 889 c 1,79,-1
 769 1371 l 1,80,81
 722 1383 722 1383 665 1383 c 0,82,83
 633 1383 633 1383 619.5 1382 c 128,-1,84
 606 1381 606 1381 582 1375 c 1,73,-1
582 800 m 1,85,-1
 582 192 l 1,86,87
 629 181 629 181 675 181 c 2,88,-1
 687 181 l 2,89,90
 735 181 735 181 769 188 c 1,91,-1
 769 748 l 1,92,-1
 685 773 l 1,93,94
 655 780 655 780 634.5 785 c 128,-1,95
 614 790 614 790 582 800 c 1,85,-1
856 707 m 1,96,-1
 856 214 l 1,97,98
 891 230 891 230 920 256 c 0,99,100
 1000 328 1000 328 1000 462 c 0,101,102
 1000 585 1000 585 912 667 c 1,103,104
 889 687 889 687 856 707 c 1,96,-1
EndSplineSet
Validated: 1
EndChar

StartChar: Idotaccent
Encoding: 304 304 193
Width: 1351
Flags: W
LayerCount: 2
Fore
SplineSet
593 530 m 1,0,1
 593 470 593 470 573 411 c 128,-1,2
 553 352 553 352 514 286 c 1,3,-1
 583 289 l 1,4,5
 639 289 639 289 688 269 c 128,-1,6
 737 249 737 249 784 225 c 1,7,-1
 874 182 l 1,8,9
 922 163 922 163 970 163 c 0,10,11
 1020 163 1020 163 1056.5 175.5 c 128,-1,12
 1093 188 1093 188 1120 216 c 1,13,-1
 1187 65 l 1,14,15
 1116 0 1116 0 972 0 c 0,16,17
 913 0 913 0 860 21 c 1,18,-1
 759 65 l 2,19,20
 739 74 739 74 710 86 c 0,21,22
 692 93 692 93 658 106 c 0,23,24
 636 114 636 114 606.5 118 c 128,-1,25
 577 122 577 122 549 122 c 0,26,27
 476 122 476 122 388.5 89 c 128,-1,28
 301 56 301 56 242 0 c 1,29,-1
 163 142 l 1,30,31
 303 225 303 225 365 316 c 1,32,33
 397 366 397 366 413.5 418.5 c 128,-1,34
 430 471 430 471 430 530 c 1,35,-1
 211 530 l 1,36,-1
 211 669 l 1,37,-1
 423 669 l 1,38,39
 414 741 414 741 380 800 c 1,40,-1
 211 800 l 1,41,-1
 211 939 l 1,42,-1
 318 939 l 1,43,44
 300 1007 300 1007 300 1073 c 0,45,46
 300 1250 300 1250 411 1384 c 0,47,48
 537 1536 537 1536 725 1536 c 0,49,50
 882 1536 882 1536 1002 1423 c 0,51,52
 1118 1313 1118 1313 1145 1145 c 1,53,-1
 992 1106 l 1,54,55
 980 1214 980 1214 904.5 1289.5 c 128,-1,56
 829 1365 829 1365 725 1365 c 0,57,58
 600 1365 600 1365 518 1258 c 1,59,60
 457 1176 457 1176 457 1073 c 0,61,62
 457 1003 457 1003 486 939 c 1,63,-1
 865 939 l 1,64,-1
 865 800 l 1,65,-1
 556 800 l 1,66,67
 580 741 580 741 589 669 c 1,68,-1
 865 669 l 1,69,-1
 865 530 l 1,70,-1
 593 530 l 1,0,1
EndSplineSet
Validated: 1
EndChar

StartChar: dotlessi
Encoding: 305 305 194
Width: 1351
Flags: W
LayerCount: 2
Fore
SplineSet
969 551 m 1,0,-1
 497 551 l 1,1,2
 497 479 497 479 517 405 c 0,3,4
 534 342 534 342 566 279 c 0,5,6
 612 189 612 189 679 140 c 0,7,8
 755 85 755 85 857 85 c 0,9,10
 947 85 947 85 1028.5 166 c 128,-1,11
 1110 247 1110 247 1149 324 c 1,12,-1
 1221 324 l 1,13,-1
 1221 0 l 1,14,-1
 1152 0 l 1,15,16
 1152 43 1152 43 1138.5 71.5 c 128,-1,17
 1125 100 1125 100 1104 103 c 1,18,19
 1093 103 1093 103 1081 94 c 2,20,-1
 1063 80 l 1,21,22
 1004 41 1004 41 946.5 20.5 c 128,-1,23
 889 0 889 0 834 0 c 0,24,25
 557 0 557 0 401 214 c 0,26,27
 302 349 302 349 272 551 c 1,28,-1
 130 551 l 1,29,-1
 185 686 l 1,30,-1
 259 686 l 1,31,-1
 257 751 l 1,32,-1
 259 815 l 1,33,-1
 130 815 l 1,34,-1
 186 950 l 1,35,-1
 273 950 l 1,36,37
 288 1048 288 1048 324.5 1140.5 c 128,-1,38
 361 1233 361 1233 425 1311 c 0,39,40
 580 1497 580 1497 834 1497 c 0,41,42
 975 1497 975 1497 1086 1422 c 0,43,44
 1101 1411 1101 1411 1115 1411 c 0,45,46
 1123 1411 1123 1411 1128 1415 c 1,47,48
 1139 1421 1139 1421 1145.5 1442.5 c 128,-1,49
 1152 1464 1152 1464 1152 1501 c 1,50,-1
 1221 1501 l 1,51,-1
 1221 1178 l 1,52,-1
 1152 1178 l 1,53,54
 1113 1280 1113 1280 1046.5 1346.5 c 128,-1,55
 980 1413 980 1413 857 1413 c 0,56,57
 668 1413 668 1413 577 1237 c 0,58,59
 545 1174 545 1174 525 1098 c 1,60,61
 509 1030 509 1030 500 950 c 1,62,-1
 1134 950 l 1,63,-1
 1078 815 l 1,64,-1
 492 815 l 1,65,-1
 490 750 l 1,66,-1
 491 686 l 1,67,-1
 1025 686 l 1,68,-1
 969 551 l 1,0,-1
EndSplineSet
Validated: 1
EndChar

StartChar: IJ
Encoding: 306 306 195
Width: 1351
Flags: W
LayerCount: 2
Fore
SplineSet
240 475 m 1,0,-1
 601 475 l 1,1,-1
 601 622 l 1,2,-1
 240 622 l 1,3,-1
 240 770 l 1,4,-1
 530 770 l 1,5,-1
 191 1502 l 1,6,-1
 359 1502 l 1,7,-1
 676 819 l 1,8,-1
 992 1502 l 1,9,-1
 1160 1502 l 1,10,-1
 821 770 l 1,11,-1
 1111 770 l 1,12,-1
 1111 622 l 1,13,-1
 750 622 l 1,14,-1
 750 475 l 1,15,-1
 1111 475 l 1,16,-1
 1111 327 l 1,17,-1
 750 327 l 1,18,-1
 750 0 l 1,19,-1
 601 0 l 1,20,-1
 601 327 l 1,21,-1
 240 327 l 1,22,-1
 240 475 l 1,0,-1
EndSplineSet
Validated: 1
EndChar

StartChar: ij
Encoding: 307 307 196
Width: 1822
Flags: W
LayerCount: 2
Fore
SplineSet
594 139 m 1,0,-1
 1227 139 l 1,1,-1
 1227 866 l 1,2,-1
 594 866 l 1,3,-1
 594 139 l 1,0,-1
426 1190 m 1,4,-1
 592 1190 l 1,5,6
 592 1239 592 1239 604 1272 c 0,7,8
 622 1323 622 1323 622 1378 c 0,9,10
 622 1402 622 1402 620 1419 c 128,-1,11
 618 1436 618 1436 611 1459 c 1,12,13
 605 1484 605 1484 589 1511 c 1,14,-1
 641 1467 l 1,15,16
 678 1428 678 1428 700 1385 c 1,17,18
 724 1332 724 1332 724 1239 c 1,19,-1
 722 1190 l 1,20,-1
 739 1190 l 1,21,22
 773 1261 773 1261 773 1319 c 0,23,24
 773 1355 773 1355 763.5 1388 c 128,-1,25
 754 1421 754 1421 754 1458 c 0,26,27
 754 1478 754 1478 759 1498.5 c 128,-1,28
 764 1519 764 1519 777.5 1549.5 c 128,-1,29
 791 1580 791 1580 822 1623 c 1,30,-1
 859 1668 l 1,31,-1
 847 1610 l 2,32,33
 840 1579 840 1579 837 1555 c 1,34,-1
 837 1491 l 2,35,36
 837 1461 837 1461 854 1407 c 0,37,38
 868 1360 868 1360 895 1318 c 1,39,40
 909 1293 909 1293 917 1269 c 2,41,-1
 929 1236 l 1,42,43
 975 1302 975 1302 975 1357 c 0,44,45
 975 1390 975 1390 965.5 1421.5 c 128,-1,46
 956 1453 956 1453 956 1488 c 0,47,48
 956 1528 956 1528 969 1551 c 0,49,50
 991 1591 991 1591 1025 1619 c 1,51,-1
 1054 1634 l 1,52,-1
 1044 1612 l 1,53,54
 1038 1591 1038 1591 1036.5 1577 c 128,-1,55
 1035 1563 1035 1563 1035 1539 c 0,56,57
 1035 1510 1035 1510 1040 1482.5 c 128,-1,58
 1045 1455 1045 1455 1061 1415 c 0,59,60
 1088 1347 1088 1347 1088 1305 c 0,61,62
 1088 1244 1088 1244 1063 1190 c 1,63,-1
 1097 1190 l 1,64,-1
 1097 1191 l 1,65,66
 1113 1220 1113 1220 1134 1274 c 0,67,68
 1138 1284 1138 1284 1147 1320 c 0,69,70
 1162 1376 1162 1376 1163 1381 c 0,71,72
 1179 1466 1179 1466 1179 1523 c 2,73,-1
 1179 1533 l 1,74,75
 1178 1554 1178 1554 1177 1562 c 1,76,77
 1189 1547 1189 1547 1198 1526 c 0,78,79
 1214 1492 1214 1492 1223 1439 c 128,-1,80
 1232 1386 1232 1386 1232 1319 c 0,81,82
 1232 1240 1232 1240 1218 1190 c 1,83,-1
 1395 1190 l 1,84,85
 1329 1130 1329 1130 1245.5 1079.5 c 128,-1,86
 1162 1029 1162 1029 1073 1001 c 1,87,-1
 1600 1001 l 1,88,-1
 1600 866 l 1,89,-1
 1364 866 l 1,90,-1
 1364 139 l 1,91,-1
 1446 139 l 1,92,-1
 1446 0 l 1,93,-1
 375 0 l 1,94,-1
 375 139 l 1,95,-1
 456 139 l 1,96,-1
 456 866 l 1,97,-1
 221 866 l 1,98,-1
 221 1001 l 1,99,-1
 746 1001 l 1,100,101
 658 1028 658 1028 578 1078 c 128,-1,102
 498 1128 498 1128 426 1190 c 1,4,-1
911 538 m 256,103,104
 962 538 962 538 962 487 c 256,105,106
 962 436 962 436 911 436 c 256,107,108
 860 436 860 436 860 487 c 256,109,110
 860 538 860 538 911 538 c 256,103,104
753 812 m 256,111,112
 804 812 804 812 804 762 c 0,113,114
 804 711 804 711 753 711 c 256,115,116
 702 711 702 711 702 762 c 0,117,118
 702 812 702 812 753 812 c 256,111,112
911 812 m 256,119,120
 962 812 962 812 962 762 c 0,121,122
 962 711 962 711 911 711 c 256,123,124
 860 711 860 711 860 762 c 0,125,126
 860 812 860 812 911 812 c 256,119,120
1068 812 m 256,127,128
 1119 812 1119 812 1119 762 c 0,129,130
 1119 711 1119 711 1068 711 c 256,131,132
 1017 711 1017 711 1017 762 c 0,133,134
 1017 812 1017 812 1068 812 c 256,127,128
832 675 m 256,135,136
 883 675 883 675 883 624 c 256,137,138
 883 573 883 573 832 573 c 256,139,140
 781 573 781 573 781 624 c 256,141,142
 781 675 781 675 832 675 c 256,135,136
989 675 m 256,143,144
 1040 675 1040 675 1040 624 c 256,145,146
 1040 573 1040 573 989 573 c 256,147,148
 938 573 938 573 938 624 c 256,149,150
 938 675 938 675 989 675 c 256,143,144
EndSplineSet
Validated: 1
EndChar

StartChar: Jcircumflex
Encoding: 308 308 197
Width: 1822
Flags: W
LayerCount: 2
Fore
SplineSet
1279 1055 m 0,0,1
 1193 991 1193 991 1083 961 c 1,2,-1
 1415 961 l 1,3,-1
 1415 807 l 1,4,-1
 1233 807 l 1,5,-1
 1233 0 l 1,6,-1
 1078 0 l 1,7,-1
 1078 807 l 1,8,-1
 742 807 l 1,9,-1
 742 0 l 1,10,-1
 587 0 l 1,11,-1
 587 807 l 1,12,-1
 406 807 l 1,13,-1
 406 961 l 1,14,-1
 718 961 l 1,15,16
 657 977 657 977 610.5 997 c 128,-1,17
 564 1017 564 1017 526 1047.5 c 128,-1,18
 488 1078 488 1078 465 1112 c 0,19,20
 438 1153 438 1153 438 1193 c 0,21,22
 438 1243 438 1243 460.5 1281.5 c 128,-1,23
 483 1320 483 1320 518 1363 c 1,24,-1
 597 1451 l 1,25,26
 638 1494 638 1494 652 1537.5 c 128,-1,27
 666 1581 666 1581 666 1620 c 0,28,29
 666 1644 666 1644 660 1667 c 1,30,-1
 663 1668 l 1,31,32
 717 1636 717 1636 741 1589 c 1,33,34
 755 1558 755 1558 755 1525 c 0,35,36
 755 1499 755 1499 748 1475 c 0,37,38
 738 1445 738 1445 723 1418 c 2,39,-1
 691 1363 l 1,40,-1
 657 1298 l 1,41,42
 644 1266 644 1266 644 1231 c 0,43,44
 644 1203 644 1203 646.5 1188.5 c 128,-1,45
 649 1174 649 1174 658 1158 c 1,46,47
 664 1145 664 1145 690 1128.5 c 128,-1,48
 716 1112 716 1112 742 1102 c 0,49,50
 776 1088 776 1088 814 1084 c 128,-1,51
 852 1080 852 1080 906 1080 c 0,52,53
 951 1080 951 1080 986 1084 c 128,-1,54
 1021 1088 1021 1088 1054 1099 c 1,55,56
 1101 1111 1101 1111 1136.5 1141.5 c 128,-1,57
 1172 1172 1172 1172 1172 1227 c 0,58,59
 1172 1266 1172 1266 1151 1302 c 1,60,-1
 1114 1372 l 1,61,-1
 1078 1439 l 1,62,63
 1059 1477 1059 1477 1059 1518 c 0,64,65
 1059 1537 1059 1537 1066.5 1559 c 128,-1,66
 1074 1581 1074 1581 1090 1606 c 0,67,68
 1114 1643 1114 1643 1147 1668 c 1,69,-1
 1151 1667 l 1,70,71
 1146 1637 1146 1637 1146 1616 c 0,72,73
 1146 1582 1146 1582 1157 1549 c 0,74,75
 1174 1501 1174 1501 1211 1462 c 1,76,-1
 1290 1383 l 1,77,78
 1325 1345 1325 1345 1355 1303 c 0,79,80
 1382 1264 1382 1264 1382 1215 c 0,81,82
 1382 1131 1382 1131 1279 1055 c 0,0,1
EndSplineSet
Validated: 1
EndChar

StartChar: Kcommaaccent
Encoding: 310 310 198
Width: 1277
Flags: W
LayerCount: 2
Fore
SplineSet
505 1488 m 0,0,1
 650 1488 650 1488 742 1375 c 1,2,-1
 638 1329 l 1,3,4
 584 1407 584 1407 505 1407 c 0,5,6
 422 1407 422 1407 370 1324 c 0,7,8
 350 1291 350 1291 340 1256.5 c 128,-1,9
 330 1222 330 1222 330 1179 c 0,10,11
 330 1097 330 1097 370 1035 c 1,12,13
 421 952 421 952 505 952 c 0,14,15
 582 952 582 952 638 1030 c 1,16,-1
 742 984 l 1,17,18
 650 871 650 871 505 871 c 0,19,20
 388 871 388 871 299 951 c 0,21,22
 198 1043 198 1043 198 1179 c 0,23,24
 198 1297 198 1297 278 1386 c 1,25,26
 368 1488 368 1488 505 1488 c 0,0,1
489 1589 m 0,27,28
 295 1589 295 1589 173 1440 c 0,29,30
 79 1325 79 1325 79 1179 c 0,31,32
 79 1016 79 1016 193 897 c 0,33,34
 314 770 314 770 489 770 c 0,35,36
 670 770 670 770 792 904 c 1,37,38
 898 1022 898 1022 898 1179 c 0,39,40
 898 1326 898 1326 805 1440 c 1,41,42
 680 1589 680 1589 489 1589 c 0,27,28
489 1668 m 0,43,44
 703 1668 703 1668 850 1508 c 0,45,46
 914 1438 914 1438 945.5 1356.5 c 128,-1,47
 977 1275 977 1275 977 1179 c 0,48,49
 977 983 977 983 842 843 c 1,50,51
 698 691 698 691 489 691 c 0,52,53
 287 691 287 691 143.5 834.5 c 128,-1,54
 0 978 0 978 0 1179 c 0,55,56
 0 1367 0 1367 128 1508 c 0,57,58
 273 1668 273 1668 489 1668 c 0,43,44
EndSplineSet
Validated: 1
EndChar

StartChar: kcommaaccent
Encoding: 311 311 199
Width: 1822
Flags: W
LayerCount: 2
Fore
SplineSet
243 229 m 1,0,-1
 382 369 l 1,1,2
 300 460 300 460 240 548 c 0,3,4
 205 599 205 599 177.5 651 c 128,-1,5
 150 703 150 703 130 756 c 0,6,7
 92 861 92 861 92 986 c 0,8,9
 92 1127 92 1127 178 1194 c 1,10,11
 220 1225 220 1225 265.5 1240.5 c 128,-1,12
 311 1256 311 1256 363 1256 c 0,13,14
 466 1256 466 1256 564 1198.5 c 128,-1,15
 662 1141 662 1141 698 1026 c 1,16,17
 734 1139 734 1139 833.5 1198.5 c 128,-1,18
 933 1258 933 1258 1036 1258 c 0,19,20
 1135 1258 1135 1258 1216 1200 c 1,21,-1
 1283 1266 l 1,22,-1
 1245 1411 l 1,23,-1
 1496 1662 l 1,24,-1
 1533 1514 l 1,25,-1
 1353 1333 l 1,26,-1
 1414 1270 l 1,27,-1
 1599 1458 l 1,28,-1
 1751 1423 l 1,29,-1
 1508 1169 l 1,30,-1
 1349 1204 l 1,31,-1
 1275 1130 l 1,32,33
 1306 1070 1306 1070 1306 995 c 0,34,35
 1306 757 1306 757 1156 545 c 0,36,37
 1010 337 1010 337 698 53 c 1,38,39
 553 185 553 185 443 302 c 1,40,-1
 304 163 l 1,41,42
 316 153 316 153 329.5 144.5 c 128,-1,43
 343 136 343 136 361 128 c 0,44,45
 400 110 400 110 440 104 c 1,46,-1
 70 0 l 1,47,-1
 193 363 l 1,48,49
 193 343 193 343 197.5 326 c 128,-1,50
 202 309 202 309 212 286 c 0,51,52
 219 268 219 268 225 257 c 128,-1,53
 231 246 231 246 243 229 c 1,0,-1
700 785 m 1,54,55
 684 823 684 823 625.5 903 c 128,-1,56
 567 983 567 983 494 1030 c 0,57,58
 437 1066 437 1066 388 1066 c 0,59,60
 352 1066 352 1066 318 1046 c 1,61,62
 259 1007 259 1007 259 925 c 0,63,64
 259 887 259 887 273 836 c 0,65,66
 294 761 294 761 343 683 c 0,67,68
 368 643 368 643 387 616.5 c 128,-1,69
 406 590 406 590 417 578 c 1,70,-1
 536 425 l 2,71,72
 613 325 613 325 698 244 c 1,73,74
 785 319 785 319 871 427 c 0,75,76
 954 531 954 531 998 581 c 0,77,78
 1021 606 1021 606 1060.5 675.5 c 128,-1,79
 1100 745 1100 745 1126 825 c 1,80,81
 1141 879 1141 879 1141 924 c 0,82,83
 1141 958 1141 958 1132 988 c 1,84,-1
 1009 865 l 1,85,86
 1050 817 1050 817 1050 790 c 0,87,88
 1050 783 1050 783 1046 776.5 c 128,-1,89
 1042 770 1042 770 1032 770 c 256,90,91
 1022 770 1022 770 1003 778 c 0,92,93
 971 793 971 793 931.5 828.5 c 128,-1,94
 892 864 892 864 869 901 c 0,95,96
 854 927 854 927 854 941 c 0,97,98
 854 947 854 947 858 954 c 128,-1,99
 862 961 862 961 874 961 c 0,100,101
 895 961 895 961 943 928 c 1,102,-1
 1069 1054 l 1,103,104
 1051 1062 1051 1062 1034.5 1065 c 128,-1,105
 1018 1068 1018 1068 997 1068 c 0,106,107
 935 1068 935 1068 870 1026 c 0,108,109
 798 979 798 979 755.5 898.5 c 128,-1,110
 713 818 713 818 700 785 c 1,54,55
EndSplineSet
Validated: 1
EndChar

StartChar: kgreenlandic
Encoding: 312 312 200
Width: 1822
Flags: W
LayerCount: 2
Fore
SplineSet
1064 1408 m 1,0,-1
 908 792 l 1,1,-1
 913 792 l 2,2,3
 1020 792 1020 792 1088 832.5 c 128,-1,4
 1156 873 1156 873 1207 947 c 128,-1,5
 1258 1021 1258 1021 1284 1153.5 c 128,-1,6
 1310 1286 1310 1286 1334.5 1365.5 c 128,-1,7
 1359 1445 1359 1445 1395 1504.5 c 128,-1,8
 1431 1564 1431 1564 1521 1564 c 256,9,10
 1611 1564 1611 1564 1651.5 1496.5 c 128,-1,11
 1692 1429 1692 1429 1692 1339 c 1,12,13
 1622 1412 1622 1412 1578 1412 c 0,14,15
 1524 1412 1524 1412 1496.5 1314.5 c 128,-1,16
 1469 1217 1469 1217 1442 1079.5 c 128,-1,17
 1415 942 1415 942 1349 846 c 0,18,19
 1264 724 1264 724 1145 671 c 0,20,21
 1091 647 1091 647 1023.5 637 c 128,-1,22
 956 627 956 627 867 627 c 1,23,-1
 708 0 l 1,24,-1
 526 0 l 1,25,-1
 694 662 l 1,26,27
 628 688 628 688 577.5 734 c 128,-1,28
 527 780 527 780 467 852 c 1,29,30
 413 919 413 919 387 1053 c 1,31,32
 375 1123 375 1123 363 1177 c 128,-1,33
 351 1231 351 1231 334 1286 c 1,34,35
 304 1411 304 1411 243 1411 c 0,36,37
 198 1411 198 1411 130 1336 c 1,38,39
 130 1434 130 1434 172.5 1499 c 128,-1,40
 215 1564 215 1564 305 1564 c 0,41,42
 394 1564 394 1564 430 1497.5 c 128,-1,43
 466 1431 466 1431 490 1356 c 1,44,45
 522 1250 522 1250 541 1141 c 128,-1,46
 560 1032 560 1032 616 945 c 1,47,48
 660 873 660 873 737 832 c 1,49,-1
 883 1408 l 1,50,-1
 1064 1408 l 1,0,-1
EndSplineSet
Validated: 1
EndChar

StartChar: Lacute
Encoding: 313 313 201
Width: 1822
Flags: W
LayerCount: 2
Fore
SplineSet
429 513 m 1,0,-1
 635 513 l 1,1,-1
 823 208 l 1,2,-1
 823 879 l 1,3,4
 695 906 695 906 605 1011 c 1,5,6
 511 1123 511 1123 511 1269 c 0,7,8
 511 1431 511 1431 628 1549.5 c 128,-1,9
 745 1668 745 1668 910 1668 c 256,10,11
 1075 1668 1075 1668 1192 1551 c 128,-1,12
 1309 1434 1309 1434 1309 1269 c 0,13,14
 1309 1116 1309 1116 1210 1005 c 0,15,16
 1123 906 1123 906 997 879 c 1,17,-1
 997 208 l 1,18,-1
 1186 513 l 1,19,-1
 1391 513 l 1,20,-1
 1691 0 l 1,21,-1
 1486 0 l 1,22,-1
 1288 348 l 1,23,-1
 1072 0 l 1,24,-1
 748 0 l 1,25,-1
 532 348 l 1,26,-1
 335 0 l 1,27,-1
 130 0 l 1,28,-1
 429 513 l 1,0,-1
910 1502 m 0,29,30
 814 1502 814 1502 745.5 1433.5 c 128,-1,31
 677 1365 677 1365 677 1269 c 0,32,33
 677 1172 677 1172 745.5 1103.5 c 128,-1,34
 814 1035 814 1035 910 1035 c 0,35,36
 1012 1035 1012 1035 1083 1112 c 0,37,38
 1144 1179 1144 1179 1144 1269 c 0,39,40
 1144 1362 1144 1362 1075.5 1432 c 128,-1,41
 1007 1502 1007 1502 910 1502 c 0,29,30
EndSplineSet
Validated: 1
EndChar

StartChar: lacute
Encoding: 314 314 202
Width: 1822
Flags: W
LayerCount: 2
Fore
SplineSet
1501 1138 m 1,0,-1
 1501 0 l 1,1,-1
 1325 0 l 1,2,-1
 512 976 l 1,3,-1
 512 136 l 1,4,5
 585 112 585 112 639 52 c 1,6,7
 708 -28 708 -28 708 -132 c 0,8,9
 708 -250 708 -250 625 -333 c 128,-1,10
 542 -416 542 -416 425 -416 c 0,11,12
 302 -416 302 -416 216 -323 c 1,13,14
 142 -240 142 -240 142 -132 c 0,15,16
 142 -38 142 -38 196 34 c 128,-1,17
 250 106 250 106 338 136 c 1,18,-1
 338 1244 l 1,19,-1
 512 1244 l 1,20,-1
 1327 270 l 1,21,-1
 1327 1138 l 1,22,23
 1276 1129 1276 1129 1237 1110 c 1,24,25
 1188 1089 1188 1089 1147 1056 c 1,26,-1
 1414 1563 l 1,27,-1
 1680 1056 l 1,28,29
 1639 1089 1639 1089 1586 1112 c 0,30,31
 1568 1120 1568 1120 1551 1125 c 128,-1,32
 1534 1130 1534 1130 1501 1138 c 1,0,-1
425 27 m 0,33,34
 359 27 359 27 312 -19.5 c 128,-1,35
 265 -66 265 -66 265 -132 c 0,36,37
 265 -199 265 -199 312 -246 c 128,-1,38
 359 -293 359 -293 425 -293 c 256,39,40
 491 -293 491 -293 538.5 -246 c 128,-1,41
 586 -199 586 -199 586 -132 c 0,42,43
 586 -67 586 -67 537.5 -20 c 128,-1,44
 489 27 489 27 425 27 c 0,33,34
EndSplineSet
Validated: 1
EndChar

StartChar: Lcommaaccent
Encoding: 315 315 203
Width: 1277
Flags: W
LayerCount: 2
Fore
SplineSet
489 1668 m 0,0,1
 690 1668 690 1668 833.5 1524 c 128,-1,2
 977 1380 977 1380 977 1179 c 0,3,4
 977 990 977 990 850 851 c 0,5,6
 704 691 704 691 489 691 c 256,7,8
 274 691 274 691 127 851 c 0,9,10
 0 990 0 990 0 1179 c 0,11,12
 0 1370 0 1370 135 1516 c 1,13,14
 278 1668 278 1668 489 1668 c 0,0,1
489 1589 m 0,15,16
 308 1589 308 1589 186 1454 c 0,17,18
 79 1336 79 1336 79 1179 c 0,19,20
 79 1023 79 1023 186 904 c 0,21,22
 308 770 308 770 489 770 c 0,23,24
 682 770 682 770 804 919 c 0,25,26
 850 975 850 975 874 1040 c 128,-1,27
 898 1105 898 1105 898 1179 c 0,28,29
 898 1342 898 1342 785 1462 c 1,30,31
 661 1589 661 1589 489 1589 c 0,15,16
391 1408 m 1,32,-1
 391 1223 l 1,33,-1
 514 1223 l 2,34,35
 556 1223 556 1223 585.5 1247.5 c 128,-1,36
 615 1272 615 1272 615 1315 c 0,37,38
 615 1355 615 1355 587 1383 c 1,39,40
 557 1408 557 1408 514 1408 c 2,41,-1
 391 1408 l 1,32,-1
535 1152 m 1,42,-1
 725 880 l 1,43,-1
 606 880 l 1,44,-1
 451 1152 l 1,45,-1
 391 1152 l 1,46,-1
 391 880 l 1,47,-1
 284 880 l 1,48,-1
 284 1478 l 1,49,-1
 545 1478 l 2,50,51
 620 1478 620 1478 672 1430.5 c 128,-1,52
 724 1383 724 1383 724 1316 c 0,53,54
 724 1244 724 1244 665 1195 c 0,55,56
 639 1174 639 1174 607.5 1163 c 128,-1,57
 576 1152 576 1152 535 1152 c 1,42,-1
EndSplineSet
Validated: 1
EndChar

StartChar: lcommaaccent
Encoding: 316 316 204
Width: 1822
Flags: W
LayerCount: 2
Fore
SplineSet
1348 1052 m 0,0,1
 1400 999 1400 999 1400 950 c 0,2,3
 1400 942 1400 942 1399 933 c 1,4,5
 1397 926 1397 926 1396 923 c 1,6,7
 1425 877 1425 877 1425 826 c 0,8,9
 1425 746 1425 746 1353 677 c 0,10,11
 1289 616 1289 616 1181 577 c 1,12,13
 1360 509 1360 509 1360 395 c 0,14,15
 1360 275 1360 275 1166 208 c 1,16,17
 1294 151 1294 151 1294 63 c 256,18,19
 1294 -25 1294 -25 1156 -84 c 1,20,21
 1272 -132 1272 -132 1293 -207 c 1,22,23
 1228 -174 1228 -174 1158 -157 c 0,24,25
 1077 -137 1077 -137 987 -137 c 1,26,-1
 987 -234 l 1,27,-1
 856 -234 l 1,28,-1
 856 -137 l 1,29,30
 764 -137 764 -137 690 -155 c 128,-1,31
 616 -173 616 -173 552 -207 c 1,32,33
 567 -132 567 -132 687 -84 c 1,34,35
 549 -27 549 -27 549 63 c 0,36,37
 549 150 549 150 677 208 c 1,38,39
 483 274 483 274 483 395 c 0,40,41
 483 508 483 508 662 577 c 1,42,43
 554 615 554 615 490 677 c 1,44,45
 418 745 418 745 418 826 c 0,46,47
 418 879 418 879 453 932 c 1,48,49
 451 944 451 944 451 951 c 0,50,51
 451 999 451 999 503 1052 c 0,52,53
 544 1093 544 1093 599 1111 c 1,54,55
 628 1119 628 1119 649 1119 c 0,56,57
 671 1119 671 1119 689 1110 c 1,58,-1
 571 991 l 1,59,-1
 721 1038 l 1,60,61
 715 990 715 990 671 948 c 1,62,63
 624 900 624 900 564 885 c 1,64,65
 555 869 555 869 551.5 856 c 128,-1,66
 548 843 548 843 548 826 c 0,67,68
 548 740 548 740 664 678 c 0,69,70
 744 636 744 636 856 624 c 1,71,-1
 856 1253 l 1,72,73
 766 1220 766 1220 663 1220 c 0,74,75
 506 1220 506 1220 372 1285 c 0,76,77
 316 1312 316 1312 260 1349 c 128,-1,78
 204 1386 204 1386 144 1431 c 1,79,80
 161 1429 161 1429 184 1428 c 128,-1,81
 207 1427 207 1427 226 1427 c 0,82,83
 275 1427 275 1427 326 1435 c 0,84,85
 406 1448 406 1448 463 1480 c 0,86,87
 514 1508 514 1508 604 1542 c 1,88,89
 667 1564 667 1564 701 1564 c 0,90,91
 722 1564 722 1564 730 1554.5 c 128,-1,92
 738 1545 738 1545 738 1532 c 0,93,94
 738 1523 738 1523 733.5 1509 c 128,-1,95
 729 1495 729 1495 729 1485 c 0,96,97
 729 1470 729 1470 739 1460 c 0,98,99
 754 1446 754 1446 779 1441 c 0,100,101
 786 1439 786 1439 805 1439 c 0,102,103
 828 1439 828 1439 860 1445 c 1,104,105
 844 1466 844 1466 844 1490 c 0,106,107
 844 1520 844 1520 866 1542 c 128,-1,108
 888 1564 888 1564 921 1564 c 0,109,110
 950 1564 950 1564 973 1545 c 1,111,112
 998 1520 998 1520 998 1490 c 0,113,114
 998 1465 998 1465 982 1445 c 1,115,116
 1000 1441 1000 1441 1013.5 1440 c 128,-1,117
 1027 1439 1027 1439 1044 1439 c 0,118,119
 1082 1439 1082 1439 1103 1460 c 0,120,121
 1112 1469 1112 1469 1112 1484 c 0,122,123
 1112 1488 1112 1488 1110.5 1495 c 128,-1,124
 1109 1502 1109 1502 1108 1506 c 0,125,126
 1104 1518 1104 1518 1104 1530 c 0,127,128
 1104 1544 1104 1544 1112 1554 c 128,-1,129
 1120 1564 1120 1564 1141 1564 c 0,130,131
 1175 1564 1175 1564 1238 1542 c 0,132,133
 1315 1515 1315 1515 1362.5 1487.5 c 128,-1,134
 1410 1460 1410 1460 1476 1445 c 0,135,136
 1521 1434 1521 1434 1591 1434 c 2,137,-1
 1596 1434 l 2,138,139
 1631 1434 1631 1434 1677 1438 c 1,140,-1
 1552 1348 l 2,141,142
 1495 1308 1495 1308 1435 1279 c 0,143,144
 1314 1220 1314 1220 1179 1220 c 0,145,146
 1076 1220 1076 1220 987 1253 c 1,147,-1
 987 624 l 1,148,149
 1092 633 1092 633 1173 675 c 1,150,151
 1295 735 1295 735 1295 826 c 0,152,153
 1295 857 1295 857 1278 888 c 1,154,155
 1225 903 1225 903 1181.5 946 c 128,-1,156
 1138 989 1138 989 1130 1038 c 1,157,-1
 1281 991 l 1,158,-1
 1162 1110 l 1,159,160
 1180 1119 1180 1119 1202 1119 c 0,161,162
 1222 1119 1222 1119 1251 1111 c 0,163,164
 1306 1094 1306 1094 1348 1052 c 0,0,1
987 532 m 1,165,-1
 987 259 l 1,166,167
 1091 268 1091 268 1160 306 c 128,-1,168
 1229 344 1229 344 1229 395 c 0,169,170
 1229 444 1229 444 1160 482 c 128,-1,171
 1091 520 1091 520 987 532 c 1,165,-1
987 166 m 1,172,-1
 987 -38 l 1,173,174
 1063 -29 1063 -29 1112 0 c 1,175,176
 1163 27 1163 27 1163 63 c 0,177,178
 1163 98 1163 98 1112.5 127 c 128,-1,179
 1062 156 1062 156 987 166 c 1,172,-1
856 -38 m 1,180,-1
 856 166 l 1,181,182
 780 157 780 157 730 128 c 128,-1,183
 680 99 680 99 680 63 c 256,184,185
 680 27 680 27 728 0.5 c 128,-1,186
 776 -26 776 -26 856 -38 c 1,180,-1
856 259 m 1,187,-1
 856 532 l 1,188,189
 753 522 753 522 683.5 483.5 c 128,-1,190
 614 445 614 445 614 395 c 256,191,192
 614 345 614 345 682 307.5 c 128,-1,193
 750 270 750 270 856 259 c 1,187,-1
EndSplineSet
Validated: 1
EndChar

StartChar: Lcaron
Encoding: 317 317 205
Width: 1822
Flags: W
LayerCount: 2
Fore
SplineSet
505 675 m 1,0,-1
 861 675 l 1,1,2
 879 784 879 784 956 867 c 0,3,4
 1045 963 1045 963 1175 989 c 1,5,-1
 1175 1308 l 1,6,7
 1131 1300 1131 1300 1091 1281.5 c 128,-1,8
 1051 1263 1051 1263 1021 1239 c 1,9,-1
 1246 1667 l 1,10,-1
 1472 1239 l 1,11,12
 1438 1265 1438 1265 1391 1286 c 0,13,14
 1360 1299 1360 1299 1318 1308 c 1,15,-1
 1318 989 l 1,16,17
 1427 969 1427 969 1510 894 c 0,18,19
 1639 777 1639 777 1639 603 c 0,20,21
 1639 454 1639 454 1537 340 c 1,22,23
 1446 241 1446 241 1318 217 c 1,24,-1
 1318 -58 l 1,25,26
 1358 -50 1358 -50 1391 -36 c 0,27,28
 1434 -19 1434 -19 1472 10 c 1,29,-1
 1247 -416 l 1,30,-1
 1021 10 l 1,31,32
 1056 -15 1056 -15 1092 -32 c 1,33,34
 1122 -45 1122 -45 1175 -58 c 1,35,-1
 1175 217 l 1,36,37
 1040 241 1040 241 950 347 c 1,38,39
 882 425 882 425 861 532 c 1,40,-1
 182 532 l 1,41,42
 261 579 261 579 328.5 671.5 c 128,-1,43
 396 764 396 764 445 894 c 1,44,45
 482 999 482 999 499 1094.5 c 128,-1,46
 516 1190 516 1190 516 1279 c 0,47,48
 516 1343 516 1343 498.5 1395.5 c 128,-1,49
 481 1448 481 1448 448 1490 c 1,50,51
 409 1537 409 1537 354 1562 c 0,52,53
 312 1580 312 1580 267 1580 c 0,54,55
 227 1580 227 1580 182 1561 c 1,56,57
 188 1568 188 1568 199.5 1577.5 c 128,-1,58
 211 1587 211 1587 226 1596 c 0,59,60
 233 1601 233 1601 247 1608.5 c 128,-1,61
 261 1616 261 1616 274 1623 c 0,62,63
 319 1645 319 1645 355.5 1656.5 c 128,-1,64
 392 1668 392 1668 428 1668 c 0,65,66
 507 1668 507 1668 574 1604 c 1,67,68
 633 1544 633 1544 661 1443 c 0,69,70
 682 1365 682 1365 682 1274 c 0,71,72
 682 1230 682 1230 677 1183.5 c 128,-1,73
 672 1137 672 1137 662 1085 c 0,74,75
 636 954 636 954 585 835 c 0,76,77
 568 794 568 794 550 758 c 128,-1,78
 532 722 532 722 505 675 c 1,0,-1
1247 853 m 0,79,80
 1130 853 1130 853 1054 762 c 1,81,82
 998 692 998 692 998 603 c 0,83,84
 998 507 998 507 1062 436 c 1,85,86
 1138 354 1138 354 1247 354 c 0,87,88
 1347 354 1347 354 1421.5 427 c 128,-1,89
 1496 500 1496 500 1496 603 c 0,90,91
 1496 710 1496 710 1414 788 c 1,92,93
 1341 853 1341 853 1247 853 c 0,79,80
1247 689 m 0,94,95
 1278 689 1278 689 1304 667 c 1,96,97
 1332 639 1332 639 1332 603 c 0,98,99
 1332 569 1332 569 1310 546 c 0,100,101
 1282 518 1282 518 1247 518 c 0,102,103
 1210 518 1210 518 1183 546 c 1,104,105
 1161 571 1161 571 1161 603 c 0,106,107
 1161 634 1161 634 1181 658 c 0,108,109
 1206 689 1206 689 1247 689 c 0,94,95
EndSplineSet
Validated: 1
EndChar

StartChar: Ldot
Encoding: 319 319 206
Width: 1822
Flags: W
LayerCount: 2
Fore
SplineSet
304 1456 m 1,0,-1
 304 778 l 1,1,-1
 495 778 l 1,2,-1
 495 1456 l 1,3,-1
 669 1456 l 1,4,-1
 669 778 l 1,5,-1
 860 778 l 1,6,-1
 860 1456 l 1,7,-1
 1032 1456 l 1,8,-1
 1032 778 l 1,9,-1
 1225 778 l 1,10,-1
 1225 1456 l 1,11,-1
 1368 1456 l 1,12,-1
 1368 344 l 1,13,-1
 1691 669 l 1,14,-1
 1691 432 l 1,15,-1
 1369 108 l 1,16,-1
 1225 108 l 1,17,-1
 1225 604 l 1,18,-1
 130 604 l 1,19,-1
 130 1456 l 1,20,-1
 304 1456 l 1,0,-1
EndSplineSet
Validated: 1
EndChar

StartChar: ldot
Encoding: 320 320 207
Width: 1822
Flags: W
LayerCount: 2
Fore
SplineSet
1111 0 m 1,0,-1
 1111 222 l 1,1,-1
 950 222 l 1,2,-1
 950 364 l 1,3,-1
 1111 364 l 1,4,-1
 1111 579 l 1,5,6
 1003 596 1003 596 911 662 c 1,7,8
 821 597 821 597 711 579 c 1,9,-1
 711 364 l 1,10,-1
 872 364 l 1,11,-1
 872 222 l 1,12,-1
 711 222 l 1,13,-1
 711 0 l 1,14,-1
 543 0 l 1,15,-1
 543 222 l 1,16,-1
 363 222 l 1,17,-1
 363 364 l 1,18,-1
 543 364 l 1,19,-1
 543 579 l 1,20,21
 374 606 374 606 257 738 c 0,22,23
 131 879 131 879 131 1068 c 0,24,25
 131 1272 131 1272 276 1418 c 128,-1,26
 421 1564 421 1564 627 1564 c 0,27,28
 782 1564 782 1564 911 1474 c 1,29,30
 1037 1564 1037 1564 1195 1564 c 0,31,32
 1399 1564 1399 1564 1545 1418 c 128,-1,33
 1691 1272 1691 1272 1691 1068 c 0,34,35
 1691 881 1691 881 1565 738 c 1,36,37
 1448 607 1448 607 1279 579 c 1,38,-1
 1279 364 l 1,39,-1
 1466 364 l 1,40,-1
 1466 222 l 1,41,-1
 1279 222 l 1,42,-1
 1279 0 l 1,43,-1
 1111 0 l 1,0,-1
1016 1374 m 1,44,45
 1122 1241 1122 1241 1122 1068 c 0,46,47
 1122 897 1122 897 1016 761 c 1,48,49
 1100 712 1100 712 1195 712 c 0,50,51
 1339 712 1339 712 1444.5 816.5 c 128,-1,52
 1550 921 1550 921 1550 1068 c 0,53,54
 1550 1208 1550 1208 1452 1313 c 1,55,56
 1347 1423 1347 1423 1195 1423 c 0,57,58
 1099 1423 1099 1423 1016 1374 c 1,44,45
806 761 m 1,59,60
 700 896 700 896 700 1068 c 0,61,62
 700 1241 700 1241 806 1374 c 1,63,64
 720 1423 720 1423 627 1423 c 0,65,66
 471 1423 471 1423 364 1306 c 1,67,68
 272 1203 272 1203 272 1068 c 0,69,70
 272 930 272 930 364 829 c 0,71,72
 471 712 471 712 627 712 c 0,73,74
 721 712 721 712 806 761 c 1,59,60
911 855 m 1,75,76
 982 952 982 952 982 1068 c 256,77,78
 982 1184 982 1184 911 1280 c 1,79,80
 840 1183 840 1183 840 1068 c 0,81,82
 840 950 840 950 911 855 c 1,75,76
EndSplineSet
Validated: 1
EndChar

StartChar: Lslash
Encoding: 321 321 208
Width: 1822
Flags: W
LayerCount: 2
Fore
SplineSet
229 1049 m 1,0,-1
 407 1049 l 1,1,2
 483 1261 483 1261 665 1401 c 0,3,4
 878 1564 878 1564 1142 1564 c 0,5,6
 1296 1564 1296 1564 1435 1506 c 128,-1,7
 1574 1448 1574 1448 1677 1351 c 1,8,-1
 1596 1184 l 1,9,10
 1513 1276 1513 1276 1395 1333 c 128,-1,11
 1277 1390 1277 1390 1142 1390 c 0,12,13
 955 1390 955 1390 799 1283 c 0,14,15
 667 1193 667 1193 596 1049 c 1,16,-1
 1528 1049 l 1,17,-1
 1443 875 l 1,18,-1
 541 875 l 1,19,20
 538 854 538 854 536 831 c 128,-1,21
 534 808 534 808 534 782 c 0,22,23
 534 739 534 739 535.5 723.5 c 128,-1,24
 537 708 537 708 542 682 c 1,25,-1
 1349 682 l 1,26,-1
 1264 509 l 1,27,-1
 598 509 l 1,28,29
 676 355 676 355 819 266 c 1,30,31
 966 173 966 173 1142 173 c 0,32,33
 1367 173 1367 173 1541 323 c 1,34,-1
 1541 109 l 1,35,36
 1356 0 1356 0 1142 0 c 0,37,38
 874 0 874 0 668 160 c 1,39,40
 488 296 488 296 409 509 c 1,41,-1
 144 509 l 1,42,-1
 229 682 l 1,43,-1
 366 682 l 1,44,45
 363 705 363 705 361 729.5 c 128,-1,46
 359 754 359 754 359 782 c 0,47,48
 359 830 359 830 365 875 c 1,49,-1
 144 875 l 1,50,-1
 229 1049 l 1,0,-1
EndSplineSet
Validated: 1
EndChar

StartChar: lslash
Encoding: 322 322 209
Width: 1822
Flags: W
LayerCount: 2
Fore
SplineSet
1180 330 m 1,0,1
 1267 276 1267 276 1321 185 c 128,-1,2
 1375 94 1375 94 1375 -13 c 0,3,4
 1375 -180 1375 -180 1257 -298 c 128,-1,5
 1139 -416 1139 -416 972 -416 c 0,6,7
 794 -416 794 -416 675 -284 c 1,8,9
 570 -170 570 -170 570 -13 c 0,10,11
 570 95 570 95 623.5 185.5 c 128,-1,12
 677 276 677 276 764 330 c 1,13,14
 697 372 697 372 649 436.5 c 128,-1,15
 601 501 601 501 581 579 c 1,16,-1
 703 579 l 1,17,18
 722 522 722 522 769 475 c 1,19,20
 825 416 825 416 906 397 c 1,21,-1
 906 729 l 1,22,23
 827 753 827 753 762 805 c 1,24,25
 651 887 651 887 602 1019 c 1,26,-1
 440 1019 l 1,27,-1
 492 1126 l 1,28,-1
 576 1126 l 1,29,-1
 572 1187 l 1,30,-1
 575 1245 l 1,31,-1
 440 1245 l 1,32,-1
 492 1352 l 1,33,-1
 601 1352 l 1,34,35
 649 1484 649 1484 760 1568 c 0,36,37
 825 1618 825 1618 896.5 1643 c 128,-1,38
 968 1668 968 1668 1053 1668 c 0,39,40
 1242 1668 1242 1668 1382 1537 c 1,41,-1
 1332 1435 l 1,42,43
 1219 1561 1219 1561 1053 1561 c 0,44,45
 938 1561 938 1561 842 1496 c 1,46,47
 763 1440 763 1440 717 1352 c 1,48,-1
 1290 1352 l 1,49,-1
 1238 1245 l 1,50,-1
 684 1245 l 1,51,-1
 679 1187 l 1,52,53
 679 1174 679 1174 680 1158.5 c 128,-1,54
 681 1143 681 1143 684 1126 c 1,55,-1
 1180 1126 l 1,56,-1
 1128 1019 l 1,57,-1
 719 1019 l 1,58,59
 764 927 764 927 854.5 870 c 128,-1,60
 945 813 945 813 1053 813 c 0,61,62
 1192 813 1192 813 1299 905 c 1,63,-1
 1299 774 l 1,64,65
 1184 706 1184 706 1053 706 c 2,66,-1
 1039 706 l 1,67,-1
 1039 397 l 1,68,69
 1107 412 1107 412 1161.5 461 c 128,-1,70
 1216 510 1216 510 1241 579 c 1,71,-1
 1363 579 l 1,72,73
 1342 491 1342 491 1284 420 c 0,74,75
 1238 365 1238 365 1180 330 c 1,0,1
972 272 m 0,76,77
 856 272 856 272 771 187 c 128,-1,78
 686 102 686 102 686 -13 c 0,79,80
 686 -129 686 -129 770 -214 c 128,-1,81
 854 -299 854 -299 972 -299 c 0,82,83
 1088 -299 1088 -299 1173 -215.5 c 128,-1,84
 1258 -132 1258 -132 1258 -13 c 0,85,86
 1258 112 1258 112 1164 197 c 1,87,88
 1083 272 1083 272 972 272 c 0,76,77
EndSplineSet
Validated: 1
EndChar

StartChar: Nacute
Encoding: 323 323 210
Width: 1550
Flags: W
LayerCount: 2
Fore
SplineSet
1001 -103 m 1,0,-1
 1001 1509 l 1,1,-1
 777 1509 l 1,2,-1
 777 -103 l 1,3,-1
 609 -103 l 1,4,-1
 609 855 l 1,5,6
 527 855 527 855 456 888 c 128,-1,7
 385 921 385 921 324 983 c 0,8,9
 207 1100 207 1100 207 1261 c 0,10,11
 207 1428 207 1428 334.5 1548 c 128,-1,12
 462 1668 462 1668 640 1668 c 2,13,-1
 1343 1668 l 1,14,-1
 1343 1509 l 1,15,-1
 1169 1509 l 1,16,-1
 1169 -103 l 1,17,-1
 1001 -103 l 1,0,-1
EndSplineSet
Validated: 1
EndChar

StartChar: nacute
Encoding: 324 324 211
Width: 1822
Flags: W
LayerCount: 2
Fore
SplineSet
910 1375 m 1,0,-1
 642 790 l 1,1,2
 768 844 768 844 910 844 c 0,3,4
 1046 844 1046 844 1178 790 c 1,5,-1
 910 1375 l 1,0,-1
911 455 m 0,6,7
 948 455 948 455 976 430 c 0,8,9
 1008 401 1008 401 1008 358 c 0,10,11
 1008 320 1008 320 983 292 c 0,12,13
 953 260 953 260 911 260 c 0,14,15
 870 260 870 260 841.5 289 c 128,-1,16
 813 318 813 318 813 358 c 0,17,18
 813 399 813 399 845 430 c 1,19,20
 873 455 873 455 911 455 c 0,6,7
1244 647 m 1,21,22
 1089 740 1089 740 910 740 c 0,23,24
 734 740 734 740 576 647 c 1,25,-1
 281 4 l 1,26,-1
 1539 4 l 1,27,-1
 1244 647 l 1,21,22
910 1631 m 1,28,-1
 1309 764 l 1,29,-1
 1707 -103 l 1,30,-1
 115 -103 l 1,31,-1
 512 764 l 1,32,-1
 910 1631 l 1,28,-1
910 604 m 0,33,34
 1054 604 1054 604 1173.5 537.5 c 128,-1,35
 1293 471 1293 471 1376 359 c 1,36,37
 1297 249 1297 249 1172 181.5 c 128,-1,38
 1047 114 1047 114 910 114 c 0,39,40
 767 114 767 114 645 180 c 128,-1,41
 523 246 523 246 444 359 c 1,42,43
 519 470 519 470 643.5 537 c 128,-1,44
 768 604 768 604 910 604 c 0,33,34
913 505 m 0,45,46
 797 505 797 505 702 459 c 0,47,48
 628 423 628 423 562 355 c 1,49,50
 634 284 634 284 718.5 248.5 c 128,-1,51
 803 213 803 213 906 213 c 0,52,53
 1018 213 1018 213 1113 258 c 0,54,55
 1154 277 1154 277 1187.5 302 c 128,-1,56
 1221 327 1221 327 1257 363 c 1,57,58
 1189 430 1189 430 1101.5 467.5 c 128,-1,59
 1014 505 1014 505 913 505 c 0,45,46
EndSplineSet
Validated: 1
EndChar

StartChar: Ncommaaccent
Encoding: 325 325 212
Width: 1822
Flags: W
LayerCount: 2
Fore
SplineSet
1588 326 m 1,0,-1
 1181 326 l 1,1,-1
 1217 94 l 1,2,-1
 1639 94 l 1,3,-1
 1588 326 l 1,0,-1
1069 326 m 1,4,-1
 752 326 l 1,5,-1
 728 94 l 1,6,-1
 1093 94 l 1,7,-1
 1069 326 l 1,4,-1
1022 1352 m 1,8,-1
 1043 1225 l 1,9,-1
 1121 1225 l 1,10,-1
 1093 1352 l 1,11,-1
 1022 1352 l 1,8,-1
1053 1141 m 1,12,-1
 1068 1047 l 1,13,-1
 1212 1047 l 1,14,-1
 1192 1141 l 1,15,-1
 1053 1141 l 1,12,-1
1082 960 m 1,16,-1
 1108 794 l 1,17,-1
 1324 794 l 1,18,-1
 1287 960 l 1,19,-1
 1082 960 l 1,16,-1
1122 700 m 1,20,-1
 1166 420 l 1,21,-1
 1437 420 l 1,22,-1
 1375 700 l 1,23,-1
 1122 700 l 1,20,-1
1059 420 m 1,24,-1
 1030 700 l 1,25,-1
 791 700 l 1,26,-1
 762 420 l 1,27,-1
 1059 420 l 1,24,-1
1020 794 m 1,28,-1
 1002 960 l 1,29,-1
 818 960 l 1,30,-1
 801 794 l 1,31,-1
 1020 794 l 1,28,-1
994 1047 m 1,32,-1
 984 1141 l 1,33,-1
 837 1140 l 1,34,-1
 827 1047 l 1,35,-1
 994 1047 l 1,32,-1
975 1225 m 1,36,-1
 962 1352 l 1,37,-1
 859 1352 l 1,38,-1
 846 1225 l 1,39,-1
 975 1225 l 1,36,-1
640 326 m 1,40,-1
 229 326 l 1,41,-1
 177 94 l 1,42,-1
 604 94 l 1,43,-1
 640 326 l 1,40,-1
801 1352 m 1,44,-1
 740 1352 l 1,45,-1
 712 1225 l 1,46,-1
 781 1225 l 1,47,-1
 801 1352 l 1,44,-1
768 1140 m 1,48,-1
 659 1140 l 1,49,-1
 638 1047 l 1,50,-1
 753 1047 l 1,51,-1
 768 1140 l 1,48,-1
740 960 m 1,52,-1
 552 960 l 1,53,-1
 514 794 l 1,54,-1
 713 794 l 1,55,-1
 740 960 l 1,52,-1
699 700 m 1,56,-1
 437 700 l 1,57,-1
 380 420 l 1,58,-1
 655 420 l 1,59,-1
 699 700 l 1,56,-1
1179 1438 m 1,60,-1
 1235 1225 l 1,61,-1
 1287 1225 l 1,62,-1
 1326 1047 l 1,63,-1
 1382 1047 l 1,64,-1
 1438 794 l 1,65,-1
 1473 794 l 1,66,-1
 1553 420 l 1,67,-1
 1680 420 l 1,68,-1
 1780 0 l 1,69,-1
 41 0 l 1,70,-1
 135 420 l 1,71,-1
 257 420 l 1,72,-1
 340 794 l 1,73,-1
 400 794 l 1,74,-1
 457 1047 l 1,75,-1
 524 1047 l 1,76,-1
 564 1225 l 1,77,-1
 612 1225 l 1,78,-1
 668 1438 l 1,79,-1
 1179 1438 l 1,60,-1
EndSplineSet
Validated: 1
EndChar

